<ttFont>
    <TTGlyph name=".notdef" xMin="32" yMin="0" xMax="440" yMax="780">
      <contour>
        <pt x="32" y="0" on="1"/>
        <pt x="32" y="780" on="1"/>
        <pt x="440" y="780" on="1"/>
        <pt x="440" y="0" on="1"/>
      </contour>
      <contour>
        <pt x="48" y="16" on="1"/>
        <pt x="424" y="16" on="1"/>
        <pt x="424" y="764" on="1"/>
        <pt x="48" y="764" on="1"/>
      </contour>
    </TTGlyph>
    <TTGlyph name="A" xMin="32" yMin="0" xMax="568" yMax="698">
      <contour>
        <pt x="545" y="0" on="1"/>
        <pt x="460" y="234" on="1"/>
        <pt x="140" y="234" on="1"/>
        <pt x="55" y="0" on="1"/>
        <pt x="32" y="0" on="1"/>
        <pt x="285" y="698" on="1"/>
        <pt x="315" y="698" on="1"/>
        <pt x="568" y="0" on="1"/>
      </contour>
      <contour>
        <pt x="301" y="675" on="1"/>
        <pt x="298" y="675" on="1"/>
        <pt x="147" y="253" on="1"/>
        <pt x="453" y="253" on="1"/>
      </contour>
    </TTGlyph>
    <TTGlyph name="AE" xMin="2" yMin="0" xMax="789" yMax="698">
      <contour>
        <pt x="408" y="234" on="1"/>
        <pt x="155" y="234" on="1"/>
        <pt x="26" y="0" on="1"/>
        <pt x="2" y="0" on="1"/>
        <pt x="385" y="698" on="1"/>
        <pt x="789" y="698" on="1"/>
        <pt x="789" y="678" on="1"/>
        <pt x="430" y="678" on="1"/>
        <pt x="430" y="364" on="1"/>
        <pt x="777" y="364" on="1"/>
        <pt x="777" y="344" on="1"/>
        <pt x="430" y="344" on="1"/>
        <pt x="430" y="20" on="1"/>
        <pt x="789" y="20" on="1"/>
        <pt x="789" y="0" on="1"/>
        <pt x="408" y="0" on="1"/>
      </contour>
      <contour>
        <pt x="397" y="678" on="1"/>
        <pt x="165" y="253" on="1"/>
        <pt x="408" y="253" on="1"/>
        <pt x="408" y="678" on="1"/>
      </contour>
    </TTGlyph>
    <TTGlyph name="Aacute" xMin="32" yMin="0" xMax="568" yMax="931">
      <component glyphName="A" x="0" y="0" flags="0x204"/>
      <component glyphName="acute.case" x="0" y="0" flags="0x4"/>
    </TTGlyph>
    <TTGlyph name="Acircumflex" xMin="32" yMin="0" xMax="568" yMax="923">
      <component glyphName="A" x="0" y="0" flags="0x204"/>
      <component glyphName="circumflex.case" x="0" y="0" flags="0x4"/>
    </TTGlyph>
    <TTGlyph name="Adieresis" xMin="32" yMin="0" xMax="568" yMax="868">
      <component glyphName="A" x="0" y="0" flags="0x204"/>
      <component glyphName="dieresis.case" x="0" y="0" flags="0x4"/>
    </TTGlyph>
    <TTGlyph name="Agrave" xMin="32" yMin="0" xMax="568" yMax="931">
      <component glyphName="A" x="0" y="0" flags="0x204"/>
      <component glyphName="grave.case" x="0" y="0" flags="0x4"/>
    </TTGlyph>
    <TTGlyph name="Aring" xMin="32" yMin="0" xMax="568" yMax="951">
      <component glyphName="A" x="0" y="0" flags="0x204"/>
      <component glyphName="ring.case" x="0" y="0" flags="0x4"/>
    </TTGlyph>
    <TTGlyph name="Atilde" xMin="32" yMin="0" xMax="568" yMax="882">
      <component glyphName="A" x="0" y="0" flags="0x204"/>
      <component glyphName="tilde.case" x="0" y="0" flags="0x4"/>
    </TTGlyph>
    <TTGlyph name="B" xMin="108" yMin="0" xMax="550" yMax="698">
      <contour>
        <pt x="108" y="698" on="1"/>
        <pt x="360" y="698" on="1"/>
        <pt x="435" y="698" on="0"/>
        <pt x="518" y="612" on="0"/>
        <pt x="518" y="528" on="1"/>
        <pt x="518" y="462" on="0"/>
        <pt x="467" y="386" on="0"/>
        <pt x="420" y="371" on="1"/>
        <pt x="420" y="369" on="1"/>
        <pt x="486" y="357" on="0"/>
        <pt x="550" y="263" on="0"/>
        <pt x="550" y="189" on="1"/>
        <pt x="550" y="102" on="0"/>
        <pt x="462" y="0" on="0"/>
        <pt x="376" y="0" on="1"/>
        <pt x="108" y="0" on="1"/>
      </contour>
      <contour>
        <pt x="130" y="20" on="1"/>
        <pt x="376" y="20" on="1"/>
        <pt x="415" y="20" on="0"/>
        <pt x="471" y="45" on="0"/>
        <pt x="508" y="86" on="0"/>
        <pt x="526" y="139" on="0"/>
        <pt x="526" y="168" on="1"/>
        <pt x="526" y="210" on="1"/>
        <pt x="526" y="238" on="0"/>
        <pt x="508" y="292" on="0"/>
        <pt x="471" y="333" on="0"/>
        <pt x="415" y="358" on="0"/>
        <pt x="376" y="358" on="1"/>
        <pt x="130" y="358" on="1"/>
      </contour>
      <contour>
        <pt x="130" y="378" on="1"/>
        <pt x="360" y="378" on="1"/>
        <pt x="394" y="378" on="0"/>
        <pt x="445" y="399" on="0"/>
        <pt x="478" y="435" on="0"/>
        <pt x="494" y="482" on="0"/>
        <pt x="494" y="507" on="1"/>
        <pt x="494" y="549" on="1"/>
        <pt x="494" y="574" on="0"/>
        <pt x="478" y="621" on="0"/>
        <pt x="445" y="657" on="0"/>
        <pt x="394" y="678" on="0"/>
        <pt x="360" y="678" on="1"/>
        <pt x="130" y="678" on="1"/>
      </contour>
    </TTGlyph>
    <TTGlyph name="C" xMin="70" yMin="-12" xMax="550" yMax="710">
      <contour>
        <pt x="329" y="-12" on="1"/>
        <pt x="204" y="-12" on="0"/>
        <pt x="70" y="168" on="0"/>
        <pt x="70" y="349" on="1"/>
        <pt x="70" y="530" on="0"/>
        <pt x="204" y="710" on="0"/>
        <pt x="329" y="710" on="1"/>
        <pt x="406" y="710" on="0"/>
        <pt x="516" y="631" on="0"/>
        <pt x="545" y="567" on="1"/>
        <pt x="526" y="558" on="1"/>
        <pt x="499" y="620" on="0"/>
        <pt x="398" y="690" on="0"/>
        <pt x="329" y="690" on="1"/>
        <pt x="219" y="690" on="0"/>
        <pt x="94" y="532" on="0"/>
        <pt x="94" y="370" on="1"/>
        <pt x="94" y="328" on="1"/>
        <pt x="94" y="166" on="0"/>
        <pt x="219" y="8" on="0"/>
        <pt x="329" y="8" on="1"/>
        <pt x="404" y="8" on="0"/>
        <pt x="505" y="82" on="0"/>
        <pt x="531" y="148" on="1"/>
        <pt x="550" y="140" on="1"/>
        <pt x="523" y="71" on="0"/>
        <pt x="410" y="-12" on="0"/>
      </contour>
    </TTGlyph>
    <TTGlyph name="Ccedilla" xMin="70" yMin="-202" xMax="550" yMax="710">
      <contour>
        <pt x="329" y="690" on="1"/>
        <pt x="219" y="690" on="0"/>
        <pt x="94" y="532" on="0"/>
        <pt x="94" y="370" on="1"/>
        <pt x="94" y="328" on="1"/>
        <pt x="94" y="166" on="0"/>
        <pt x="219" y="8" on="0"/>
        <pt x="329" y="8" on="1"/>
        <pt x="404" y="8" on="0"/>
        <pt x="505" y="82" on="0"/>
        <pt x="531" y="148" on="1"/>
        <pt x="550" y="140" on="1"/>
        <pt x="524" y="74" on="0"/>
        <pt x="416" y="-9" on="0"/>
        <pt x="340" y="-12" on="1"/>
        <pt x="325" y="-73" on="1"/>
        <pt x="327" y="-75" on="1"/>
        <pt x="334" y="-73" on="0"/>
        <pt x="350" y="-72" on="0"/>
        <pt x="357" y="-72" on="1"/>
        <pt x="386" y="-72" on="0"/>
        <pt x="424" y="-104" on="0"/>
        <pt x="424" y="-131" on="1"/>
        <pt x="424" y="-160" on="0"/>
        <pt x="380" y="-202" on="0"/>
        <pt x="342" y="-202" on="1"/>
        <pt x="313" y="-202" on="0"/>
        <pt x="270" y="-183" on="0"/>
        <pt x="261" y="-170" on="1"/>
        <pt x="274" y="-157" on="1"/>
        <pt x="296" y="-184" on="0"/>
        <pt x="342" y="-184" on="1"/>
        <pt x="369" y="-184" on="0"/>
        <pt x="403" y="-158" on="0"/>
        <pt x="403" y="-132" on="1"/>
        <pt x="403" y="-113" on="0"/>
        <pt x="376" y="-88" on="0"/>
        <pt x="342" y="-86" on="1"/>
        <pt x="305" y="-84" on="1"/>
        <pt x="322" y="-12" on="1"/>
        <pt x="201" y="-10" on="0"/>
        <pt x="70" y="170" on="0"/>
        <pt x="70" y="349" on="1"/>
        <pt x="70" y="530" on="0"/>
        <pt x="204" y="710" on="0"/>
        <pt x="329" y="710" on="1"/>
        <pt x="406" y="710" on="0"/>
        <pt x="516" y="631" on="0"/>
        <pt x="545" y="567" on="1"/>
        <pt x="526" y="558" on="1"/>
        <pt x="499" y="620" on="0"/>
        <pt x="398" y="690" on="0"/>
      </contour>
    </TTGlyph>
    <TTGlyph name="D" xMin="108" yMin="0" xMax="588" yMax="698">
      <contour>
        <pt x="108" y="698" on="1"/>
        <pt x="312" y="698" on="1"/>
        <pt x="452" y="698" on="0"/>
        <pt x="588" y="523" on="0"/>
        <pt x="588" y="349" on="1"/>
        <pt x="588" y="175" on="0"/>
        <pt x="452" y="0" on="0"/>
        <pt x="312" y="0" on="1"/>
        <pt x="108" y="0" on="1"/>
      </contour>
      <contour>
        <pt x="313" y="20" on="1"/>
        <pt x="378" y="20" on="0"/>
        <pt x="473" y="63" on="0"/>
        <pt x="534" y="141" on="0"/>
        <pt x="564" y="251" on="0"/>
        <pt x="564" y="319" on="1"/>
        <pt x="564" y="379" on="1"/>
        <pt x="564" y="447" on="0"/>
        <pt x="534" y="557" on="0"/>
        <pt x="473" y="635" on="0"/>
        <pt x="378" y="678" on="0"/>
        <pt x="313" y="678" on="1"/>
        <pt x="130" y="678" on="1"/>
        <pt x="130" y="20" on="1"/>
      </contour>
    </TTGlyph>
    <TTGlyph name="Dcroat" xMin="28" yMin="0" xMax="591" yMax="698">
      <contour>
        <pt x="111" y="359" on="1"/>
        <pt x="28" y="359" on="1"/>
        <pt x="28" y="378" on="1"/>
        <pt x="111" y="378" on="1"/>
        <pt x="111" y="698" on="1"/>
        <pt x="315" y="698" on="1"/>
        <pt x="455" y="698" on="0"/>
        <pt x="591" y="523" on="0"/>
        <pt x="591" y="349" on="1"/>
        <pt x="591" y="175" on="0"/>
        <pt x="455" y="0" on="0"/>
        <pt x="315" y="0" on="1"/>
        <pt x="111" y="0" on="1"/>
      </contour>
      <contour>
        <pt x="316" y="20" on="1"/>
        <pt x="381" y="20" on="0"/>
        <pt x="476" y="63" on="0"/>
        <pt x="537" y="141" on="0"/>
        <pt x="567" y="251" on="0"/>
        <pt x="567" y="319" on="1"/>
        <pt x="567" y="379" on="1"/>
        <pt x="567" y="447" on="0"/>
        <pt x="537" y="557" on="0"/>
        <pt x="476" y="635" on="0"/>
        <pt x="381" y="678" on="0"/>
        <pt x="316" y="678" on="1"/>
        <pt x="133" y="678" on="1"/>
        <pt x="133" y="378" on="1"/>
        <pt x="305" y="378" on="1"/>
        <pt x="305" y="359" on="1"/>
        <pt x="133" y="359" on="1"/>
        <pt x="133" y="20" on="1"/>
      </contour>
    </TTGlyph>
    <TTGlyph name="Delta" xMin="39" yMin="0" xMax="561" yMax="698">
      <contour>
        <pt x="39" y="19" on="1"/>
        <pt x="285" y="698" on="1"/>
        <pt x="315" y="698" on="1"/>
        <pt x="561" y="19" on="1"/>
        <pt x="561" y="0" on="1"/>
        <pt x="39" y="0" on="1"/>
      </contour>
      <contour>
        <pt x="301" y="675" on="1"/>
        <pt x="298" y="675" on="1"/>
        <pt x="62" y="19" on="1"/>
        <pt x="538" y="19" on="1"/>
      </contour>
    </TTGlyph>
    <TTGlyph name="E" xMin="108" yMin="0" xMax="489" yMax="698">
      <contour>
        <pt x="108" y="0" on="1"/>
        <pt x="108" y="698" on="1"/>
        <pt x="489" y="698" on="1"/>
        <pt x="489" y="678" on="1"/>
        <pt x="130" y="678" on="1"/>
        <pt x="130" y="364" on="1"/>
        <pt x="477" y="364" on="1"/>
        <pt x="477" y="344" on="1"/>
        <pt x="130" y="344" on="1"/>
        <pt x="130" y="20" on="1"/>
        <pt x="489" y="20" on="1"/>
        <pt x="489" y="0" on="1"/>
      </contour>
    </TTGlyph>
    <TTGlyph name="Eacute" xMin="108" yMin="0" xMax="489" yMax="931">
      <component glyphName="E" x="0" y="0" flags="0x204"/>
      <component glyphName="acute.case" x="0" y="0" flags="0x4"/>
    </TTGlyph>
    <TTGlyph name="Ecircumflex" xMin="108" yMin="0" xMax="489" yMax="923">
      <component glyphName="E" x="0" y="0" flags="0x204"/>
      <component glyphName="circumflex.case" x="0" y="0" flags="0x4"/>
    </TTGlyph>
    <TTGlyph name="Edieresis" xMin="108" yMin="0" xMax="489" yMax="868">
      <component glyphName="E" x="0" y="0" flags="0x204"/>
      <component glyphName="dieresis.case" x="0" y="0" flags="0x4"/>
    </TTGlyph>
    <TTGlyph name="Egrave" xMin="108" yMin="0" xMax="489" yMax="931">
      <component glyphName="E" x="0" y="0" flags="0x204"/>
      <component glyphName="grave.case" x="0" y="0" flags="0x4"/>
    </TTGlyph>
    <TTGlyph name="Eth" xMin="28" yMin="0" xMax="591" yMax="698">
      <component glyphName="Dcroat" x="0" y="0" flags="0x204"/>
    </TTGlyph>
    <TTGlyph name="Euro" xMin="70" yMin="-12" xMax="550" yMax="710">
      <contour>
        <pt x="550" y="140" on="1"/>
        <pt x="523" y="71" on="0"/>
        <pt x="410" y="-12" on="0"/>
        <pt x="329" y="-12" on="1"/>
        <pt x="204" y="-12" on="0"/>
        <pt x="70" y="171" on="0"/>
        <pt x="70" y="349" on="1"/>
        <pt x="70" y="528" on="0"/>
        <pt x="204" y="710" on="0"/>
        <pt x="329" y="710" on="1"/>
        <pt x="406" y="710" on="0"/>
        <pt x="516" y="631" on="0"/>
        <pt x="545" y="567" on="1"/>
        <pt x="526" y="558" on="1"/>
        <pt x="499" y="620" on="0"/>
        <pt x="398" y="690" on="0"/>
        <pt x="329" y="690" on="1"/>
        <pt x="231" y="690" on="0"/>
        <pt x="110" y="562" on="0"/>
        <pt x="97" y="435" on="1"/>
        <pt x="360" y="435" on="1"/>
        <pt x="360" y="416" on="1"/>
        <pt x="95" y="416" on="1"/>
        <pt x="94" y="405" on="0"/>
        <pt x="94" y="382" on="0"/>
        <pt x="94" y="370" on="1"/>
        <pt x="94" y="328" on="1"/>
        <pt x="94" y="315" on="0"/>
        <pt x="95" y="291" on="0"/>
        <pt x="96" y="282" on="1"/>
        <pt x="360" y="282" on="1"/>
        <pt x="360" y="263" on="1"/>
        <pt x="97" y="263" on="1"/>
        <pt x="110" y="136" on="0"/>
        <pt x="232" y="8" on="0"/>
        <pt x="329" y="8" on="1"/>
        <pt x="404" y="8" on="0"/>
        <pt x="505" y="82" on="0"/>
        <pt x="531" y="148" on="1"/>
        <pt x="550" y="140" on="1"/>
      </contour>
    </TTGlyph>
    <TTGlyph name="F" xMin="108" yMin="0" xMax="481" yMax="698">
      <contour>
        <pt x="108" y="0" on="1"/>
        <pt x="108" y="698" on="1"/>
        <pt x="481" y="698" on="1"/>
        <pt x="481" y="678" on="1"/>
        <pt x="130" y="678" on="1"/>
        <pt x="130" y="364" on="1"/>
        <pt x="467" y="364" on="1"/>
        <pt x="467" y="344" on="1"/>
        <pt x="130" y="344" on="1"/>
        <pt x="130" y="0" on="1"/>
      </contour>
    </TTGlyph>
    <TTGlyph name="G" xMin="70" yMin="-12" xMax="586" yMax="710">
      <contour>
        <pt x="565" y="114" on="1"/>
        <pt x="562" y="114" on="1"/>
        <pt x="533" y="54" on="0"/>
        <pt x="424" y="-12" on="0"/>
        <pt x="340" y="-12" on="1"/>
        <pt x="209" y="-12" on="0"/>
        <pt x="70" y="168" on="0"/>
        <pt x="70" y="349" on="1"/>
        <pt x="70" y="530" on="0"/>
        <pt x="209" y="710" on="0"/>
        <pt x="340" y="710" on="1"/>
        <pt x="421" y="710" on="0"/>
        <pt x="540" y="632" on="0"/>
        <pt x="569" y="567" on="1"/>
        <pt x="550" y="558" on="1"/>
        <pt x="523" y="621" on="0"/>
        <pt x="413" y="690" on="0"/>
        <pt x="340" y="690" on="1"/>
        <pt x="225" y="690" on="0"/>
        <pt x="94" y="529" on="0"/>
        <pt x="94" y="370" on="1"/>
        <pt x="94" y="328" on="1"/>
        <pt x="94" y="169" on="0"/>
        <pt x="225" y="8" on="0"/>
        <pt x="340" y="8" on="1"/>
        <pt x="385" y="8" on="0"/>
        <pt x="466" y="33" on="0"/>
        <pt x="528" y="82" on="0"/>
        <pt x="564" y="156" on="0"/>
        <pt x="564" y="206" on="1"/>
        <pt x="564" y="312" on="1"/>
        <pt x="388" y="312" on="1"/>
        <pt x="388" y="332" on="1"/>
        <pt x="586" y="332" on="1"/>
        <pt x="586" y="0" on="1"/>
        <pt x="565" y="0" on="1"/>
      </contour>
    </TTGlyph>
    <TTGlyph name="H" xMin="108" yMin="0" xMax="584" yMax="698">
      <contour>
        <pt x="562" y="344" on="1"/>
        <pt x="130" y="344" on="1"/>
        <pt x="130" y="0" on="1"/>
        <pt x="108" y="0" on="1"/>
        <pt x="108" y="698" on="1"/>
        <pt x="130" y="698" on="1"/>
        <pt x="130" y="364" on="1"/>
        <pt x="562" y="364" on="1"/>
        <pt x="562" y="698" on="1"/>
        <pt x="584" y="698" on="1"/>
        <pt x="584" y="0" on="1"/>
        <pt x="562" y="0" on="1"/>
      </contour>
    </TTGlyph>
    <TTGlyph name="I" xMin="68" yMin="0" xMax="304" yMax="698">
      <contour>
        <pt x="68" y="0" on="1"/>
        <pt x="68" y="19" on="1"/>
        <pt x="175" y="19" on="1"/>
        <pt x="175" y="679" on="1"/>
        <pt x="68" y="679" on="1"/>
        <pt x="68" y="698" on="1"/>
        <pt x="304" y="698" on="1"/>
        <pt x="304" y="679" on="1"/>
        <pt x="197" y="679" on="1"/>
        <pt x="197" y="19" on="1"/>
        <pt x="304" y="19" on="1"/>
        <pt x="304" y="0" on="1"/>
      </contour>
    </TTGlyph>
    <TTGlyph name="IJ" xMin="100" yMin="-12" xMax="531" yMax="698">
      <contour>
        <pt x="531" y="698" on="1"/>
        <pt x="531" y="202" on="1"/>
        <pt x="531" y="98" on="0"/>
        <pt x="418" y="-12" on="0"/>
        <pt x="310" y="-12" on="1"/>
        <pt x="218" y="-12" on="0"/>
        <pt x="118" y="58" on="0"/>
        <pt x="100" y="133" on="1"/>
        <pt x="119" y="139" on="1"/>
        <pt x="139" y="70" on="0"/>
        <pt x="228" y="8" on="0"/>
        <pt x="310" y="8" on="1"/>
        <pt x="407" y="8" on="0"/>
        <pt x="509" y="108" on="0"/>
        <pt x="509" y="202" on="1"/>
        <pt x="509" y="678" on="1"/>
        <pt x="313" y="678" on="1"/>
        <pt x="313" y="698" on="1"/>
      </contour>
      <contour>
        <pt x="100" y="698" on="1"/>
        <pt x="122" y="698" on="1"/>
        <pt x="122" y="290" on="1"/>
        <pt x="100" y="290" on="1"/>
      </contour>
    </TTGlyph>
    <TTGlyph name="Iacute" xMin="68" yMin="0" xMax="304" yMax="931">
      <component glyphName="I" x="0" y="0" flags="0x204"/>
      <component glyphName="acute.case" x="-114" y="0" flags="0x4"/>
    </TTGlyph>
    <TTGlyph name="Icircumflex" xMin="46" yMin="0" xMax="326" yMax="923">
      <component glyphName="I" x="0" y="0" flags="0x204"/>
      <component glyphName="circumflex.case" x="-114" y="0" flags="0x4"/>
    </TTGlyph>
    <TTGlyph name="Idieresis" xMin="68" yMin="0" xMax="304" yMax="868">
      <component glyphName="I" x="0" y="0" flags="0x204"/>
      <component glyphName="dieresis.case" x="-114" y="0" flags="0x4"/>
    </TTGlyph>
    <TTGlyph name="Igrave" xMin="68" yMin="0" xMax="304" yMax="931">
      <component glyphName="I" x="0" y="0" flags="0x204"/>
      <component glyphName="grave.case" x="-114" y="0" flags="0x4"/>
    </TTGlyph>
    <TTGlyph name="J" xMin="22" yMin="-12" xMax="364" yMax="698">
      <contour>
        <pt x="364" y="698" on="1"/>
        <pt x="364" y="183" on="1"/>
        <pt x="364" y="86" on="0"/>
        <pt x="273" y="-12" on="0"/>
        <pt x="192" y="-12" on="1"/>
        <pt x="129" y="-12" on="0"/>
        <pt x="36" y="57" on="0"/>
        <pt x="22" y="113" on="1"/>
        <pt x="41" y="119" on="1"/>
        <pt x="55" y="71" on="0"/>
        <pt x="134" y="8" on="0"/>
        <pt x="192" y="8" on="1"/>
        <pt x="267" y="8" on="0"/>
        <pt x="342" y="98" on="0"/>
        <pt x="342" y="183" on="1"/>
        <pt x="342" y="678" on="1"/>
        <pt x="96" y="678" on="1"/>
        <pt x="96" y="698" on="1"/>
      </contour>
    </TTGlyph>
    <TTGlyph name="K" xMin="108" yMin="0" xMax="552" yMax="698">
      <contour>
        <pt x="265" y="387" on="1"/>
        <pt x="130" y="239" on="1"/>
        <pt x="130" y="0" on="1"/>
        <pt x="108" y="0" on="1"/>
        <pt x="108" y="698" on="1"/>
        <pt x="130" y="698" on="1"/>
        <pt x="130" y="271" on="1"/>
        <pt x="132" y="271" on="1"/>
        <pt x="262" y="413" on="1"/>
        <pt x="521" y="698" on="1"/>
        <pt x="549" y="698" on="1"/>
        <pt x="280" y="403" on="1"/>
        <pt x="552" y="0" on="1"/>
        <pt x="526" y="0" on="1"/>
      </contour>
    </TTGlyph>
    <TTGlyph name="L" xMin="108" yMin="0" xMax="455" yMax="698">
      <contour>
        <pt x="108" y="0" on="1"/>
        <pt x="108" y="698" on="1"/>
        <pt x="130" y="698" on="1"/>
        <pt x="130" y="20" on="1"/>
        <pt x="455" y="20" on="1"/>
        <pt x="455" y="0" on="1"/>
      </contour>
    </TTGlyph>
    <TTGlyph name="Lslash" xMin="14" yMin="0" xMax="458" yMax="698">
      <contour>
        <pt x="458" y="0" on="1"/>
        <pt x="111" y="0" on="1"/>
        <pt x="111" y="303" on="1"/>
        <pt x="14" y="272" on="1"/>
        <pt x="14" y="292" on="1"/>
        <pt x="111" y="323" on="1"/>
        <pt x="111" y="698" on="1"/>
        <pt x="133" y="698" on="1"/>
        <pt x="133" y="330" on="1"/>
        <pt x="337" y="394" on="1"/>
        <pt x="337" y="374" on="1"/>
        <pt x="133" y="310" on="1"/>
        <pt x="133" y="20" on="1"/>
        <pt x="458" y="20" on="1"/>
      </contour>
    </TTGlyph>
    <TTGlyph name="M" xMin="108" yMin="0" xMax="688" yMax="698">
      <contour>
        <pt x="667" y="673" on="1"/>
        <pt x="664" y="673" on="1"/>
        <pt x="398" y="236" on="1"/>
        <pt x="132" y="673" on="1"/>
        <pt x="129" y="673" on="1"/>
        <pt x="129" y="0" on="1"/>
        <pt x="108" y="0" on="1"/>
        <pt x="108" y="698" on="1"/>
        <pt x="141" y="698" on="1"/>
        <pt x="397" y="278" on="1"/>
        <pt x="400" y="278" on="1"/>
        <pt x="655" y="698" on="1"/>
        <pt x="688" y="698" on="1"/>
        <pt x="688" y="0" on="1"/>
        <pt x="667" y="0" on="1"/>
      </contour>
    </TTGlyph>
    <TTGlyph name="N" xMin="108" yMin="0" xMax="584" yMax="698">
      <contour>
        <pt x="132" y="671" on="1"/>
        <pt x="129" y="671" on="1"/>
        <pt x="129" y="0" on="1"/>
        <pt x="108" y="0" on="1"/>
        <pt x="108" y="698" on="1"/>
        <pt x="140" y="698" on="1"/>
        <pt x="560" y="27" on="1"/>
        <pt x="563" y="27" on="1"/>
        <pt x="563" y="698" on="1"/>
        <pt x="584" y="698" on="1"/>
        <pt x="584" y="0" on="1"/>
        <pt x="552" y="0" on="1"/>
      </contour>
    </TTGlyph>
    <TTGlyph name="Ntilde" xMin="108" yMin="0" xMax="584" yMax="882">
      <component glyphName="N" x="0" y="0" flags="0x204"/>
      <component glyphName="tilde.case" x="46" y="0" flags="0x4"/>
    </TTGlyph>
    <TTGlyph name="O" xMin="70" yMin="-12" xMax="610" yMax="710">
      <contour>
        <pt x="340" y="-12" on="1"/>
        <pt x="209" y="-12" on="0"/>
        <pt x="70" y="168" on="0"/>
        <pt x="70" y="349" on="1"/>
        <pt x="70" y="530" on="0"/>
        <pt x="209" y="710" on="0"/>
        <pt x="340" y="710" on="1"/>
        <pt x="471" y="710" on="0"/>
        <pt x="610" y="530" on="0"/>
        <pt x="610" y="349" on="1"/>
        <pt x="610" y="168" on="0"/>
        <pt x="471" y="-12" on="0"/>
      </contour>
      <contour>
        <pt x="340" y="8" on="1"/>
        <pt x="455" y="8" on="0"/>
        <pt x="586" y="169" on="0"/>
        <pt x="586" y="328" on="1"/>
        <pt x="586" y="370" on="1"/>
        <pt x="586" y="529" on="0"/>
        <pt x="455" y="690" on="0"/>
        <pt x="340" y="690" on="1"/>
        <pt x="225" y="690" on="0"/>
        <pt x="94" y="529" on="0"/>
        <pt x="94" y="370" on="1"/>
        <pt x="94" y="328" on="1"/>
        <pt x="94" y="169" on="0"/>
        <pt x="225" y="8" on="0"/>
      </contour>
    </TTGlyph>
    <TTGlyph name="OE" xMin="70" yMin="-12" xMax="895" yMax="710">
      <contour>
        <pt x="514" y="0" on="1"/>
        <pt x="490" y="-4" on="0"/>
        <pt x="415" y="-12" on="0"/>
        <pt x="370" y="-12" on="1"/>
        <pt x="224" y="-12" on="0"/>
        <pt x="70" y="168" on="0"/>
        <pt x="70" y="349" on="1"/>
        <pt x="70" y="530" on="0"/>
        <pt x="224" y="710" on="0"/>
        <pt x="370" y="710" on="1"/>
        <pt x="415" y="710" on="0"/>
        <pt x="490" y="702" on="0"/>
        <pt x="514" y="698" on="1"/>
        <pt x="895" y="698" on="1"/>
        <pt x="895" y="678" on="1"/>
        <pt x="536" y="678" on="1"/>
        <pt x="536" y="364" on="1"/>
        <pt x="883" y="364" on="1"/>
        <pt x="883" y="344" on="1"/>
        <pt x="536" y="344" on="1"/>
        <pt x="536" y="20" on="1"/>
        <pt x="895" y="20" on="1"/>
        <pt x="895" y="0" on="1"/>
      </contour>
      <contour>
        <pt x="370" y="8" on="1"/>
        <pt x="415" y="8" on="0"/>
        <pt x="488" y="17" on="0"/>
        <pt x="514" y="22" on="1"/>
        <pt x="514" y="676" on="1"/>
        <pt x="488" y="681" on="0"/>
        <pt x="415" y="690" on="0"/>
        <pt x="370" y="690" on="1"/>
        <pt x="241" y="690" on="0"/>
        <pt x="94" y="528" on="0"/>
        <pt x="94" y="370" on="1"/>
        <pt x="94" y="328" on="1"/>
        <pt x="94" y="170" on="0"/>
        <pt x="241" y="8" on="0"/>
      </contour>
    </TTGlyph>
    <TTGlyph name="Oacute" xMin="70" yMin="-12" xMax="610" yMax="931">
      <component glyphName="O" x="0" y="0" flags="0x204"/>
      <component glyphName="acute.case" x="40" y="0" flags="0x4"/>
    </TTGlyph>
    <TTGlyph name="Ocircumflex" xMin="70" yMin="-12" xMax="610" yMax="923">
      <component glyphName="O" x="0" y="0" flags="0x204"/>
      <component glyphName="circumflex.case" x="40" y="0" flags="0x4"/>
    </TTGlyph>
    <TTGlyph name="Odieresis" xMin="70" yMin="-12" xMax="610" yMax="868">
      <component glyphName="O" x="0" y="0" flags="0x204"/>
      <component glyphName="dieresis.case" x="40" y="0" flags="0x4"/>
    </TTGlyph>
    <TTGlyph name="Ograve" xMin="70" yMin="-12" xMax="610" yMax="931">
      <component glyphName="O" x="0" y="0" flags="0x204"/>
      <component glyphName="grave.case" x="40" y="0" flags="0x4"/>
    </TTGlyph>
    <TTGlyph name="Omega" xMin="75" yMin="0" xMax="623" yMax="710">
      <contour>
        <pt x="82" y="20" on="1"/>
        <pt x="259" y="20" on="1"/>
        <pt x="259" y="37" on="1"/>
        <pt x="208" y="66" on="0"/>
        <pt x="138" y="133" on="0"/>
        <pt x="94" y="215" on="0"/>
        <pt x="75" y="316" on="0"/>
        <pt x="75" y="379" on="1"/>
        <pt x="75" y="540" on="0"/>
        <pt x="216" y="710" on="0"/>
        <pt x="349" y="710" on="1"/>
        <pt x="482" y="710" on="0"/>
        <pt x="623" y="540" on="0"/>
        <pt x="623" y="379" on="1"/>
        <pt x="623" y="316" on="0"/>
        <pt x="604" y="215" on="0"/>
        <pt x="560" y="133" on="0"/>
        <pt x="490" y="66" on="0"/>
        <pt x="439" y="37" on="1"/>
        <pt x="439" y="20" on="1"/>
        <pt x="616" y="20" on="1"/>
        <pt x="616" y="0" on="1"/>
        <pt x="419" y="0" on="1"/>
        <pt x="419" y="49" on="1"/>
        <pt x="447" y="62" on="0"/>
        <pt x="511" y="110" on="0"/>
        <pt x="564" y="183" on="0"/>
        <pt x="599" y="282" on="0"/>
        <pt x="599" y="347" on="1"/>
        <pt x="599" y="411" on="1"/>
        <pt x="599" y="475" on="0"/>
        <pt x="564" y="578" on="0"/>
        <pt x="498" y="651" on="0"/>
        <pt x="406" y="690" on="0"/>
        <pt x="349" y="690" on="1"/>
        <pt x="292" y="690" on="0"/>
        <pt x="200" y="651" on="0"/>
        <pt x="134" y="578" on="0"/>
        <pt x="99" y="475" on="0"/>
        <pt x="99" y="411" on="1"/>
        <pt x="99" y="347" on="1"/>
        <pt x="99" y="282" on="0"/>
        <pt x="134" y="183" on="0"/>
        <pt x="187" y="110" on="0"/>
        <pt x="250" y="62" on="0"/>
        <pt x="279" y="49" on="1"/>
        <pt x="279" y="0" on="1"/>
        <pt x="82" y="0" on="1"/>
      </contour>
    </TTGlyph>
    <TTGlyph name="Oslash" xMin="70" yMin="-31" xMax="610" yMax="731">
      <contour>
        <pt x="340" y="-12" on="1"/>
        <pt x="220" y="-12" on="0"/>
        <pt x="153" y="63" on="1"/>
        <pt x="88" y="-31" on="1"/>
        <pt x="70" y="-20" on="1"/>
        <pt x="139" y="80" on="1"/>
        <pt x="70" y="172" on="0"/>
        <pt x="70" y="349" on="1"/>
        <pt x="70" y="530" on="0"/>
        <pt x="209" y="710" on="0"/>
        <pt x="340" y="710" on="1"/>
        <pt x="458" y="710" on="0"/>
        <pt x="527" y="636" on="1"/>
        <pt x="593" y="731" on="1"/>
        <pt x="610" y="720" on="1"/>
        <pt x="540" y="619" on="1"/>
        <pt x="610" y="528" on="0"/>
        <pt x="610" y="349" on="1"/>
        <pt x="610" y="168" on="0"/>
        <pt x="471" y="-12" on="0"/>
      </contour>
      <contour>
        <pt x="94" y="328" on="1"/>
        <pt x="94" y="253" on="0"/>
        <pt x="124" y="139" on="0"/>
        <pt x="152" y="98" on="1"/>
        <pt x="514" y="617" on="1"/>
        <pt x="450" y="690" on="0"/>
        <pt x="340" y="690" on="1"/>
        <pt x="225" y="690" on="0"/>
        <pt x="94" y="529" on="0"/>
        <pt x="94" y="370" on="1"/>
      </contour>
      <contour>
        <pt x="586" y="370" on="1"/>
        <pt x="586" y="445" on="0"/>
        <pt x="556" y="560" on="0"/>
        <pt x="527" y="600" on="1"/>
        <pt x="166" y="81" on="1"/>
        <pt x="230" y="8" on="0"/>
        <pt x="340" y="8" on="1"/>
        <pt x="455" y="8" on="0"/>
        <pt x="586" y="169" on="0"/>
        <pt x="586" y="328" on="1"/>
      </contour>
    </TTGlyph>
    <TTGlyph name="Otilde" xMin="70" yMin="-12" xMax="610" yMax="882">
      <component glyphName="O" x="0" y="0" flags="0x204"/>
      <component glyphName="tilde.case" x="40" y="0" flags="0x4"/>
    </TTGlyph>
    <TTGlyph name="P" xMin="108" yMin="0" xMax="550" yMax="698">
      <contour>
        <pt x="108" y="0" on="1"/>
        <pt x="108" y="698" on="1"/>
        <pt x="376" y="698" on="1"/>
        <pt x="462" y="698" on="0"/>
        <pt x="550" y="596" on="0"/>
        <pt x="550" y="510" on="1"/>
        <pt x="550" y="424" on="0"/>
        <pt x="462" y="322" on="0"/>
        <pt x="376" y="322" on="1"/>
        <pt x="130" y="322" on="1"/>
        <pt x="130" y="0" on="1"/>
      </contour>
      <contour>
        <pt x="130" y="342" on="1"/>
        <pt x="376" y="342" on="1"/>
        <pt x="415" y="342" on="0"/>
        <pt x="471" y="367" on="0"/>
        <pt x="508" y="407" on="0"/>
        <pt x="526" y="460" on="0"/>
        <pt x="526" y="489" on="1"/>
        <pt x="526" y="531" on="1"/>
        <pt x="526" y="559" on="0"/>
        <pt x="508" y="613" on="0"/>
        <pt x="471" y="653" on="0"/>
        <pt x="415" y="678" on="0"/>
        <pt x="376" y="678" on="1"/>
        <pt x="130" y="678" on="1"/>
      </contour>
    </TTGlyph>
    <TTGlyph name="Q" xMin="70" yMin="-146" xMax="610" yMax="710">
      <contour>
        <pt x="456" y="-146" on="1"/>
        <pt x="359" y="-146" on="1"/>
        <pt x="330" y="-146" on="0"/>
        <pt x="330" y="-117" on="1"/>
        <pt x="330" y="-12" on="1"/>
        <pt x="204" y="-8" on="0"/>
        <pt x="70" y="172" on="0"/>
        <pt x="70" y="349" on="1"/>
        <pt x="70" y="530" on="0"/>
        <pt x="209" y="710" on="0"/>
        <pt x="340" y="710" on="1"/>
        <pt x="471" y="710" on="0"/>
        <pt x="610" y="530" on="0"/>
        <pt x="610" y="349" on="1"/>
        <pt x="610" y="172" on="0"/>
        <pt x="477" y="-7" on="0"/>
        <pt x="352" y="-12" on="1"/>
        <pt x="352" y="-126" on="1"/>
        <pt x="456" y="-126" on="1"/>
      </contour>
      <contour>
        <pt x="340" y="8" on="1"/>
        <pt x="455" y="8" on="0"/>
        <pt x="586" y="169" on="0"/>
        <pt x="586" y="328" on="1"/>
        <pt x="586" y="370" on="1"/>
        <pt x="586" y="529" on="0"/>
        <pt x="455" y="690" on="0"/>
        <pt x="340" y="690" on="1"/>
        <pt x="225" y="690" on="0"/>
        <pt x="94" y="529" on="0"/>
        <pt x="94" y="370" on="1"/>
        <pt x="94" y="328" on="1"/>
        <pt x="94" y="169" on="0"/>
        <pt x="225" y="8" on="0"/>
      </contour>
    </TTGlyph>
    <TTGlyph name="R" xMin="108" yMin="0" xMax="566" yMax="698">
      <contour>
        <pt x="130" y="0" on="1"/>
        <pt x="108" y="0" on="1"/>
        <pt x="108" y="698" on="1"/>
        <pt x="376" y="698" on="1"/>
        <pt x="462" y="698" on="0"/>
        <pt x="550" y="596" on="0"/>
        <pt x="550" y="510" on="1"/>
        <pt x="550" y="424" on="0"/>
        <pt x="462" y="322" on="0"/>
        <pt x="374" y="322" on="1"/>
        <pt x="566" y="0" on="1"/>
        <pt x="541" y="0" on="1"/>
        <pt x="349" y="322" on="1"/>
        <pt x="130" y="322" on="1"/>
      </contour>
      <contour>
        <pt x="376" y="342" on="1"/>
        <pt x="415" y="342" on="0"/>
        <pt x="471" y="367" on="0"/>
        <pt x="508" y="407" on="0"/>
        <pt x="526" y="460" on="0"/>
        <pt x="526" y="489" on="1"/>
        <pt x="526" y="531" on="1"/>
        <pt x="526" y="559" on="0"/>
        <pt x="508" y="613" on="0"/>
        <pt x="471" y="653" on="0"/>
        <pt x="415" y="678" on="0"/>
        <pt x="376" y="678" on="1"/>
        <pt x="130" y="678" on="1"/>
        <pt x="130" y="342" on="1"/>
      </contour>
    </TTGlyph>
    <TTGlyph name="S" xMin="42" yMin="-12" xMax="489" yMax="710">
      <contour>
        <pt x="276" y="-12" on="1"/>
        <pt x="232" y="-12" on="0"/>
        <pt x="163" y="5" on="0"/>
        <pt x="106" y="35" on="0"/>
        <pt x="61" y="77" on="0"/>
        <pt x="42" y="102" on="1"/>
        <pt x="60" y="115" on="1"/>
        <pt x="78" y="91" on="0"/>
        <pt x="120" y="52" on="0"/>
        <pt x="172" y="23" on="0"/>
        <pt x="236" y="8" on="0"/>
        <pt x="276" y="8" on="1"/>
        <pt x="367" y="8" on="0"/>
        <pt x="467" y="93" on="0"/>
        <pt x="467" y="176" on="1"/>
        <pt x="467" y="220" on="0"/>
        <pt x="440" y="278" on="0"/>
        <pt x="396" y="315" on="0"/>
        <pt x="337" y="335" on="0"/>
        <pt x="306" y="341" on="1"/>
        <pt x="236" y="354" on="1"/>
        <pt x="183" y="364" on="0"/>
        <pt x="115" y="399" on="0"/>
        <pt x="74" y="447" on="0"/>
        <pt x="58" y="503" on="0"/>
        <pt x="58" y="534" on="1"/>
        <pt x="58" y="623" on="0"/>
        <pt x="174" y="710" on="0"/>
        <pt x="271" y="710" on="1"/>
        <pt x="349" y="710" on="0"/>
        <pt x="448" y="657" on="0"/>
        <pt x="477" y="615" on="1"/>
        <pt x="459" y="602" on="1"/>
        <pt x="429" y="646" on="0"/>
        <pt x="337" y="690" on="0"/>
        <pt x="269" y="690" on="1"/>
        <pt x="180" y="690" on="0"/>
        <pt x="80" y="613" on="0"/>
        <pt x="80" y="534" on="1"/>
        <pt x="80" y="493" on="0"/>
        <pt x="106" y="438" on="0"/>
        <pt x="151" y="402" on="0"/>
        <pt x="209" y="381" on="0"/>
        <pt x="242" y="375" on="1"/>
        <pt x="312" y="362" on="1"/>
        <pt x="366" y="352" on="0"/>
        <pt x="434" y="315" on="0"/>
        <pt x="474" y="266" on="0"/>
        <pt x="489" y="209" on="0"/>
        <pt x="489" y="178" on="1"/>
        <pt x="489" y="83" on="0"/>
        <pt x="374" y="-12" on="0"/>
      </contour>
    </TTGlyph>
    <TTGlyph name="Scaron" xMin="42" yMin="-12" xMax="489" yMax="927">
      <component glyphName="S" x="0" y="0" flags="0x204"/>
      <component glyphName="caron.case" x="-31" y="0" flags="0x4"/>
    </TTGlyph>
    <TTGlyph name="T" xMin="17" yMin="0" xMax="543" yMax="698">
      <contour>
        <pt x="291" y="678" on="1"/>
        <pt x="291" y="0" on="1"/>
        <pt x="269" y="0" on="1"/>
        <pt x="269" y="678" on="1"/>
        <pt x="17" y="678" on="1"/>
        <pt x="17" y="698" on="1"/>
        <pt x="543" y="698" on="1"/>
        <pt x="543" y="678" on="1"/>
      </contour>
    </TTGlyph>
    <TTGlyph name="Thorn" xMin="108" yMin="0" xMax="550" yMax="698">
      <contour>
        <pt x="108" y="0" on="1"/>
        <pt x="108" y="698" on="1"/>
        <pt x="130" y="698" on="1"/>
        <pt x="130" y="542" on="1"/>
        <pt x="376" y="542" on="1"/>
        <pt x="462" y="542" on="0"/>
        <pt x="550" y="440" on="0"/>
        <pt x="550" y="354" on="1"/>
        <pt x="550" y="268" on="0"/>
        <pt x="462" y="166" on="0"/>
        <pt x="376" y="166" on="1"/>
        <pt x="130" y="166" on="1"/>
        <pt x="130" y="0" on="1"/>
      </contour>
      <contour>
        <pt x="130" y="186" on="1"/>
        <pt x="376" y="186" on="1"/>
        <pt x="415" y="186" on="0"/>
        <pt x="471" y="211" on="0"/>
        <pt x="508" y="251" on="0"/>
        <pt x="526" y="304" on="0"/>
        <pt x="526" y="333" on="1"/>
        <pt x="526" y="375" on="1"/>
        <pt x="526" y="403" on="0"/>
        <pt x="508" y="457" on="0"/>
        <pt x="471" y="497" on="0"/>
        <pt x="415" y="522" on="0"/>
        <pt x="376" y="522" on="1"/>
        <pt x="130" y="522" on="1"/>
      </contour>
    </TTGlyph>
    <TTGlyph name="U" xMin="100" yMin="-12" xMax="552" yMax="698">
      <contour>
        <pt x="122" y="698" on="1"/>
        <pt x="122" y="268" on="1"/>
        <pt x="122" y="197" on="0"/>
        <pt x="142" y="98" on="0"/>
        <pt x="189" y="36" on="0"/>
        <pt x="267" y="8" on="0"/>
        <pt x="326" y="8" on="1"/>
        <pt x="384" y="8" on="0"/>
        <pt x="463" y="36" on="0"/>
        <pt x="510" y="98" on="0"/>
        <pt x="530" y="197" on="0"/>
        <pt x="530" y="268" on="1"/>
        <pt x="530" y="698" on="1"/>
        <pt x="552" y="698" on="1"/>
        <pt x="552" y="270" on="1"/>
        <pt x="552" y="192" on="0"/>
        <pt x="529" y="85" on="0"/>
        <pt x="475" y="18" on="0"/>
        <pt x="389" y="-12" on="0"/>
        <pt x="326" y="-12" on="1"/>
        <pt x="263" y="-12" on="0"/>
        <pt x="177" y="18" on="0"/>
        <pt x="123" y="85" on="0"/>
        <pt x="100" y="192" on="0"/>
        <pt x="100" y="270" on="1"/>
        <pt x="100" y="698" on="1"/>
      </contour>
    </TTGlyph>
    <TTGlyph name="Uacute" xMin="100" yMin="-12" xMax="552" yMax="931">
      <component glyphName="U" x="0" y="0" flags="0x204"/>
      <component glyphName="acute.case" x="25" y="0" flags="0x4"/>
    </TTGlyph>
    <TTGlyph name="Ucircumflex" xMin="100" yMin="-12" xMax="552" yMax="923">
      <component glyphName="U" x="0" y="0" flags="0x204"/>
      <component glyphName="circumflex.case" x="25" y="0" flags="0x4"/>
    </TTGlyph>
    <TTGlyph name="Udieresis" xMin="100" yMin="-12" xMax="552" yMax="868">
      <component glyphName="U" x="0" y="0" flags="0x204"/>
      <component glyphName="dieresis.case" x="25" y="0" flags="0x4"/>
    </TTGlyph>
    <TTGlyph name="Ugrave" xMin="100" yMin="-12" xMax="552" yMax="931">
      <component glyphName="U" x="0" y="0" flags="0x204"/>
      <component glyphName="grave.case" x="25" y="0" flags="0x4"/>
    </TTGlyph>
    <TTGlyph name="V" xMin="30" yMin="0" xMax="540" yMax="698">
      <contour>
        <pt x="270" y="0" on="1"/>
        <pt x="30" y="698" on="1"/>
        <pt x="54" y="698" on="1"/>
        <pt x="284" y="25" on="1"/>
        <pt x="287" y="25" on="1"/>
        <pt x="517" y="698" on="1"/>
        <pt x="540" y="698" on="1"/>
        <pt x="300" y="0" on="1"/>
      </contour>
    </TTGlyph>
    <TTGlyph name="W" xMin="30" yMin="0" xMax="842" yMax="698">
      <contour>
        <pt x="216" y="0" on="1"/>
        <pt x="30" y="698" on="1"/>
        <pt x="54" y="698" on="1"/>
        <pt x="230" y="31" on="1"/>
        <pt x="233" y="31" on="1"/>
        <pt x="420" y="698" on="1"/>
        <pt x="452" y="698" on="1"/>
        <pt x="639" y="31" on="1"/>
        <pt x="642" y="31" on="1"/>
        <pt x="819" y="698" on="1"/>
        <pt x="842" y="698" on="1"/>
        <pt x="656" y="0" on="1"/>
        <pt x="626" y="0" on="1"/>
        <pt x="437" y="674" on="1"/>
        <pt x="434" y="674" on="1"/>
        <pt x="246" y="0" on="1"/>
      </contour>
    </TTGlyph>
    <TTGlyph name="X" xMin="28" yMin="0" xMax="530" yMax="698">
      <contour>
        <pt x="530" y="0" on="1"/>
        <pt x="504" y="0" on="1"/>
        <pt x="281" y="335" on="1"/>
        <pt x="279" y="335" on="1"/>
        <pt x="54" y="0" on="1"/>
        <pt x="28" y="0" on="1"/>
        <pt x="266" y="354" on="1"/>
        <pt x="37" y="698" on="1"/>
        <pt x="63" y="698" on="1"/>
        <pt x="278" y="376" on="1"/>
        <pt x="280" y="376" on="1"/>
        <pt x="495" y="698" on="1"/>
        <pt x="521" y="698" on="1"/>
        <pt x="293" y="357" on="1"/>
      </contour>
    </TTGlyph>
    <TTGlyph name="Y" xMin="21" yMin="0" xMax="525" yMax="698">
      <contour>
        <pt x="262" y="0" on="1"/>
        <pt x="262" y="294" on="1"/>
        <pt x="21" y="698" on="1"/>
        <pt x="46" y="698" on="1"/>
        <pt x="272" y="320" on="1"/>
        <pt x="275" y="320" on="1"/>
        <pt x="501" y="698" on="1"/>
        <pt x="525" y="698" on="1"/>
        <pt x="284" y="294" on="1"/>
        <pt x="284" y="0" on="1"/>
      </contour>
    </TTGlyph>
    <TTGlyph name="Yacute" xMin="21" yMin="0" xMax="525" yMax="931">
      <component glyphName="Y" x="0" y="0" flags="0x204"/>
      <component glyphName="acute.case" x="-27" y="0" flags="0x4"/>
    </TTGlyph>
    <TTGlyph name="Ydieresis" xMin="21" yMin="0" xMax="525" yMax="868">
      <component glyphName="Y" x="0" y="0" flags="0x204"/>
      <component glyphName="dieresis.case" x="-27" y="0" flags="0x4"/>
    </TTGlyph>
    <TTGlyph name="Z" xMin="39" yMin="0" xMax="527" yMax="698">
      <contour>
        <pt x="527" y="0" on="1"/>
        <pt x="39" y="0" on="1"/>
        <pt x="39" y="22" on="1"/>
        <pt x="482" y="678" on="1"/>
        <pt x="62" y="678" on="1"/>
        <pt x="62" y="698" on="1"/>
        <pt x="506" y="698" on="1"/>
        <pt x="506" y="676" on="1"/>
        <pt x="63" y="20" on="1"/>
        <pt x="527" y="20" on="1"/>
      </contour>
    </TTGlyph>
    <TTGlyph name="Zcaron" xMin="39" yMin="0" xMax="527" yMax="927">
      <component glyphName="Z" x="0" y="0" flags="0x204"/>
      <component glyphName="caron.case" x="-17" y="0" flags="0x4"/>
    </TTGlyph>
    <TTGlyph name="a" xMin="61" yMin="-12" xMax="499" yMax="518">
      <contour>
        <pt x="422" y="0" on="1"/>
        <pt x="393" y="0" on="0"/>
        <pt x="393" y="29" on="1"/>
        <pt x="393" y="77" on="1"/>
        <pt x="390" y="77" on="1"/>
        <pt x="371" y="41" on="0"/>
        <pt x="294" y="-12" on="0"/>
        <pt x="224" y="-12" on="1"/>
        <pt x="146" y="-12" on="0"/>
        <pt x="61" y="61" on="0"/>
        <pt x="61" y="130" on="1"/>
        <pt x="61" y="161" on="0"/>
        <pt x="80" y="215" on="0"/>
        <pt x="124" y="253" on="0"/>
        <pt x="197" y="275" on="0"/>
        <pt x="251" y="275" on="1"/>
        <pt x="393" y="275" on="1"/>
        <pt x="393" y="349" on="1"/>
        <pt x="393" y="427" on="0"/>
        <pt x="320" y="499" on="0"/>
        <pt x="249" y="499" on="1"/>
        <pt x="192" y="499" on="0"/>
        <pt x="117" y="454" on="0"/>
        <pt x="96" y="404" on="1"/>
        <pt x="78" y="412" on="1"/>
        <pt x="99" y="461" on="0"/>
        <pt x="178" y="518" on="0"/>
        <pt x="249" y="518" on="1"/>
        <pt x="332" y="518" on="0"/>
        <pt x="414" y="433" on="0"/>
        <pt x="414" y="352" on="1"/>
        <pt x="414" y="19" on="1"/>
        <pt x="499" y="19" on="1"/>
        <pt x="499" y="0" on="1"/>
      </contour>
      <contour>
        <pt x="224" y="7" on="1"/>
        <pt x="258" y="7" on="0"/>
        <pt x="319" y="25" on="0"/>
        <pt x="365" y="60" on="0"/>
        <pt x="393" y="113" on="0"/>
        <pt x="393" y="148" on="1"/>
        <pt x="393" y="257" on="1"/>
        <pt x="252" y="257" on="1"/>
        <pt x="163" y="257" on="0"/>
        <pt x="84" y="195" on="0"/>
        <pt x="84" y="145" on="1"/>
        <pt x="84" y="115" on="1"/>
        <pt x="84" y="62" on="0"/>
        <pt x="162" y="7" on="0"/>
      </contour>
    </TTGlyph>
    <TTGlyph name="a.alt01" xMin="60" yMin="-12" xMax="460" yMax="518">
      <contour>
        <pt x="439" y="78" on="1"/>
        <pt x="436" y="78" on="1"/>
        <pt x="428" y="61" on="0"/>
        <pt x="400" y="29" on="0"/>
        <pt x="359" y="4" on="0"/>
        <pt x="305" y="-12" on="0"/>
        <pt x="272" y="-12" on="1"/>
        <pt x="172" y="-12" on="0"/>
        <pt x="60" y="120" on="0"/>
        <pt x="60" y="253" on="1"/>
        <pt x="60" y="386" on="0"/>
        <pt x="172" y="518" on="0"/>
        <pt x="272" y="518" on="1"/>
        <pt x="305" y="518" on="0"/>
        <pt x="359" y="502" on="0"/>
        <pt x="400" y="477" on="0"/>
        <pt x="428" y="444" on="0"/>
        <pt x="436" y="428" on="1"/>
        <pt x="439" y="428" on="1"/>
        <pt x="439" y="506" on="1"/>
        <pt x="460" y="506" on="1"/>
        <pt x="460" y="0" on="1"/>
        <pt x="439" y="0" on="1"/>
      </contour>
      <contour>
        <pt x="272" y="7" on="1"/>
        <pt x="305" y="7" on="0"/>
        <pt x="365" y="27" on="0"/>
        <pt x="412" y="63" on="0"/>
        <pt x="439" y="113" on="0"/>
        <pt x="439" y="143" on="1"/>
        <pt x="439" y="363" on="1"/>
        <pt x="439" y="393" on="0"/>
        <pt x="412" y="443" on="0"/>
        <pt x="365" y="479" on="0"/>
        <pt x="305" y="499" on="0"/>
        <pt x="272" y="499" on="1"/>
        <pt x="181" y="499" on="0"/>
        <pt x="83" y="380" on="0"/>
        <pt x="83" y="277" on="1"/>
        <pt x="83" y="229" on="1"/>
        <pt x="83" y="126" on="0"/>
        <pt x="181" y="7" on="0"/>
      </contour>
    </TTGlyph>
    <TTGlyph name="aacute" xMin="61" yMin="-12" xMax="499" yMax="751">
      <component glyphName="a" x="0" y="0" flags="0x204"/>
      <component glyphName="acute" x="-50" y="0" flags="0x4"/>
    </TTGlyph>
    <TTGlyph name="aacute.alt01" xMin="60" yMin="-12" xMax="460" yMax="751">
      <component glyphName="a.alt01" x="0" y="0" flags="0x204"/>
      <component glyphName="acute" x="-27" y="0" flags="0x4"/>
    </TTGlyph>
    <TTGlyph name="acircumflex" xMin="61" yMin="-12" xMax="499" yMax="743">
      <component glyphName="a" x="0" y="0" flags="0x204"/>
      <component glyphName="circumflex" x="-50" y="0" flags="0x4"/>
    </TTGlyph>
    <TTGlyph name="acircumflex.alt01" xMin="60" yMin="-12" xMax="460" yMax="743">
      <component glyphName="a.alt01" x="0" y="0" flags="0x204"/>
      <component glyphName="circumflex" x="-27" y="0" flags="0x4"/>
    </TTGlyph>
    <TTGlyph name="acute" xMin="267" yMin="587" xMax="397" yMax="751">
      <contour>
        <pt x="282" y="587" on="1"/>
        <pt x="267" y="597" on="1"/>
        <pt x="378" y="751" on="1"/>
        <pt x="397" y="739" on="1"/>
      </contour>
    </TTGlyph>
    <TTGlyph name="acute.case" xMin="267" yMin="767" xMax="397" yMax="931">
      <contour>
        <pt x="282" y="767" on="1"/>
        <pt x="267" y="777" on="1"/>
        <pt x="378" y="931" on="1"/>
        <pt x="397" y="919" on="1"/>
      </contour>
    </TTGlyph>
    <TTGlyph name="adieresis" xMin="61" yMin="-12" xMax="499" yMax="691">
      <component glyphName="a" x="0" y="0" flags="0x204"/>
      <component glyphName="dieresis" x="-50" y="0" flags="0x4"/>
    </TTGlyph>
    <TTGlyph name="adieresis.alt01" xMin="60" yMin="-12" xMax="460" yMax="691">
      <component glyphName="a.alt01" x="0" y="0" flags="0x204"/>
      <component glyphName="dieresis" x="-27" y="0" flags="0x4"/>
    </TTGlyph>
    <TTGlyph name="ae" xMin="56" yMin="-12" xMax="801" yMax="518">
      <contour>
        <pt x="247" y="257" on="1"/>
        <pt x="158" y="257" on="0"/>
        <pt x="79" y="195" on="0"/>
        <pt x="79" y="145" on="1"/>
        <pt x="79" y="115" on="1"/>
        <pt x="79" y="62" on="0"/>
        <pt x="157" y="7" on="0"/>
        <pt x="219" y="7" on="1"/>
        <pt x="253" y="7" on="0"/>
        <pt x="314" y="25" on="0"/>
        <pt x="360" y="60" on="0"/>
        <pt x="388" y="113" on="0"/>
        <pt x="388" y="148" on="1"/>
        <pt x="388" y="257" on="1"/>
      </contour>
      <contour>
        <pt x="778" y="275" on="1"/>
        <pt x="778" y="279" on="1"/>
        <pt x="778" y="329" on="0"/>
        <pt x="752" y="410" on="0"/>
        <pt x="704" y="468" on="0"/>
        <pt x="637" y="499" on="0"/>
        <pt x="596" y="499" on="1"/>
        <pt x="507" y="499" on="0"/>
        <pt x="411" y="380" on="0"/>
        <pt x="411" y="277" on="1"/>
        <pt x="411" y="275" on="1"/>
      </contour>
      <contour>
        <pt x="600" y="7" on="1"/>
        <pt x="728" y="7" on="0"/>
        <pt x="775" y="131" on="1"/>
        <pt x="793" y="124" on="1"/>
        <pt x="770" y="61" on="0"/>
        <pt x="673" y="-12" on="0"/>
        <pt x="600" y="-12" on="1"/>
        <pt x="530" y="-12" on="0"/>
        <pt x="431" y="55" on="0"/>
        <pt x="408" y="121" on="1"/>
        <pt x="405" y="121" on="1"/>
        <pt x="392" y="54" on="0"/>
        <pt x="289" y="-12" on="0"/>
        <pt x="219" y="-12" on="1"/>
        <pt x="141" y="-12" on="0"/>
        <pt x="56" y="61" on="0"/>
        <pt x="56" y="130" on="1"/>
        <pt x="56" y="161" on="0"/>
        <pt x="75" y="215" on="0"/>
        <pt x="119" y="253" on="0"/>
        <pt x="192" y="275" on="0"/>
        <pt x="246" y="275" on="1"/>
        <pt x="388" y="275" on="1"/>
        <pt x="388" y="349" on="1"/>
        <pt x="388" y="427" on="0"/>
        <pt x="315" y="498" on="0"/>
        <pt x="244" y="499" on="1"/>
        <pt x="187" y="500" on="0"/>
        <pt x="112" y="454" on="0"/>
        <pt x="91" y="404" on="1"/>
        <pt x="73" y="412" on="1"/>
        <pt x="83" y="436" on="0"/>
        <pt x="113" y="476" on="0"/>
        <pt x="154" y="504" on="0"/>
        <pt x="209" y="518" on="0"/>
        <pt x="244" y="518" on="1"/>
        <pt x="318" y="517" on="0"/>
        <pt x="399" y="448" on="0"/>
        <pt x="405" y="382" on="1"/>
        <pt x="408" y="382" on="1"/>
        <pt x="431" y="448" on="0"/>
        <pt x="527" y="518" on="0"/>
        <pt x="596" y="518" on="1"/>
        <pt x="642" y="518" on="0"/>
        <pt x="717" y="483" on="0"/>
        <pt x="771" y="417" on="0"/>
        <pt x="801" y="324" on="0"/>
        <pt x="801" y="266" on="1"/>
        <pt x="801" y="256" on="1"/>
        <pt x="411" y="256" on="1"/>
        <pt x="411" y="229" on="1"/>
        <pt x="411" y="126" on="0"/>
        <pt x="509" y="7" on="0"/>
      </contour>
    </TTGlyph>
    <TTGlyph name="agrave" xMin="61" yMin="-12" xMax="499" yMax="751">
      <component glyphName="a" x="0" y="0" flags="0x204"/>
      <component glyphName="grave" x="-50" y="0" flags="0x4"/>
    </TTGlyph>
    <TTGlyph name="agrave.alt01" xMin="60" yMin="-12" xMax="460" yMax="751">
      <component glyphName="a.alt01" x="0" y="0" flags="0x204"/>
      <component glyphName="grave" x="-27" y="0" flags="0x4"/>
    </TTGlyph>
    <TTGlyph name="ampersand" xMin="70" yMin="-12" xMax="640" yMax="710">
      <contour>
        <pt x="497" y="116" on="1"/>
        <pt x="465" y="58" on="0"/>
        <pt x="350" y="-12" on="0"/>
        <pt x="271" y="-12" on="1"/>
        <pt x="225" y="-12" on="0"/>
        <pt x="151" y="14" on="0"/>
        <pt x="98" y="60" on="0"/>
        <pt x="70" y="126" on="0"/>
        <pt x="70" y="166" on="1"/>
        <pt x="70" y="208" on="0"/>
        <pt x="97" y="270" on="0"/>
        <pt x="143" y="318" on="0"/>
        <pt x="204" y="354" on="0"/>
        <pt x="239" y="371" on="1"/>
        <pt x="215" y="397" on="0"/>
        <pt x="179" y="442" on="0"/>
        <pt x="153" y="485" on="0"/>
        <pt x="140" y="529" on="0"/>
        <pt x="140" y="554" on="1"/>
        <pt x="140" y="624" on="0"/>
        <pt x="231" y="710" on="0"/>
        <pt x="309" y="710" on="1"/>
        <pt x="346" y="710" on="0"/>
        <pt x="405" y="688" on="0"/>
        <pt x="447" y="650" on="0"/>
        <pt x="469" y="599" on="0"/>
        <pt x="469" y="570" on="1"/>
        <pt x="469" y="534" on="0"/>
        <pt x="441" y="477" on="0"/>
        <pt x="390" y="429" on="0"/>
        <pt x="317" y="388" on="0"/>
        <pt x="273" y="367" on="1"/>
        <pt x="493" y="149" on="1"/>
        <pt x="510" y="190" on="0"/>
        <pt x="525" y="294" on="0"/>
        <pt x="525" y="351" on="1"/>
        <pt x="634" y="351" on="1"/>
        <pt x="634" y="331" on="1"/>
        <pt x="544" y="331" on="1"/>
        <pt x="542" y="275" on="0"/>
        <pt x="526" y="177" on="0"/>
        <pt x="507" y="135" on="1"/>
        <pt x="640" y="0" on="1"/>
        <pt x="612" y="0" on="1"/>
      </contour>
      <contour>
        <pt x="309" y="691" on="1"/>
        <pt x="274" y="691" on="0"/>
        <pt x="220" y="671" on="0"/>
        <pt x="183" y="637" on="0"/>
        <pt x="163" y="591" on="0"/>
        <pt x="163" y="564" on="1"/>
        <pt x="163" y="546" on="1"/>
        <pt x="163" y="503" on="0"/>
        <pt x="219" y="423" on="0"/>
        <pt x="259" y="380" on="1"/>
        <pt x="300" y="399" on="0"/>
        <pt x="369" y="438" on="0"/>
        <pt x="418" y="482" on="0"/>
        <pt x="446" y="531" on="0"/>
        <pt x="446" y="560" on="1"/>
        <pt x="446" y="574" on="1"/>
        <pt x="446" y="602" on="0"/>
        <pt x="424" y="645" on="0"/>
        <pt x="386" y="675" on="0"/>
        <pt x="336" y="691" on="0"/>
      </contour>
      <contour>
        <pt x="93" y="156" on="1"/>
        <pt x="93" y="122" on="0"/>
        <pt x="120" y="68" on="0"/>
        <pt x="167" y="29" on="0"/>
        <pt x="232" y="8" on="0"/>
        <pt x="271" y="8" on="1"/>
        <pt x="347" y="8" on="0"/>
        <pt x="452" y="71" on="0"/>
        <pt x="483" y="129" on="1"/>
        <pt x="253" y="358" on="1"/>
        <pt x="220" y="342" on="0"/>
        <pt x="162" y="308" on="0"/>
        <pt x="119" y="266" on="0"/>
        <pt x="93" y="212" on="0"/>
        <pt x="93" y="176" on="1"/>
      </contour>
    </TTGlyph>
    <TTGlyph name="approxequal" xMin="65" yMin="174" xMax="535" yMax="435">
      <component glyphName="asciitilde" x="0" y="83" flags="0x204"/>
      <component glyphName="asciitilde" x="0" y="-82" flags="0x4"/>
    </TTGlyph>
    <TTGlyph name="aring" xMin="61" yMin="-12" xMax="499" yMax="771">
      <component glyphName="a" x="0" y="0" flags="0x204"/>
      <component glyphName="ring" x="-50" y="0" flags="0x4"/>
    </TTGlyph>
    <TTGlyph name="aring.alt01" xMin="60" yMin="-12" xMax="460" yMax="771">
      <component glyphName="a.alt01" x="0" y="0" flags="0x204"/>
      <component glyphName="ring" x="-27" y="0" flags="0x4"/>
    </TTGlyph>
    <TTGlyph name="asciicircum" xMin="68" yMin="322" xMax="532" yMax="698">
      <contour>
        <pt x="514" y="322" on="1"/>
        <pt x="301" y="676" on="1"/>
        <pt x="299" y="676" on="1"/>
        <pt x="86" y="322" on="1"/>
        <pt x="68" y="332" on="1"/>
        <pt x="289" y="698" on="1"/>
        <pt x="311" y="698" on="1"/>
        <pt x="532" y="332" on="1"/>
      </contour>
    </TTGlyph>
    <TTGlyph name="asciitilde" xMin="65" yMin="256" xMax="535" yMax="352">
      <contour>
        <pt x="424" y="256" on="1"/>
        <pt x="410" y="256" on="0"/>
        <pt x="383" y="260" on="0"/>
        <pt x="353" y="270" on="0"/>
        <pt x="317" y="284" on="0"/>
        <pt x="294" y="295" on="1"/>
        <pt x="272" y="305" on="0"/>
        <pt x="240" y="319" on="0"/>
        <pt x="213" y="328" on="0"/>
        <pt x="188" y="332" on="0"/>
        <pt x="175" y="332" on="1"/>
        <pt x="146" y="332" on="0"/>
        <pt x="102" y="313" on="0"/>
        <pt x="78" y="290" on="1"/>
        <pt x="65" y="304" on="1"/>
        <pt x="91" y="329" on="0"/>
        <pt x="143" y="352" on="0"/>
        <pt x="176" y="352" on="1"/>
        <pt x="190" y="352" on="0"/>
        <pt x="217" y="348" on="0"/>
        <pt x="247" y="338" on="0"/>
        <pt x="283" y="323" on="0"/>
        <pt x="306" y="313" on="1"/>
        <pt x="328" y="303" on="0"/>
        <pt x="360" y="289" on="0"/>
        <pt x="387" y="280" on="0"/>
        <pt x="411" y="276" on="0"/>
        <pt x="425" y="276" on="1"/>
        <pt x="454" y="276" on="0"/>
        <pt x="498" y="295" on="0"/>
        <pt x="522" y="318" on="1"/>
        <pt x="535" y="304" on="1"/>
        <pt x="509" y="279" on="0"/>
        <pt x="457" y="256" on="0"/>
      </contour>
    </TTGlyph>
    <TTGlyph name="asterisk" xMin="17" yMin="436" xMax="345" yMax="747">
      <contour>
        <pt x="88" y="436" on="1"/>
        <pt x="73" y="447" on="1"/>
        <pt x="168" y="575" on="1"/>
        <pt x="17" y="621" on="1"/>
        <pt x="23" y="640" on="1"/>
        <pt x="173" y="590" on="1"/>
        <pt x="171" y="747" on="1"/>
        <pt x="191" y="747" on="1"/>
        <pt x="189" y="590" on="1"/>
        <pt x="339" y="640" on="1"/>
        <pt x="345" y="621" on="1"/>
        <pt x="194" y="575" on="1"/>
        <pt x="289" y="447" on="1"/>
        <pt x="274" y="436" on="1"/>
        <pt x="181" y="565" on="1"/>
      </contour>
    </TTGlyph>
    <TTGlyph name="at" xMin="70" yMin="-121" xMax="810" yMax="710">
      <contour>
        <pt x="676" y="-121" on="1"/>
        <pt x="440" y="-121" on="1"/>
        <pt x="363" y="-121" on="0"/>
        <pt x="228" y="-65" on="0"/>
        <pt x="128" y="42" on="0"/>
        <pt x="70" y="199" on="0"/>
        <pt x="70" y="300" on="1"/>
        <pt x="70" y="395" on="0"/>
        <pt x="127" y="547" on="0"/>
        <pt x="227" y="653" on="0"/>
        <pt x="363" y="710" on="0"/>
        <pt x="442" y="710" on="1"/>
        <pt x="517" y="710" on="0"/>
        <pt x="651" y="660" on="0"/>
        <pt x="752" y="564" on="0"/>
        <pt x="810" y="422" on="0"/>
        <pt x="810" y="330" on="1"/>
        <pt x="810" y="276" on="0"/>
        <pt x="794" y="180" on="0"/>
        <pt x="760" y="110" on="0"/>
        <pt x="706" y="69" on="0"/>
        <pt x="668" y="69" on="1"/>
        <pt x="629" y="69" on="0"/>
        <pt x="579" y="113" on="0"/>
        <pt x="575" y="148" on="1"/>
        <pt x="572" y="148" on="1"/>
        <pt x="565" y="134" on="0"/>
        <pt x="541" y="105" on="0"/>
        <pt x="507" y="83" on="0"/>
        <pt x="463" y="69" on="0"/>
        <pt x="436" y="69" on="1"/>
        <pt x="355" y="69" on="0"/>
        <pt x="264" y="178" on="0"/>
        <pt x="264" y="287" on="1"/>
        <pt x="264" y="398" on="0"/>
        <pt x="355" y="508" on="0"/>
        <pt x="436" y="508" on="1"/>
        <pt x="491" y="508" on="0"/>
        <pt x="557" y="461" on="0"/>
        <pt x="571" y="433" on="1"/>
        <pt x="574" y="433" on="1"/>
        <pt x="574" y="496" on="1"/>
        <pt x="594" y="496" on="1"/>
        <pt x="594" y="163" on="1"/>
        <pt x="594" y="130" on="0"/>
        <pt x="633" y="87" on="0"/>
        <pt x="668" y="87" on="1"/>
        <pt x="722" y="87" on="0"/>
        <pt x="788" y="201" on="0"/>
        <pt x="788" y="305" on="1"/>
        <pt x="788" y="352" on="1"/>
        <pt x="788" y="429" on="0"/>
        <pt x="735" y="554" on="0"/>
        <pt x="642" y="643" on="0"/>
        <pt x="515" y="692" on="0"/>
        <pt x="442" y="692" on="1"/>
        <pt x="367" y="692" on="0"/>
        <pt x="239" y="638" on="0"/>
        <pt x="145" y="540" on="0"/>
        <pt x="92" y="406" on="0"/>
        <pt x="92" y="326" on="1"/>
        <pt x="92" y="274" on="1"/>
        <pt x="92" y="190" on="0"/>
        <pt x="144" y="52" on="0"/>
        <pt x="237" y="-48" on="0"/>
        <pt x="365" y="-103" on="0"/>
        <pt x="440" y="-103" on="1"/>
        <pt x="676" y="-103" on="1"/>
      </contour>
      <contour>
        <pt x="436" y="87" on="1"/>
        <pt x="463" y="87" on="0"/>
        <pt x="513" y="105" on="0"/>
        <pt x="551" y="138" on="0"/>
        <pt x="574" y="184" on="0"/>
        <pt x="574" y="212" on="1"/>
        <pt x="574" y="362" on="1"/>
        <pt x="574" y="391" on="0"/>
        <pt x="551" y="438" on="0"/>
        <pt x="513" y="472" on="0"/>
        <pt x="463" y="490" on="0"/>
        <pt x="436" y="490" on="1"/>
        <pt x="363" y="490" on="0"/>
        <pt x="286" y="392" on="0"/>
        <pt x="286" y="306" on="1"/>
        <pt x="286" y="268" on="1"/>
        <pt x="286" y="184" on="0"/>
        <pt x="363" y="87" on="0"/>
      </contour>
    </TTGlyph>
    <TTGlyph name="atilde" xMin="61" yMin="-12" xMax="499" yMax="702">
      <component glyphName="a" x="0" y="0" flags="0x204"/>
      <component glyphName="tilde" x="-50" y="0" flags="0x4"/>
    </TTGlyph>
    <TTGlyph name="atilde.alt01" xMin="60" yMin="-12" xMax="460" yMax="702">
      <component glyphName="a.alt01" x="0" y="0" flags="0x204"/>
      <component glyphName="tilde" x="-27" y="0" flags="0x4"/>
    </TTGlyph>
    <TTGlyph name="b" xMin="105" yMin="-12" xMax="505" yMax="740">
      <contour>
        <pt x="105" y="740" on="1"/>
        <pt x="126" y="740" on="1"/>
        <pt x="126" y="428" on="1"/>
        <pt x="129" y="428" on="1"/>
        <pt x="137" y="444" on="0"/>
        <pt x="165" y="477" on="0"/>
        <pt x="206" y="502" on="0"/>
        <pt x="260" y="518" on="0"/>
        <pt x="293" y="518" on="1"/>
        <pt x="393" y="518" on="0"/>
        <pt x="505" y="386" on="0"/>
        <pt x="505" y="253" on="1"/>
        <pt x="505" y="120" on="0"/>
        <pt x="393" y="-12" on="0"/>
        <pt x="293" y="-12" on="1"/>
        <pt x="260" y="-12" on="0"/>
        <pt x="206" y="4" on="0"/>
        <pt x="165" y="29" on="0"/>
        <pt x="137" y="61" on="0"/>
        <pt x="129" y="78" on="1"/>
        <pt x="126" y="78" on="1"/>
        <pt x="126" y="0" on="1"/>
        <pt x="105" y="0" on="1"/>
      </contour>
      <contour>
        <pt x="293" y="7" on="1"/>
        <pt x="384" y="7" on="0"/>
        <pt x="482" y="126" on="0"/>
        <pt x="482" y="229" on="1"/>
        <pt x="482" y="277" on="1"/>
        <pt x="482" y="380" on="0"/>
        <pt x="384" y="499" on="0"/>
        <pt x="293" y="499" on="1"/>
        <pt x="260" y="499" on="0"/>
        <pt x="200" y="479" on="0"/>
        <pt x="153" y="443" on="0"/>
        <pt x="126" y="393" on="0"/>
        <pt x="126" y="363" on="1"/>
        <pt x="126" y="143" on="1"/>
        <pt x="126" y="113" on="0"/>
        <pt x="153" y="63" on="0"/>
        <pt x="200" y="27" on="0"/>
        <pt x="260" y="7" on="0"/>
      </contour>
    </TTGlyph>
    <TTGlyph name="backslash" xMin="41" yMin="-151" xMax="294" yMax="740">
      <contour>
        <pt x="274" y="-151" on="1"/>
        <pt x="41" y="740" on="1"/>
        <pt x="61" y="740" on="1"/>
        <pt x="294" y="-151" on="1"/>
      </contour>
    </TTGlyph>
    <TTGlyph name="bar" xMin="108" yMin="-138" xMax="128" yMax="760">
      <contour>
        <pt x="108" y="-138" on="1"/>
        <pt x="108" y="760" on="1"/>
        <pt x="128" y="760" on="1"/>
        <pt x="128" y="-138" on="1"/>
      </contour>
    </TTGlyph>
    <TTGlyph name="braceleft" xMin="25" yMin="-138" xMax="247" yMax="760">
      <contour>
        <pt x="147" y="-138" on="1"/>
        <pt x="122" y="-138" on="0"/>
        <pt x="122" y="-112" on="1"/>
        <pt x="122" y="201" on="1"/>
        <pt x="122" y="246" on="0"/>
        <pt x="70" y="287" on="0"/>
        <pt x="25" y="287" on="1"/>
        <pt x="25" y="335" on="1"/>
        <pt x="70" y="335" on="0"/>
        <pt x="122" y="376" on="0"/>
        <pt x="122" y="421" on="1"/>
        <pt x="122" y="734" on="1"/>
        <pt x="122" y="760" on="0"/>
        <pt x="147" y="760" on="1"/>
        <pt x="247" y="760" on="1"/>
        <pt x="247" y="742" on="1"/>
        <pt x="142" y="742" on="1"/>
        <pt x="142" y="421" on="1"/>
        <pt x="142" y="374" on="0"/>
        <pt x="88" y="319" on="0"/>
        <pt x="43" y="319" on="1"/>
        <pt x="43" y="303" on="1"/>
        <pt x="88" y="303" on="0"/>
        <pt x="142" y="248" on="0"/>
        <pt x="142" y="201" on="1"/>
        <pt x="142" y="-120" on="1"/>
        <pt x="247" y="-120" on="1"/>
        <pt x="247" y="-138" on="1"/>
      </contour>
    </TTGlyph>
    <TTGlyph name="braceright" xMin="68" yMin="-138" xMax="290" yMax="760">
      <contour>
        <pt x="168" y="760" on="1"/>
        <pt x="193" y="760" on="0"/>
        <pt x="193" y="734" on="1"/>
        <pt x="193" y="421" on="1"/>
        <pt x="193" y="376" on="0"/>
        <pt x="245" y="335" on="0"/>
        <pt x="290" y="335" on="1"/>
        <pt x="290" y="287" on="1"/>
        <pt x="245" y="287" on="0"/>
        <pt x="193" y="246" on="0"/>
        <pt x="193" y="201" on="1"/>
        <pt x="193" y="-112" on="1"/>
        <pt x="193" y="-138" on="0"/>
        <pt x="168" y="-138" on="1"/>
        <pt x="68" y="-138" on="1"/>
        <pt x="68" y="-120" on="1"/>
        <pt x="173" y="-120" on="1"/>
        <pt x="173" y="201" on="1"/>
        <pt x="173" y="248" on="0"/>
        <pt x="227" y="303" on="0"/>
        <pt x="272" y="303" on="1"/>
        <pt x="272" y="319" on="1"/>
        <pt x="227" y="319" on="0"/>
        <pt x="173" y="374" on="0"/>
        <pt x="173" y="421" on="1"/>
        <pt x="173" y="742" on="1"/>
        <pt x="68" y="742" on="1"/>
        <pt x="68" y="760" on="1"/>
      </contour>
    </TTGlyph>
    <TTGlyph name="bracketleft" xMin="108" yMin="-138" xMax="232" yMax="760">
      <contour>
        <pt x="108" y="-138" on="1"/>
        <pt x="108" y="760" on="1"/>
        <pt x="232" y="760" on="1"/>
        <pt x="232" y="742" on="1"/>
        <pt x="128" y="742" on="1"/>
        <pt x="128" y="-120" on="1"/>
        <pt x="232" y="-120" on="1"/>
        <pt x="232" y="-138" on="1"/>
      </contour>
    </TTGlyph>
    <TTGlyph name="bracketright" xMin="69" yMin="-138" xMax="193" yMax="760">
      <contour>
        <pt x="193" y="760" on="1"/>
        <pt x="193" y="-138" on="1"/>
        <pt x="69" y="-138" on="1"/>
        <pt x="69" y="-120" on="1"/>
        <pt x="173" y="-120" on="1"/>
        <pt x="173" y="742" on="1"/>
        <pt x="69" y="742" on="1"/>
        <pt x="69" y="760" on="1"/>
      </contour>
    </TTGlyph>
    <TTGlyph name="breve" xMin="168" yMin="606" xMax="432" yMax="730">
      <contour>
        <pt x="300" y="606" on="1"/>
        <pt x="274" y="606" on="0"/>
        <pt x="237" y="622" on="0"/>
        <pt x="207" y="652" on="0"/>
        <pt x="182" y="696" on="0"/>
        <pt x="168" y="723" on="1"/>
        <pt x="184" y="730" on="1"/>
        <pt x="199" y="703" on="1"/>
        <pt x="212" y="679" on="0"/>
        <pt x="235" y="649" on="0"/>
        <pt x="258" y="632" on="0"/>
        <pt x="283" y="625" on="0"/>
        <pt x="300" y="625" on="1"/>
        <pt x="316" y="625" on="0"/>
        <pt x="342" y="632" on="0"/>
        <pt x="365" y="649" on="0"/>
        <pt x="388" y="679" on="0"/>
        <pt x="401" y="703" on="1"/>
        <pt x="416" y="730" on="1"/>
        <pt x="432" y="723" on="1"/>
        <pt x="418" y="696" on="0"/>
        <pt x="393" y="652" on="0"/>
        <pt x="363" y="622" on="0"/>
        <pt x="325" y="606" on="0"/>
      </contour>
    </TTGlyph>
    <TTGlyph name="breve.case" xMin="168" yMin="786" xMax="432" yMax="910">
      <contour>
        <pt x="300" y="786" on="1"/>
        <pt x="274" y="786" on="0"/>
        <pt x="237" y="802" on="0"/>
        <pt x="207" y="832" on="0"/>
        <pt x="182" y="876" on="0"/>
        <pt x="168" y="903" on="1"/>
        <pt x="184" y="910" on="1"/>
        <pt x="199" y="883" on="1"/>
        <pt x="212" y="859" on="0"/>
        <pt x="235" y="829" on="0"/>
        <pt x="258" y="812" on="0"/>
        <pt x="283" y="805" on="0"/>
        <pt x="300" y="805" on="1"/>
        <pt x="316" y="805" on="0"/>
        <pt x="342" y="812" on="0"/>
        <pt x="365" y="829" on="0"/>
        <pt x="388" y="859" on="0"/>
        <pt x="401" y="883" on="1"/>
        <pt x="416" y="910" on="1"/>
        <pt x="432" y="903" on="1"/>
        <pt x="418" y="876" on="0"/>
        <pt x="393" y="832" on="0"/>
        <pt x="363" y="802" on="0"/>
        <pt x="325" y="786" on="0"/>
      </contour>
    </TTGlyph>
    <TTGlyph name="brokenbar" xMin="108" yMin="-138" xMax="128" yMax="760">
      <contour>
        <pt x="108" y="401" on="1"/>
        <pt x="108" y="760" on="1"/>
        <pt x="128" y="760" on="1"/>
        <pt x="128" y="401" on="1"/>
      </contour>
      <contour>
        <pt x="108" y="-138" on="1"/>
        <pt x="108" y="221" on="1"/>
        <pt x="128" y="221" on="1"/>
        <pt x="128" y="-138" on="1"/>
      </contour>
    </TTGlyph>
    <TTGlyph name="bullet" xMin="82" yMin="218" xMax="254" yMax="390">
      <contour>
        <pt x="168" y="218" on="1"/>
        <pt x="121" y="218" on="0"/>
        <pt x="82" y="261" on="0"/>
        <pt x="82" y="293" on="1"/>
        <pt x="82" y="315" on="1"/>
        <pt x="82" y="347" on="0"/>
        <pt x="121" y="390" on="0"/>
        <pt x="168" y="390" on="1"/>
        <pt x="215" y="390" on="0"/>
        <pt x="254" y="347" on="0"/>
        <pt x="254" y="315" on="1"/>
        <pt x="254" y="293" on="1"/>
        <pt x="254" y="261" on="0"/>
        <pt x="215" y="218" on="0"/>
      </contour>
    </TTGlyph>
    <TTGlyph name="c" xMin="60" yMin="-12" xMax="444" yMax="518">
      <contour>
        <pt x="270" y="-12" on="1"/>
        <pt x="170" y="-12" on="0"/>
        <pt x="60" y="121" on="0"/>
        <pt x="60" y="253" on="1"/>
        <pt x="60" y="385" on="0"/>
        <pt x="170" y="518" on="0"/>
        <pt x="270" y="518" on="1"/>
        <pt x="330" y="518" on="0"/>
        <pt x="412" y="463" on="0"/>
        <pt x="435" y="418" on="1"/>
        <pt x="417" y="409" on="1"/>
        <pt x="393" y="453" on="0"/>
        <pt x="324" y="499" on="0"/>
        <pt x="270" y="499" on="1"/>
        <pt x="179" y="499" on="0"/>
        <pt x="83" y="380" on="0"/>
        <pt x="83" y="277" on="1"/>
        <pt x="83" y="229" on="1"/>
        <pt x="83" y="126" on="0"/>
        <pt x="179" y="7" on="0"/>
        <pt x="270" y="7" on="1"/>
        <pt x="329" y="7" on="0"/>
        <pt x="404" y="53" on="0"/>
        <pt x="428" y="95" on="1"/>
        <pt x="444" y="84" on="1"/>
        <pt x="419" y="41" on="0"/>
        <pt x="336" y="-12" on="0"/>
      </contour>
    </TTGlyph>
    <TTGlyph name="caron" xMin="160" yMin="603" xMax="440" yMax="747">
      <contour>
        <pt x="288" y="603" on="1"/>
        <pt x="160" y="736" on="1"/>
        <pt x="174" y="747" on="1"/>
        <pt x="300" y="620" on="1"/>
        <pt x="426" y="747" on="1"/>
        <pt x="440" y="736" on="1"/>
        <pt x="312" y="603" on="1"/>
      </contour>
    </TTGlyph>
    <TTGlyph name="caron.case" xMin="160" yMin="783" xMax="440" yMax="927">
      <contour>
        <pt x="288" y="783" on="1"/>
        <pt x="160" y="916" on="1"/>
        <pt x="174" y="927" on="1"/>
        <pt x="300" y="800" on="1"/>
        <pt x="426" y="927" on="1"/>
        <pt x="440" y="916" on="1"/>
        <pt x="312" y="783" on="1"/>
      </contour>
    </TTGlyph>
    <TTGlyph name="ccedilla" xMin="60" yMin="-202" xMax="444" yMax="518">
      <contour>
        <pt x="270" y="518" on="1"/>
        <pt x="330" y="518" on="0"/>
        <pt x="412" y="463" on="0"/>
        <pt x="435" y="418" on="1"/>
        <pt x="417" y="409" on="1"/>
        <pt x="393" y="453" on="0"/>
        <pt x="324" y="499" on="0"/>
        <pt x="270" y="499" on="1"/>
        <pt x="179" y="499" on="0"/>
        <pt x="83" y="380" on="0"/>
        <pt x="83" y="277" on="1"/>
        <pt x="83" y="229" on="1"/>
        <pt x="83" y="126" on="0"/>
        <pt x="179" y="7" on="0"/>
        <pt x="270" y="7" on="1"/>
        <pt x="329" y="7" on="0"/>
        <pt x="404" y="53" on="0"/>
        <pt x="428" y="95" on="1"/>
        <pt x="444" y="84" on="1"/>
        <pt x="420" y="42" on="0"/>
        <pt x="341" y="-10" on="0"/>
        <pt x="278" y="-12" on="1"/>
        <pt x="263" y="-73" on="1"/>
        <pt x="265" y="-75" on="1"/>
        <pt x="272" y="-73" on="0"/>
        <pt x="288" y="-72" on="0"/>
        <pt x="295" y="-72" on="1"/>
        <pt x="324" y="-72" on="0"/>
        <pt x="362" y="-104" on="0"/>
        <pt x="362" y="-131" on="1"/>
        <pt x="362" y="-160" on="0"/>
        <pt x="318" y="-202" on="0"/>
        <pt x="280" y="-202" on="1"/>
        <pt x="251" y="-202" on="0"/>
        <pt x="208" y="-183" on="0"/>
        <pt x="199" y="-170" on="1"/>
        <pt x="212" y="-157" on="1"/>
        <pt x="234" y="-184" on="0"/>
        <pt x="280" y="-184" on="1"/>
        <pt x="307" y="-184" on="0"/>
        <pt x="341" y="-158" on="0"/>
        <pt x="341" y="-132" on="1"/>
        <pt x="341" y="-113" on="0"/>
        <pt x="314" y="-88" on="0"/>
        <pt x="280" y="-86" on="1"/>
        <pt x="243" y="-84" on="1"/>
        <pt x="260" y="-12" on="1"/>
        <pt x="165" y="-9" on="0"/>
        <pt x="60" y="124" on="0"/>
        <pt x="60" y="253" on="1"/>
        <pt x="60" y="385" on="0"/>
        <pt x="170" y="518" on="0"/>
      </contour>
    </TTGlyph>
    <TTGlyph name="cedilla" xMin="228" yMin="-202" xMax="391" yMax="3">
      <contour>
        <pt x="309" y="-202" on="1"/>
        <pt x="280" y="-202" on="0"/>
        <pt x="237" y="-183" on="0"/>
        <pt x="228" y="-170" on="1"/>
        <pt x="241" y="-157" on="1"/>
        <pt x="263" y="-184" on="0"/>
        <pt x="309" y="-184" on="1"/>
        <pt x="336" y="-184" on="0"/>
        <pt x="370" y="-158" on="0"/>
        <pt x="370" y="-132" on="1"/>
        <pt x="370" y="-113" on="0"/>
        <pt x="343" y="-88" on="0"/>
        <pt x="309" y="-86" on="1"/>
        <pt x="272" y="-84" on="1"/>
        <pt x="293" y="3" on="1"/>
        <pt x="311" y="3" on="1"/>
        <pt x="292" y="-73" on="1"/>
        <pt x="294" y="-75" on="1"/>
        <pt x="301" y="-73" on="0"/>
        <pt x="317" y="-72" on="0"/>
        <pt x="324" y="-72" on="1"/>
        <pt x="353" y="-72" on="0"/>
        <pt x="391" y="-104" on="0"/>
        <pt x="391" y="-131" on="1"/>
        <pt x="391" y="-160" on="0"/>
        <pt x="347" y="-202" on="0"/>
      </contour>
    </TTGlyph>
    <TTGlyph name="cent" xMin="60" yMin="-114" xMax="444" yMax="620">
      <contour>
        <pt x="253" y="-114" on="1"/>
        <pt x="253" y="-11" on="1"/>
        <pt x="161" y="-6" on="0"/>
        <pt x="60" y="127" on="0"/>
        <pt x="60" y="253" on="1"/>
        <pt x="60" y="379" on="0"/>
        <pt x="161" y="512" on="0"/>
        <pt x="253" y="517" on="1"/>
        <pt x="253" y="620" on="1"/>
        <pt x="273" y="620" on="1"/>
        <pt x="273" y="518" on="1"/>
        <pt x="332" y="517" on="0"/>
        <pt x="412" y="463" on="0"/>
        <pt x="435" y="418" on="1"/>
        <pt x="417" y="409" on="1"/>
        <pt x="393" y="453" on="0"/>
        <pt x="325" y="499" on="0"/>
        <pt x="273" y="499" on="1"/>
        <pt x="273" y="7" on="1"/>
        <pt x="330" y="8" on="0"/>
        <pt x="404" y="54" on="0"/>
        <pt x="428" y="95" on="1"/>
        <pt x="444" y="84" on="1"/>
        <pt x="419" y="41" on="0"/>
        <pt x="337" y="-12" on="0"/>
        <pt x="273" y="-12" on="1"/>
        <pt x="273" y="-114" on="1"/>
      </contour>
      <contour>
        <pt x="83" y="229" on="1"/>
        <pt x="83" y="132" on="0"/>
        <pt x="171" y="13" on="0"/>
        <pt x="253" y="8" on="1"/>
        <pt x="253" y="498" on="1"/>
        <pt x="171" y="493" on="0"/>
        <pt x="83" y="374" on="0"/>
        <pt x="83" y="277" on="1"/>
      </contour>
    </TTGlyph>
    <TTGlyph name="circumflex" xMin="160" yMin="599" xMax="440" yMax="743">
      <contour>
        <pt x="312" y="743" on="1"/>
        <pt x="440" y="610" on="1"/>
        <pt x="426" y="599" on="1"/>
        <pt x="300" y="726" on="1"/>
        <pt x="174" y="599" on="1"/>
        <pt x="160" y="610" on="1"/>
        <pt x="288" y="743" on="1"/>
      </contour>
    </TTGlyph>
    <TTGlyph name="circumflex.case" xMin="160" yMin="779" xMax="440" yMax="923">
      <contour>
        <pt x="312" y="923" on="1"/>
        <pt x="440" y="790" on="1"/>
        <pt x="426" y="779" on="1"/>
        <pt x="300" y="906" on="1"/>
        <pt x="174" y="779" on="1"/>
        <pt x="160" y="790" on="1"/>
        <pt x="288" y="923" on="1"/>
      </contour>
    </TTGlyph>
    <TTGlyph name="colon" xMin="103" yMin="-5" xMax="157" yMax="511">
      <component glyphName="period" x="10" y="0" flags="0x4"/>
      <component glyphName="period" x="10" y="458" flags="0x4"/>
    </TTGlyph>
    <TTGlyph name="comma" xMin="51" yMin="-147" xMax="147" yMax="53">
      <contour>
        <pt x="121" y="53" on="1"/>
        <pt x="135" y="53" on="0"/>
        <pt x="147" y="38" on="0"/>
        <pt x="147" y="27" on="1"/>
        <pt x="147" y="15" on="1"/>
        <pt x="147" y="-6" on="0"/>
        <pt x="135" y="-50" on="0"/>
        <pt x="114" y="-93" on="0"/>
        <pt x="86" y="-132" on="0"/>
        <pt x="70" y="-147" on="1"/>
        <pt x="51" y="-147" on="1"/>
        <pt x="89" y="-109" on="0"/>
        <pt x="122" y="-33" on="0"/>
        <pt x="125" y="-5" on="1"/>
        <pt x="107" y="-5" on="0"/>
        <pt x="93" y="9" on="0"/>
        <pt x="93" y="18" on="1"/>
        <pt x="93" y="27" on="1"/>
        <pt x="93" y="38" on="0"/>
        <pt x="106" y="53" on="0"/>
      </contour>
    </TTGlyph>
    <TTGlyph name="copyright" xMin="33" yMin="-12" xMax="675" yMax="710">
      <contour>
        <pt x="354" y="-12" on="1"/>
        <pt x="283" y="-12" on="0"/>
        <pt x="165" y="39" on="0"/>
        <pt x="80" y="134" on="0"/>
        <pt x="33" y="267" on="0"/>
        <pt x="33" y="349" on="1"/>
        <pt x="33" y="431" on="0"/>
        <pt x="80" y="564" on="0"/>
        <pt x="165" y="659" on="0"/>
        <pt x="283" y="710" on="0"/>
        <pt x="354" y="710" on="1"/>
        <pt x="425" y="710" on="0"/>
        <pt x="543" y="659" on="0"/>
        <pt x="628" y="564" on="0"/>
        <pt x="675" y="431" on="0"/>
        <pt x="675" y="349" on="1"/>
        <pt x="675" y="267" on="0"/>
        <pt x="628" y="134" on="0"/>
        <pt x="543" y="39" on="0"/>
        <pt x="425" y="-12" on="0"/>
      </contour>
      <contour>
        <pt x="354" y="6" on="1"/>
        <pt x="421" y="6" on="0"/>
        <pt x="531" y="55" on="0"/>
        <pt x="610" y="141" on="0"/>
        <pt x="653" y="258" on="0"/>
        <pt x="653" y="327" on="1"/>
        <pt x="653" y="371" on="1"/>
        <pt x="653" y="440" on="0"/>
        <pt x="610" y="557" on="0"/>
        <pt x="531" y="643" on="0"/>
        <pt x="421" y="692" on="0"/>
        <pt x="354" y="692" on="1"/>
        <pt x="286" y="692" on="0"/>
        <pt x="176" y="643" on="0"/>
        <pt x="98" y="557" on="0"/>
        <pt x="55" y="440" on="0"/>
        <pt x="55" y="371" on="1"/>
        <pt x="55" y="327" on="1"/>
        <pt x="55" y="258" on="0"/>
        <pt x="98" y="141" on="0"/>
        <pt x="177" y="55" on="0"/>
        <pt x="287" y="6" on="0"/>
      </contour>
      <contour>
        <pt x="351" y="149" on="1"/>
        <pt x="283" y="149" on="0"/>
        <pt x="202" y="249" on="0"/>
        <pt x="202" y="346" on="1"/>
        <pt x="202" y="443" on="0"/>
        <pt x="284" y="543" on="0"/>
        <pt x="353" y="543" on="1"/>
        <pt x="402" y="543" on="0"/>
        <pt x="464" y="497" on="0"/>
        <pt x="476" y="462" on="1"/>
        <pt x="460" y="457" on="1"/>
        <pt x="447" y="489" on="0"/>
        <pt x="394" y="526" on="0"/>
        <pt x="353" y="526" on="1"/>
        <pt x="293" y="526" on="0"/>
        <pt x="222" y="441" on="0"/>
        <pt x="222" y="356" on="1"/>
        <pt x="222" y="336" on="1"/>
        <pt x="222" y="248" on="0"/>
        <pt x="293" y="166" on="0"/>
        <pt x="352" y="166" on="1"/>
        <pt x="394" y="166" on="0"/>
        <pt x="451" y="204" on="0"/>
        <pt x="465" y="236" on="1"/>
        <pt x="480" y="229" on="1"/>
        <pt x="466" y="195" on="0"/>
        <pt x="399" y="149" on="0"/>
      </contour>
    </TTGlyph>
    <TTGlyph name="currency" xMin="22" yMin="78" xMax="564" yMax="620">
      <contour>
        <pt x="293" y="129" on="1"/>
        <pt x="198" y="129" on="0"/>
        <pt x="147" y="189" on="1"/>
        <pt x="37" y="78" on="1"/>
        <pt x="22" y="93" on="1"/>
        <pt x="134" y="206" on="1"/>
        <pt x="100" y="259" on="0"/>
        <pt x="100" y="349" on="1"/>
        <pt x="100" y="439" on="0"/>
        <pt x="134" y="492" on="1"/>
        <pt x="22" y="605" on="1"/>
        <pt x="37" y="620" on="1"/>
        <pt x="147" y="509" on="1"/>
        <pt x="198" y="569" on="0"/>
        <pt x="293" y="569" on="1"/>
        <pt x="388" y="569" on="0"/>
        <pt x="439" y="509" on="1"/>
        <pt x="549" y="620" on="1"/>
        <pt x="564" y="605" on="1"/>
        <pt x="452" y="492" on="1"/>
        <pt x="486" y="439" on="0"/>
        <pt x="486" y="349" on="1"/>
        <pt x="486" y="259" on="0"/>
        <pt x="452" y="206" on="1"/>
        <pt x="564" y="93" on="1"/>
        <pt x="549" y="78" on="1"/>
        <pt x="439" y="189" on="1"/>
        <pt x="388" y="129" on="0"/>
      </contour>
      <contour>
        <pt x="293" y="148" on="1"/>
        <pt x="374" y="148" on="0"/>
        <pt x="463" y="243" on="0"/>
        <pt x="463" y="326" on="1"/>
        <pt x="463" y="372" on="1"/>
        <pt x="463" y="455" on="0"/>
        <pt x="374" y="550" on="0"/>
        <pt x="293" y="550" on="1"/>
        <pt x="212" y="550" on="0"/>
        <pt x="123" y="455" on="0"/>
        <pt x="123" y="372" on="1"/>
        <pt x="123" y="326" on="1"/>
        <pt x="123" y="243" on="0"/>
        <pt x="212" y="148" on="0"/>
      </contour>
    </TTGlyph>
    <TTGlyph name="d" xMin="60" yMin="-12" xMax="460" yMax="740">
      <contour>
        <pt x="439" y="78" on="1"/>
        <pt x="436" y="78" on="1"/>
        <pt x="428" y="61" on="0"/>
        <pt x="400" y="29" on="0"/>
        <pt x="359" y="4" on="0"/>
        <pt x="305" y="-12" on="0"/>
        <pt x="272" y="-12" on="1"/>
        <pt x="172" y="-12" on="0"/>
        <pt x="60" y="120" on="0"/>
        <pt x="60" y="253" on="1"/>
        <pt x="60" y="386" on="0"/>
        <pt x="172" y="518" on="0"/>
        <pt x="272" y="518" on="1"/>
        <pt x="305" y="518" on="0"/>
        <pt x="359" y="502" on="0"/>
        <pt x="400" y="477" on="0"/>
        <pt x="428" y="444" on="0"/>
        <pt x="436" y="428" on="1"/>
        <pt x="439" y="428" on="1"/>
        <pt x="439" y="740" on="1"/>
        <pt x="460" y="740" on="1"/>
        <pt x="460" y="0" on="1"/>
        <pt x="439" y="0" on="1"/>
      </contour>
      <contour>
        <pt x="272" y="7" on="1"/>
        <pt x="305" y="7" on="0"/>
        <pt x="365" y="27" on="0"/>
        <pt x="412" y="63" on="0"/>
        <pt x="439" y="113" on="0"/>
        <pt x="439" y="143" on="1"/>
        <pt x="439" y="363" on="1"/>
        <pt x="439" y="393" on="0"/>
        <pt x="412" y="443" on="0"/>
        <pt x="365" y="479" on="0"/>
        <pt x="305" y="499" on="0"/>
        <pt x="272" y="499" on="1"/>
        <pt x="181" y="499" on="0"/>
        <pt x="83" y="380" on="0"/>
        <pt x="83" y="277" on="1"/>
        <pt x="83" y="229" on="1"/>
        <pt x="83" y="126" on="0"/>
        <pt x="181" y="7" on="0"/>
      </contour>
    </TTGlyph>
    <TTGlyph name="dagger" xMin="58" yMin="-200" xMax="503" yMax="740">
      <contour>
        <pt x="270" y="-200" on="1"/>
        <pt x="270" y="487" on="1"/>
        <pt x="58" y="487" on="1"/>
        <pt x="58" y="506" on="1"/>
        <pt x="270" y="506" on="1"/>
        <pt x="270" y="740" on="1"/>
        <pt x="291" y="740" on="1"/>
        <pt x="291" y="506" on="1"/>
        <pt x="503" y="506" on="1"/>
        <pt x="503" y="487" on="1"/>
        <pt x="291" y="487" on="1"/>
        <pt x="291" y="-200" on="1"/>
      </contour>
    </TTGlyph>
    <TTGlyph name="daggerdbl" xMin="58" yMin="-200" xMax="503" yMax="740">
      <contour>
        <pt x="270" y="-200" on="1"/>
        <pt x="270" y="34" on="1"/>
        <pt x="58" y="34" on="1"/>
        <pt x="58" y="53" on="1"/>
        <pt x="270" y="53" on="1"/>
        <pt x="270" y="487" on="1"/>
        <pt x="58" y="487" on="1"/>
        <pt x="58" y="506" on="1"/>
        <pt x="270" y="506" on="1"/>
        <pt x="270" y="740" on="1"/>
        <pt x="291" y="740" on="1"/>
        <pt x="291" y="506" on="1"/>
        <pt x="503" y="506" on="1"/>
        <pt x="503" y="487" on="1"/>
        <pt x="291" y="487" on="1"/>
        <pt x="291" y="53" on="1"/>
        <pt x="503" y="53" on="1"/>
        <pt x="503" y="34" on="1"/>
        <pt x="291" y="34" on="1"/>
        <pt x="291" y="-200" on="1"/>
      </contour>
    </TTGlyph>
    <TTGlyph name="degree" xMin="71" yMin="374" xMax="395" yMax="710">
      <contour>
        <pt x="233" y="374" on="1"/>
        <pt x="198" y="374" on="0"/>
        <pt x="139" y="400" on="0"/>
        <pt x="95" y="445" on="0"/>
        <pt x="71" y="506" on="0"/>
        <pt x="71" y="542" on="1"/>
        <pt x="71" y="578" on="0"/>
        <pt x="95" y="639" on="0"/>
        <pt x="139" y="684" on="0"/>
        <pt x="198" y="710" on="0"/>
        <pt x="233" y="710" on="1"/>
        <pt x="267" y="710" on="0"/>
        <pt x="327" y="684" on="0"/>
        <pt x="370" y="639" on="0"/>
        <pt x="395" y="578" on="0"/>
        <pt x="395" y="542" on="1"/>
        <pt x="395" y="506" on="0"/>
        <pt x="370" y="445" on="0"/>
        <pt x="327" y="400" on="0"/>
        <pt x="267" y="374" on="0"/>
      </contour>
      <contour>
        <pt x="233" y="393" on="1"/>
        <pt x="265" y="393" on="0"/>
        <pt x="317" y="417" on="0"/>
        <pt x="354" y="457" on="0"/>
        <pt x="374" y="512" on="0"/>
        <pt x="374" y="542" on="1"/>
        <pt x="374" y="572" on="0"/>
        <pt x="354" y="627" on="0"/>
        <pt x="317" y="667" on="0"/>
        <pt x="265" y="691" on="0"/>
        <pt x="233" y="691" on="1"/>
        <pt x="201" y="691" on="0"/>
        <pt x="149" y="667" on="0"/>
        <pt x="112" y="627" on="0"/>
        <pt x="92" y="573" on="0"/>
        <pt x="92" y="542" on="1"/>
        <pt x="92" y="511" on="0"/>
        <pt x="112" y="457" on="0"/>
        <pt x="149" y="416" on="0"/>
        <pt x="201" y="393" on="0"/>
      </contour>
    </TTGlyph>
    <TTGlyph name="dieresis" xMin="186" yMin="642" xMax="414" yMax="691">
      <contour>
        <pt x="209" y="642" on="1"/>
        <pt x="196" y="642" on="0"/>
        <pt x="186" y="655" on="0"/>
        <pt x="186" y="663" on="1"/>
        <pt x="186" y="670" on="1"/>
        <pt x="186" y="678" on="0"/>
        <pt x="196" y="691" on="0"/>
        <pt x="209" y="691" on="1"/>
        <pt x="222" y="691" on="0"/>
        <pt x="232" y="678" on="0"/>
        <pt x="232" y="670" on="1"/>
        <pt x="232" y="663" on="1"/>
        <pt x="232" y="655" on="0"/>
        <pt x="222" y="642" on="0"/>
      </contour>
      <contour>
        <pt x="391" y="642" on="1"/>
        <pt x="378" y="642" on="0"/>
        <pt x="368" y="655" on="0"/>
        <pt x="368" y="663" on="1"/>
        <pt x="368" y="670" on="1"/>
        <pt x="368" y="678" on="0"/>
        <pt x="378" y="691" on="0"/>
        <pt x="391" y="691" on="1"/>
        <pt x="404" y="691" on="0"/>
        <pt x="414" y="678" on="0"/>
        <pt x="414" y="670" on="1"/>
        <pt x="414" y="663" on="1"/>
        <pt x="414" y="655" on="0"/>
        <pt x="404" y="642" on="0"/>
      </contour>
    </TTGlyph>
    <TTGlyph name="dieresis.case" xMin="186" yMin="819" xMax="414" yMax="868">
      <contour>
        <pt x="209" y="819" on="1"/>
        <pt x="196" y="819" on="0"/>
        <pt x="186" y="832" on="0"/>
        <pt x="186" y="840" on="1"/>
        <pt x="186" y="847" on="1"/>
        <pt x="186" y="855" on="0"/>
        <pt x="196" y="868" on="0"/>
        <pt x="209" y="868" on="1"/>
        <pt x="222" y="868" on="0"/>
        <pt x="232" y="855" on="0"/>
        <pt x="232" y="847" on="1"/>
        <pt x="232" y="840" on="1"/>
        <pt x="232" y="832" on="0"/>
        <pt x="222" y="819" on="0"/>
      </contour>
      <contour>
        <pt x="391" y="819" on="1"/>
        <pt x="378" y="819" on="0"/>
        <pt x="368" y="832" on="0"/>
        <pt x="368" y="840" on="1"/>
        <pt x="368" y="847" on="1"/>
        <pt x="368" y="855" on="0"/>
        <pt x="378" y="868" on="0"/>
        <pt x="391" y="868" on="1"/>
        <pt x="404" y="868" on="0"/>
        <pt x="414" y="855" on="0"/>
        <pt x="414" y="847" on="1"/>
        <pt x="414" y="840" on="1"/>
        <pt x="414" y="832" on="0"/>
        <pt x="404" y="819" on="0"/>
      </contour>
    </TTGlyph>
    <TTGlyph name="divide" xMin="62" yMin="81" xMax="538" yMax="530">
      <contour>
        <pt x="62" y="296" on="1"/>
        <pt x="62" y="315" on="1"/>
        <pt x="538" y="315" on="1"/>
        <pt x="538" y="296" on="1"/>
      </contour>
      <contour>
        <pt x="300" y="81" on="1"/>
        <pt x="266" y="81" on="0"/>
        <pt x="266" y="108" on="1"/>
        <pt x="266" y="116" on="1"/>
        <pt x="266" y="143" on="0"/>
        <pt x="300" y="143" on="1"/>
        <pt x="334" y="143" on="0"/>
        <pt x="334" y="116" on="1"/>
        <pt x="334" y="108" on="1"/>
        <pt x="334" y="81" on="0"/>
      </contour>
      <contour>
        <pt x="300" y="468" on="1"/>
        <pt x="266" y="468" on="0"/>
        <pt x="266" y="495" on="1"/>
        <pt x="266" y="503" on="1"/>
        <pt x="266" y="530" on="0"/>
        <pt x="300" y="530" on="1"/>
        <pt x="334" y="530" on="0"/>
        <pt x="334" y="503" on="1"/>
        <pt x="334" y="495" on="1"/>
        <pt x="334" y="468" on="0"/>
      </contour>
    </TTGlyph>
    <TTGlyph name="dollar" xMin="42" yMin="-82" xMax="489" yMax="780">
      <contour>
        <pt x="268" y="-82" on="1"/>
        <pt x="268" y="0" on="1"/>
        <pt x="226" y="1" on="0"/>
        <pt x="159" y="19" on="0"/>
        <pt x="104" y="49" on="0"/>
        <pt x="60" y="90" on="0"/>
        <pt x="42" y="114" on="1"/>
        <pt x="60" y="127" on="1"/>
        <pt x="78" y="104" on="0"/>
        <pt x="119" y="65" on="0"/>
        <pt x="169" y="37" on="0"/>
        <pt x="230" y="21" on="0"/>
        <pt x="268" y="20" on="1"/>
        <pt x="268" y="351" on="1"/>
        <pt x="237" y="357" on="1"/>
        <pt x="184" y="367" on="0"/>
        <pt x="115" y="401" on="0"/>
        <pt x="74" y="446" on="0"/>
        <pt x="58" y="500" on="0"/>
        <pt x="58" y="530" on="1"/>
        <pt x="58" y="615" on="0"/>
        <pt x="173" y="698" on="0"/>
        <pt x="268" y="698" on="1"/>
        <pt x="268" y="780" on="1"/>
        <pt x="288" y="780" on="1"/>
        <pt x="288" y="698" on="1"/>
        <pt x="358" y="695" on="0"/>
        <pt x="450" y="643" on="0"/>
        <pt x="477" y="603" on="1"/>
        <pt x="459" y="590" on="1"/>
        <pt x="431" y="631" on="0"/>
        <pt x="348" y="675" on="0"/>
        <pt x="288" y="678" on="1"/>
        <pt x="288" y="368" on="1"/>
        <pt x="312" y="364" on="1"/>
        <pt x="366" y="355" on="0"/>
        <pt x="435" y="319" on="0"/>
        <pt x="474" y="272" on="0"/>
        <pt x="489" y="215" on="0"/>
        <pt x="489" y="185" on="1"/>
        <pt x="489" y="95" on="0"/>
        <pt x="382" y="3" on="0"/>
        <pt x="288" y="0" on="1"/>
        <pt x="288" y="-82" on="1"/>
      </contour>
      <contour>
        <pt x="467" y="184" on="1"/>
        <pt x="467" y="227" on="0"/>
        <pt x="440" y="284" on="0"/>
        <pt x="396" y="320" on="0"/>
        <pt x="337" y="340" on="0"/>
        <pt x="306" y="345" on="1"/>
        <pt x="288" y="348" on="1"/>
        <pt x="288" y="20" on="1"/>
        <pt x="375" y="23" on="0"/>
        <pt x="467" y="106" on="0"/>
      </contour>
      <contour>
        <pt x="80" y="530" on="1"/>
        <pt x="80" y="491" on="0"/>
        <pt x="106" y="438" on="0"/>
        <pt x="151" y="403" on="0"/>
        <pt x="210" y="383" on="0"/>
        <pt x="243" y="376" on="1"/>
        <pt x="268" y="371" on="1"/>
        <pt x="268" y="678" on="1"/>
        <pt x="179" y="678" on="0"/>
        <pt x="80" y="605" on="0"/>
      </contour>
    </TTGlyph>
    <TTGlyph name="dotaccent" xMin="277" yMin="642" xMax="323" yMax="691">
      <contour>
        <pt x="300" y="642" on="1"/>
        <pt x="287" y="642" on="0"/>
        <pt x="277" y="655" on="0"/>
        <pt x="277" y="663" on="1"/>
        <pt x="277" y="670" on="1"/>
        <pt x="277" y="678" on="0"/>
        <pt x="287" y="691" on="0"/>
        <pt x="300" y="691" on="1"/>
        <pt x="313" y="691" on="0"/>
        <pt x="323" y="678" on="0"/>
        <pt x="323" y="670" on="1"/>
        <pt x="323" y="663" on="1"/>
        <pt x="323" y="655" on="0"/>
        <pt x="313" y="642" on="0"/>
      </contour>
    </TTGlyph>
    <TTGlyph name="dotaccent.case" xMin="277" yMin="822" xMax="323" yMax="871">
      <contour>
        <pt x="300" y="822" on="1"/>
        <pt x="287" y="822" on="0"/>
        <pt x="277" y="835" on="0"/>
        <pt x="277" y="843" on="1"/>
        <pt x="277" y="850" on="1"/>
        <pt x="277" y="858" on="0"/>
        <pt x="287" y="871" on="0"/>
        <pt x="300" y="871" on="1"/>
        <pt x="313" y="871" on="0"/>
        <pt x="323" y="858" on="0"/>
        <pt x="323" y="850" on="1"/>
        <pt x="323" y="843" on="1"/>
        <pt x="323" y="835" on="0"/>
        <pt x="313" y="822" on="0"/>
      </contour>
    </TTGlyph>
    <TTGlyph name="dotlessi" xMin="105" yMin="0" xMax="126" yMax="506">
      <contour>
        <pt x="105" y="0" on="1"/>
        <pt x="105" y="506" on="1"/>
        <pt x="126" y="506" on="1"/>
        <pt x="126" y="0" on="1"/>
      </contour>
    </TTGlyph>
    <TTGlyph name="e" xMin="60" yMin="-12" xMax="473" yMax="518">
      <contour>
        <pt x="272" y="-12" on="1"/>
        <pt x="172" y="-12" on="0"/>
        <pt x="60" y="121" on="0"/>
        <pt x="60" y="253" on="1"/>
        <pt x="60" y="384" on="0"/>
        <pt x="170" y="518" on="0"/>
        <pt x="268" y="518" on="1"/>
        <pt x="314" y="518" on="0"/>
        <pt x="389" y="483" on="0"/>
        <pt x="443" y="417" on="0"/>
        <pt x="473" y="324" on="0"/>
        <pt x="473" y="266" on="1"/>
        <pt x="473" y="256" on="1"/>
        <pt x="83" y="256" on="1"/>
        <pt x="83" y="229" on="1"/>
        <pt x="83" y="126" on="0"/>
        <pt x="181" y="7" on="0"/>
        <pt x="272" y="7" on="1"/>
        <pt x="400" y="7" on="0"/>
        <pt x="447" y="131" on="1"/>
        <pt x="465" y="124" on="1"/>
        <pt x="442" y="61" on="0"/>
        <pt x="345" y="-12" on="0"/>
      </contour>
      <contour>
        <pt x="268" y="499" on="1"/>
        <pt x="179" y="499" on="0"/>
        <pt x="83" y="380" on="0"/>
        <pt x="83" y="277" on="1"/>
        <pt x="83" y="275" on="1"/>
        <pt x="450" y="275" on="1"/>
        <pt x="450" y="279" on="1"/>
        <pt x="450" y="329" on="0"/>
        <pt x="424" y="410" on="0"/>
        <pt x="376" y="468" on="0"/>
        <pt x="309" y="499" on="0"/>
      </contour>
    </TTGlyph>
    <TTGlyph name="eacute" xMin="60" yMin="-12" xMax="473" yMax="751">
      <component glyphName="e" x="0" y="0" flags="0x204"/>
      <component glyphName="acute" x="-31" y="0" flags="0x4"/>
    </TTGlyph>
    <TTGlyph name="ecircumflex" xMin="60" yMin="-12" xMax="473" yMax="743">
      <component glyphName="e" x="0" y="0" flags="0x204"/>
      <component glyphName="circumflex" x="-31" y="0" flags="0x4"/>
    </TTGlyph>
    <TTGlyph name="edieresis" xMin="60" yMin="-12" xMax="473" yMax="691">
      <component glyphName="e" x="0" y="0" flags="0x204"/>
      <component glyphName="dieresis" x="-31" y="0" flags="0x4"/>
    </TTGlyph>
    <TTGlyph name="egrave" xMin="60" yMin="-12" xMax="473" yMax="751">
      <component glyphName="e" x="0" y="0" flags="0x204"/>
      <component glyphName="grave" x="-31" y="0" flags="0x4"/>
    </TTGlyph>
    <TTGlyph name="eight" xMin="72" yMin="-12" xMax="528" yMax="710">
      <contour>
        <pt x="300" y="-12" on="1"/>
        <pt x="247" y="-12" on="0"/>
        <pt x="163" y="15" on="0"/>
        <pt x="104" y="66" on="0"/>
        <pt x="72" y="136" on="0"/>
        <pt x="72" y="180" on="1"/>
        <pt x="72" y="255" on="0"/>
        <pt x="154" y="352" on="0"/>
        <pt x="226" y="364" on="1"/>
        <pt x="226" y="368" on="1"/>
        <pt x="166" y="380" on="0"/>
        <pt x="96" y="467" on="0"/>
        <pt x="96" y="535" on="1"/>
        <pt x="96" y="616" on="0"/>
        <pt x="206" y="710" on="0"/>
        <pt x="300" y="710" on="1"/>
        <pt x="394" y="710" on="0"/>
        <pt x="504" y="616" on="0"/>
        <pt x="504" y="535" on="1"/>
        <pt x="504" y="467" on="0"/>
        <pt x="434" y="380" on="0"/>
        <pt x="374" y="368" on="1"/>
        <pt x="374" y="364" on="1"/>
        <pt x="446" y="352" on="0"/>
        <pt x="528" y="255" on="0"/>
        <pt x="528" y="180" on="1"/>
        <pt x="528" y="136" on="0"/>
        <pt x="496" y="66" on="0"/>
        <pt x="437" y="15" on="0"/>
        <pt x="352" y="-12" on="0"/>
      </contour>
      <contour>
        <pt x="300" y="8" on="1"/>
        <pt x="346" y="8" on="0"/>
        <pt x="422" y="32" on="0"/>
        <pt x="475" y="74" on="0"/>
        <pt x="504" y="133" on="0"/>
        <pt x="504" y="169" on="1"/>
        <pt x="504" y="195" on="1"/>
        <pt x="504" y="231" on="0"/>
        <pt x="475" y="290" on="0"/>
        <pt x="422" y="332" on="0"/>
        <pt x="346" y="356" on="0"/>
        <pt x="300" y="356" on="1"/>
        <pt x="253" y="356" on="0"/>
        <pt x="178" y="332" on="0"/>
        <pt x="125" y="290" on="0"/>
        <pt x="96" y="231" on="0"/>
        <pt x="96" y="195" on="1"/>
        <pt x="96" y="169" on="1"/>
        <pt x="96" y="133" on="0"/>
        <pt x="125" y="74" on="0"/>
        <pt x="178" y="32" on="0"/>
        <pt x="253" y="8" on="0"/>
      </contour>
      <contour>
        <pt x="300" y="376" on="1"/>
        <pt x="382" y="376" on="0"/>
        <pt x="480" y="455" on="0"/>
        <pt x="480" y="521" on="1"/>
        <pt x="480" y="545" on="1"/>
        <pt x="480" y="611" on="0"/>
        <pt x="382" y="690" on="0"/>
        <pt x="300" y="690" on="1"/>
        <pt x="218" y="690" on="0"/>
        <pt x="120" y="611" on="0"/>
        <pt x="120" y="545" on="1"/>
        <pt x="120" y="521" on="1"/>
        <pt x="120" y="455" on="0"/>
        <pt x="218" y="376" on="0"/>
      </contour>
    </TTGlyph>
    <TTGlyph name="eight.loclIWR" xMin="85" yMin="-12" xMax="515" yMax="608">
      <contour>
        <pt x="300" y="-12" on="1"/>
        <pt x="200" y="-12" on="0"/>
        <pt x="85" y="77" on="0"/>
        <pt x="85" y="152" on="1"/>
        <pt x="85" y="215" on="0"/>
        <pt x="160" y="301" on="0"/>
        <pt x="230" y="312" on="1"/>
        <pt x="230" y="316" on="1"/>
        <pt x="175" y="326" on="0"/>
        <pt x="108" y="399" on="0"/>
        <pt x="108" y="459" on="1"/>
        <pt x="108" y="528" on="0"/>
        <pt x="211" y="608" on="0"/>
        <pt x="300" y="608" on="1"/>
        <pt x="389" y="608" on="0"/>
        <pt x="492" y="528" on="0"/>
        <pt x="492" y="459" on="1"/>
        <pt x="492" y="399" on="0"/>
        <pt x="425" y="326" on="0"/>
        <pt x="370" y="316" on="1"/>
        <pt x="370" y="312" on="1"/>
        <pt x="440" y="301" on="0"/>
        <pt x="515" y="215" on="0"/>
        <pt x="515" y="152" on="1"/>
        <pt x="515" y="77" on="0"/>
        <pt x="400" y="-12" on="0"/>
      </contour>
      <contour>
        <pt x="300" y="7" on="1"/>
        <pt x="388" y="7" on="0"/>
        <pt x="491" y="82" on="0"/>
        <pt x="491" y="144" on="1"/>
        <pt x="491" y="167" on="1"/>
        <pt x="491" y="229" on="0"/>
        <pt x="388" y="304" on="0"/>
        <pt x="300" y="304" on="1"/>
        <pt x="212" y="304" on="0"/>
        <pt x="109" y="229" on="0"/>
        <pt x="109" y="167" on="1"/>
        <pt x="109" y="144" on="1"/>
        <pt x="109" y="82" on="0"/>
        <pt x="212" y="7" on="0"/>
      </contour>
      <contour>
        <pt x="300" y="323" on="1"/>
        <pt x="377" y="323" on="0"/>
        <pt x="469" y="389" on="0"/>
        <pt x="469" y="445" on="1"/>
        <pt x="469" y="467" on="1"/>
        <pt x="469" y="523" on="0"/>
        <pt x="377" y="589" on="0"/>
        <pt x="300" y="589" on="1"/>
        <pt x="223" y="589" on="0"/>
        <pt x="131" y="523" on="0"/>
        <pt x="131" y="467" on="1"/>
        <pt x="131" y="445" on="1"/>
        <pt x="131" y="389" on="0"/>
        <pt x="223" y="323" on="0"/>
      </contour>
    </TTGlyph>
    <TTGlyph name="ellipsis" xMin="93" yMin="-5" xMax="627" yMax="53">
      <component glyphName="period" x="0" y="0" flags="0x4"/>
      <component glyphName="period" x="240" y="0" flags="0x4"/>
      <component glyphName="period" x="480" y="0" flags="0x4"/>
    </TTGlyph>
    <TTGlyph name="emdash" xMin="36" yMin="296" xMax="744" yMax="314">
      <contour>
        <pt x="36" y="296" on="1"/>
        <pt x="36" y="314" on="1"/>
        <pt x="744" y="314" on="1"/>
        <pt x="744" y="296" on="1"/>
      </contour>
    </TTGlyph>
    <TTGlyph name="endash" xMin="36" yMin="296" xMax="552" yMax="314">
      <contour>
        <pt x="36" y="296" on="1"/>
        <pt x="36" y="314" on="1"/>
        <pt x="552" y="314" on="1"/>
        <pt x="552" y="296" on="1"/>
      </contour>
    </TTGlyph>
    <TTGlyph name="equal" xMin="62" yMin="207" xMax="538" yMax="404">
      <contour>
        <pt x="62" y="385" on="1"/>
        <pt x="62" y="404" on="1"/>
        <pt x="538" y="404" on="1"/>
        <pt x="538" y="385" on="1"/>
      </contour>
      <contour>
        <pt x="62" y="207" on="1"/>
        <pt x="62" y="226" on="1"/>
        <pt x="538" y="226" on="1"/>
        <pt x="538" y="207" on="1"/>
      </contour>
    </TTGlyph>
    <TTGlyph name="eth" xMin="60" yMin="-12" xMax="480" yMax="752">
      <contour>
        <pt x="404" y="738" on="1"/>
        <pt x="296" y="660" on="1"/>
        <pt x="332" y="626" on="0"/>
        <pt x="398" y="537" on="0"/>
        <pt x="449" y="432" on="0"/>
        <pt x="480" y="312" on="0"/>
        <pt x="480" y="248" on="1"/>
        <pt x="480" y="186" on="0"/>
        <pt x="450" y="89" on="0"/>
        <pt x="394" y="23" on="0"/>
        <pt x="317" y="-12" on="0"/>
        <pt x="270" y="-12" on="1"/>
        <pt x="223" y="-12" on="0"/>
        <pt x="146" y="23" on="0"/>
        <pt x="90" y="89" on="0"/>
        <pt x="60" y="186" on="0"/>
        <pt x="60" y="248" on="1"/>
        <pt x="60" y="308" on="0"/>
        <pt x="90" y="401" on="0"/>
        <pt x="146" y="466" on="0"/>
        <pt x="223" y="500" on="0"/>
        <pt x="270" y="500" on="1"/>
        <pt x="374" y="500" on="0"/>
        <pt x="429" y="419" on="1"/>
        <pt x="432" y="421" on="1"/>
        <pt x="405" y="493" on="0"/>
        <pt x="327" y="605" on="0"/>
        <pt x="282" y="650" on="1"/>
        <pt x="174" y="572" on="1"/>
        <pt x="164" y="586" on="1"/>
        <pt x="269" y="662" on="1"/>
        <pt x="249" y="680" on="0"/>
        <pt x="188" y="724" on="0"/>
        <pt x="156" y="740" on="1"/>
        <pt x="192" y="740" on="1"/>
        <pt x="215" y="726" on="0"/>
        <pt x="258" y="694" on="0"/>
        <pt x="283" y="672" on="1"/>
        <pt x="394" y="752" on="1"/>
      </contour>
      <contour>
        <pt x="270" y="7" on="1"/>
        <pt x="311" y="7" on="0"/>
        <pt x="380" y="36" on="0"/>
        <pt x="429" y="91" on="0"/>
        <pt x="457" y="169" on="0"/>
        <pt x="457" y="218" on="1"/>
        <pt x="457" y="270" on="1"/>
        <pt x="457" y="319" on="0"/>
        <pt x="429" y="397" on="0"/>
        <pt x="380" y="451" on="0"/>
        <pt x="311" y="481" on="0"/>
        <pt x="270" y="481" on="1"/>
        <pt x="229" y="481" on="0"/>
        <pt x="160" y="452" on="0"/>
        <pt x="111" y="397" on="0"/>
        <pt x="83" y="319" on="0"/>
        <pt x="83" y="270" on="1"/>
        <pt x="83" y="218" on="1"/>
        <pt x="83" y="169" on="0"/>
        <pt x="111" y="91" on="0"/>
        <pt x="160" y="36" on="0"/>
        <pt x="229" y="7" on="0"/>
      </contour>
    </TTGlyph>
    <TTGlyph name="exclam" xMin="99" yMin="-5" xMax="153" yMax="698">
      <contour>
        <pt x="120" y="176" on="1"/>
        <pt x="115" y="415" on="1"/>
        <pt x="115" y="698" on="1"/>
        <pt x="137" y="698" on="1"/>
        <pt x="137" y="415" on="1"/>
        <pt x="132" y="176" on="1"/>
      </contour>
      <contour>
        <pt x="126" y="-5" on="1"/>
        <pt x="99" y="-5" on="0"/>
        <pt x="99" y="20" on="1"/>
        <pt x="99" y="28" on="1"/>
        <pt x="99" y="53" on="0"/>
        <pt x="126" y="53" on="1"/>
        <pt x="153" y="53" on="0"/>
        <pt x="153" y="28" on="1"/>
        <pt x="153" y="20" on="1"/>
        <pt x="153" y="-5" on="0"/>
      </contour>
    </TTGlyph>
    <TTGlyph name="exclamdown" xMin="99" yMin="-192" xMax="153" yMax="511">
      <contour>
        <pt x="132" y="330" on="1"/>
        <pt x="137" y="91" on="1"/>
        <pt x="137" y="-192" on="1"/>
        <pt x="115" y="-192" on="1"/>
        <pt x="115" y="91" on="1"/>
        <pt x="120" y="330" on="1"/>
      </contour>
      <contour>
        <pt x="126" y="511" on="1"/>
        <pt x="153" y="511" on="0"/>
        <pt x="153" y="486" on="1"/>
        <pt x="153" y="478" on="1"/>
        <pt x="153" y="453" on="0"/>
        <pt x="126" y="453" on="1"/>
        <pt x="99" y="453" on="0"/>
        <pt x="99" y="478" on="1"/>
        <pt x="99" y="486" on="1"/>
        <pt x="99" y="511" on="0"/>
      </contour>
    </TTGlyph>
    <TTGlyph name="f" xMin="30" yMin="0" xMax="260" yMax="740">
      <contour>
        <pt x="123" y="487" on="1"/>
        <pt x="30" y="487" on="1"/>
        <pt x="30" y="506" on="1"/>
        <pt x="123" y="506" on="1"/>
        <pt x="123" y="711" on="1"/>
        <pt x="123" y="740" on="0"/>
        <pt x="152" y="740" on="1"/>
        <pt x="260" y="740" on="1"/>
        <pt x="260" y="721" on="1"/>
        <pt x="144" y="721" on="1"/>
        <pt x="144" y="506" on="1"/>
        <pt x="260" y="506" on="1"/>
        <pt x="260" y="487" on="1"/>
        <pt x="144" y="487" on="1"/>
        <pt x="144" y="0" on="1"/>
        <pt x="123" y="0" on="1"/>
      </contour>
    </TTGlyph>
    <TTGlyph name="fi" xMin="30" yMin="0" xMax="418" yMax="740">
      <contour>
        <pt x="123" y="487" on="1"/>
        <pt x="30" y="487" on="1"/>
        <pt x="30" y="506" on="1"/>
        <pt x="123" y="506" on="1"/>
        <pt x="123" y="711" on="1"/>
        <pt x="123" y="740" on="0"/>
        <pt x="152" y="740" on="1"/>
        <pt x="260" y="740" on="1"/>
        <pt x="260" y="721" on="1"/>
        <pt x="144" y="721" on="1"/>
        <pt x="144" y="506" on="1"/>
        <pt x="405" y="506" on="1"/>
        <pt x="405" y="0" on="1"/>
        <pt x="384" y="0" on="1"/>
        <pt x="384" y="487" on="1"/>
        <pt x="144" y="487" on="1"/>
        <pt x="144" y="0" on="1"/>
        <pt x="123" y="0" on="1"/>
      </contour>
      <contour>
        <pt x="395" y="673" on="1"/>
        <pt x="382" y="673" on="0"/>
        <pt x="372" y="686" on="0"/>
        <pt x="372" y="694" on="1"/>
        <pt x="372" y="701" on="1"/>
        <pt x="372" y="709" on="0"/>
        <pt x="382" y="722" on="0"/>
        <pt x="395" y="722" on="1"/>
        <pt x="408" y="722" on="0"/>
        <pt x="418" y="709" on="0"/>
        <pt x="418" y="701" on="1"/>
        <pt x="418" y="694" on="1"/>
        <pt x="418" y="686" on="0"/>
        <pt x="408" y="673" on="0"/>
      </contour>
    </TTGlyph>
    <TTGlyph name="five" xMin="84" yMin="-12" xMax="505" yMax="698">
      <contour>
        <pt x="481" y="678" on="1"/>
        <pt x="158" y="678" on="1"/>
        <pt x="134" y="344" on="1"/>
        <pt x="137" y="343" on="1"/>
        <pt x="167" y="382" on="0"/>
        <pt x="247" y="413" on="0"/>
        <pt x="304" y="413" on="1"/>
        <pt x="400" y="413" on="0"/>
        <pt x="505" y="302" on="0"/>
        <pt x="505" y="203" on="1"/>
        <pt x="505" y="153" on="0"/>
        <pt x="476" y="73" on="0"/>
        <pt x="422" y="18" on="0"/>
        <pt x="345" y="-12" on="0"/>
        <pt x="297" y="-12" on="1"/>
        <pt x="224" y="-12" on="0"/>
        <pt x="119" y="40" on="0"/>
        <pt x="84" y="95" on="1"/>
        <pt x="102" y="106" on="1"/>
        <pt x="134" y="55" on="0"/>
        <pt x="229" y="8" on="0"/>
        <pt x="297" y="8" on="1"/>
        <pt x="341" y="8" on="0"/>
        <pt x="409" y="35" on="0"/>
        <pt x="456" y="83" on="0"/>
        <pt x="481" y="149" on="0"/>
        <pt x="481" y="188" on="1"/>
        <pt x="481" y="216" on="1"/>
        <pt x="481" y="295" on="0"/>
        <pt x="391" y="393" on="0"/>
        <pt x="304" y="393" on="1"/>
        <pt x="272" y="393" on="0"/>
        <pt x="223" y="385" on="0"/>
        <pt x="184" y="367" on="0"/>
        <pt x="152" y="341" on="0"/>
        <pt x="137" y="323" on="1"/>
        <pt x="114" y="326" on="1"/>
        <pt x="140" y="698" on="1"/>
        <pt x="481" y="698" on="1"/>
      </contour>
    </TTGlyph>
    <TTGlyph name="five.loclIWR" xMin="97" yMin="-12" xMax="493" yMax="596">
      <contour>
        <pt x="167" y="577" on="1"/>
        <pt x="145" y="294" on="1"/>
        <pt x="148" y="293" on="1"/>
        <pt x="176" y="327" on="0"/>
        <pt x="250" y="354" on="0"/>
        <pt x="304" y="354" on="1"/>
        <pt x="393" y="354" on="0"/>
        <pt x="493" y="259" on="0"/>
        <pt x="493" y="173" on="1"/>
        <pt x="493" y="87" on="0"/>
        <pt x="388" y="-12" on="0"/>
        <pt x="297" y="-12" on="1"/>
        <pt x="160" y="-12" on="0"/>
        <pt x="97" y="81" on="1"/>
        <pt x="115" y="92" on="1"/>
        <pt x="145" y="47" on="0"/>
        <pt x="234" y="7" on="0"/>
        <pt x="297" y="7" on="1"/>
        <pt x="380" y="7" on="0"/>
        <pt x="470" y="93" on="0"/>
        <pt x="470" y="160" on="1"/>
        <pt x="470" y="184" on="1"/>
        <pt x="470" y="252" on="0"/>
        <pt x="385" y="335" on="0"/>
        <pt x="304" y="335" on="1"/>
        <pt x="244" y="335" on="0"/>
        <pt x="176" y="306" on="0"/>
        <pt x="147" y="275" on="1"/>
        <pt x="125" y="278" on="1"/>
        <pt x="150" y="596" on="1"/>
        <pt x="471" y="596" on="1"/>
        <pt x="471" y="577" on="1"/>
      </contour>
    </TTGlyph>
    <TTGlyph name="fl" xMin="30" yMin="0" xMax="496" yMax="740">
      <component glyphName="f" x="0" y="0" flags="0x4"/>
      <component glyphName="l" x="285" y="0" flags="0x4"/>
    </TTGlyph>
    <TTGlyph name="florin" xMin="-3" yMin="-134" xMax="464" yMax="698">
      <contour>
        <pt x="-1" y="-115" on="1"/>
        <pt x="177" y="-115" on="1"/>
        <pt x="219" y="311" on="1"/>
        <pt x="46" y="311" on="1"/>
        <pt x="48" y="330" on="1"/>
        <pt x="221" y="330" on="1"/>
        <pt x="255" y="669" on="1"/>
        <pt x="258" y="698" on="0"/>
        <pt x="288" y="698" on="1"/>
        <pt x="464" y="698" on="1"/>
        <pt x="462" y="679" on="1"/>
        <pt x="277" y="679" on="1"/>
        <pt x="242" y="330" on="1"/>
        <pt x="452" y="330" on="1"/>
        <pt x="450" y="311" on="1"/>
        <pt x="240" y="311" on="1"/>
        <pt x="199" y="-105" on="1"/>
        <pt x="196" y="-134" on="0"/>
        <pt x="165" y="-134" on="1"/>
        <pt x="-3" y="-134" on="1"/>
      </contour>
    </TTGlyph>
    <TTGlyph name="four" xMin="47" yMin="0" xMax="550" yMax="698">
      <contour>
        <pt x="412" y="0" on="1"/>
        <pt x="412" y="160" on="1"/>
        <pt x="47" y="160" on="1"/>
        <pt x="47" y="181" on="1"/>
        <pt x="407" y="698" on="1"/>
        <pt x="432" y="698" on="1"/>
        <pt x="432" y="179" on="1"/>
        <pt x="550" y="179" on="1"/>
        <pt x="550" y="160" on="1"/>
        <pt x="432" y="160" on="1"/>
        <pt x="432" y="0" on="1"/>
      </contour>
      <contour>
        <pt x="69" y="179" on="1"/>
        <pt x="412" y="179" on="1"/>
        <pt x="412" y="670" on="1"/>
        <pt x="410" y="670" on="1"/>
      </contour>
    </TTGlyph>
    <TTGlyph name="four.loclIWR" xMin="63" yMin="0" xMax="534" yMax="596">
      <contour>
        <pt x="404" y="139" on="1"/>
        <pt x="63" y="139" on="1"/>
        <pt x="63" y="159" on="1"/>
        <pt x="398" y="596" on="1"/>
        <pt x="423" y="596" on="1"/>
        <pt x="423" y="157" on="1"/>
        <pt x="534" y="157" on="1"/>
        <pt x="534" y="139" on="1"/>
        <pt x="423" y="139" on="1"/>
        <pt x="423" y="0" on="1"/>
        <pt x="404" y="0" on="1"/>
      </contour>
      <contour>
        <pt x="404" y="157" on="1"/>
        <pt x="404" y="570" on="1"/>
        <pt x="402" y="570" on="1"/>
        <pt x="85" y="157" on="1"/>
      </contour>
    </TTGlyph>
    <TTGlyph name="fraction" xMin="-160" yMin="0" xMax="309" yMax="698">
      <contour>
        <pt x="-160" y="0" on="1"/>
        <pt x="287" y="698" on="1"/>
        <pt x="309" y="698" on="1"/>
        <pt x="-138" y="0" on="1"/>
      </contour>
    </TTGlyph>
    <TTGlyph name="g" xMin="50" yMin="-212" xMax="504" yMax="561">
      <contour>
        <pt x="501" y="-65" on="1"/>
        <pt x="501" y="-141" on="0"/>
        <pt x="377" y="-212" on="0"/>
        <pt x="262" y="-212" on="1"/>
        <pt x="150" y="-212" on="0"/>
        <pt x="50" y="-141" on="0"/>
        <pt x="50" y="-82" on="1"/>
        <pt x="50" y="-37" on="0"/>
        <pt x="102" y="23" on="0"/>
        <pt x="149" y="38" on="1"/>
        <pt x="149" y="41" on="1"/>
        <pt x="121" y="49" on="0"/>
        <pt x="96" y="84" on="0"/>
        <pt x="96" y="108" on="1"/>
        <pt x="96" y="143" on="0"/>
        <pt x="148" y="184" on="0"/>
        <pt x="181" y="194" on="1"/>
        <pt x="181" y="197" on="1"/>
        <pt x="138" y="216" on="0"/>
        <pt x="90" y="292" on="0"/>
        <pt x="90" y="349" on="1"/>
        <pt x="90" y="426" on="0"/>
        <pt x="182" y="518" on="0"/>
        <pt x="263" y="518" on="1"/>
        <pt x="297" y="518" on="0"/>
        <pt x="352" y="501" on="0"/>
        <pt x="374" y="485" on="1"/>
        <pt x="374" y="534" on="1"/>
        <pt x="374" y="561" on="0"/>
        <pt x="401" y="561" on="1"/>
        <pt x="504" y="561" on="1"/>
        <pt x="504" y="542" on="1"/>
        <pt x="393" y="542" on="1"/>
        <pt x="393" y="468" on="1"/>
        <pt x="436" y="423" on="0"/>
        <pt x="436" y="349" on="1"/>
        <pt x="436" y="311" on="0"/>
        <pt x="411" y="248" on="0"/>
        <pt x="365" y="204" on="0"/>
        <pt x="302" y="180" on="0"/>
        <pt x="263" y="180" on="1"/>
        <pt x="248" y="180" on="0"/>
        <pt x="222" y="184" on="0"/>
        <pt x="207" y="187" on="1"/>
        <pt x="116" y="163" on="0"/>
        <pt x="116" y="109" on="1"/>
        <pt x="116" y="98" on="0"/>
        <pt x="123" y="78" on="0"/>
        <pt x="143" y="63" on="0"/>
        <pt x="177" y="53" on="0"/>
        <pt x="203" y="53" on="1"/>
        <pt x="338" y="53" on="1"/>
        <pt x="425" y="53" on="0"/>
        <pt x="501" y="-11" on="0"/>
      </contour>
      <contour>
        <pt x="479" y="-65" on="1"/>
        <pt x="479" y="-19" on="0"/>
        <pt x="416" y="33" on="0"/>
        <pt x="335" y="33" on="1"/>
        <pt x="180" y="33" on="1"/>
        <pt x="132" y="21" on="0"/>
        <pt x="72" y="-35" on="0"/>
        <pt x="72" y="-83" on="1"/>
        <pt x="72" y="-133" on="0"/>
        <pt x="161" y="-193" on="0"/>
        <pt x="238" y="-193" on="1"/>
        <pt x="287" y="-193" on="1"/>
        <pt x="329" y="-193" on="0"/>
        <pt x="400" y="-178" on="0"/>
        <pt x="451" y="-147" on="0"/>
        <pt x="479" y="-98" on="0"/>
      </contour>
      <contour>
        <pt x="263" y="199" on="1"/>
        <pt x="335" y="199" on="0"/>
        <pt x="412" y="274" on="0"/>
        <pt x="412" y="330" on="1"/>
        <pt x="412" y="368" on="1"/>
        <pt x="412" y="424" on="0"/>
        <pt x="335" y="499" on="0"/>
        <pt x="263" y="499" on="1"/>
        <pt x="191" y="499" on="0"/>
        <pt x="114" y="424" on="0"/>
        <pt x="114" y="368" on="1"/>
        <pt x="114" y="330" on="1"/>
        <pt x="114" y="302" on="0"/>
        <pt x="134" y="254" on="0"/>
        <pt x="173" y="219" on="0"/>
        <pt x="228" y="199" on="0"/>
      </contour>
    </TTGlyph>
    <TTGlyph name="g.alt01" xMin="60" yMin="-212" xMax="460" yMax="518">
      <contour>
        <pt x="460" y="-10" on="1"/>
        <pt x="460" y="-108" on="0"/>
        <pt x="362" y="-212" on="0"/>
        <pt x="264" y="-212" on="1"/>
        <pt x="200" y="-212" on="0"/>
        <pt x="119" y="-178" on="0"/>
        <pt x="88" y="-146" on="1"/>
        <pt x="102" y="-130" on="1"/>
        <pt x="116" y="-145" on="0"/>
        <pt x="147" y="-168" on="0"/>
        <pt x="185" y="-185" on="0"/>
        <pt x="232" y="-193" on="0"/>
        <pt x="262" y="-193" on="1"/>
        <pt x="350" y="-193" on="0"/>
        <pt x="439" y="-103" on="0"/>
        <pt x="439" y="-12" on="1"/>
        <pt x="439" y="78" on="1"/>
        <pt x="436" y="78" on="1"/>
        <pt x="428" y="61" on="0"/>
        <pt x="400" y="29" on="0"/>
        <pt x="359" y="4" on="0"/>
        <pt x="305" y="-12" on="0"/>
        <pt x="272" y="-12" on="1"/>
        <pt x="172" y="-12" on="0"/>
        <pt x="60" y="120" on="0"/>
        <pt x="60" y="253" on="1"/>
        <pt x="60" y="386" on="0"/>
        <pt x="172" y="518" on="0"/>
        <pt x="272" y="518" on="1"/>
        <pt x="305" y="518" on="0"/>
        <pt x="359" y="502" on="0"/>
        <pt x="400" y="477" on="0"/>
        <pt x="428" y="444" on="0"/>
        <pt x="436" y="428" on="1"/>
        <pt x="439" y="428" on="1"/>
        <pt x="439" y="506" on="1"/>
        <pt x="460" y="506" on="1"/>
      </contour>
      <contour>
        <pt x="272" y="7" on="1"/>
        <pt x="305" y="7" on="0"/>
        <pt x="365" y="27" on="0"/>
        <pt x="412" y="63" on="0"/>
        <pt x="439" y="113" on="0"/>
        <pt x="439" y="143" on="1"/>
        <pt x="439" y="363" on="1"/>
        <pt x="439" y="393" on="0"/>
        <pt x="412" y="443" on="0"/>
        <pt x="365" y="479" on="0"/>
        <pt x="305" y="499" on="0"/>
        <pt x="272" y="499" on="1"/>
        <pt x="181" y="499" on="0"/>
        <pt x="83" y="380" on="0"/>
        <pt x="83" y="277" on="1"/>
        <pt x="83" y="229" on="1"/>
        <pt x="83" y="126" on="0"/>
        <pt x="181" y="7" on="0"/>
      </contour>
    </TTGlyph>
    <TTGlyph name="g.alt02" xMin="50" yMin="-212" xMax="501" yMax="518">
      <contour>
        <pt x="501" y="-65" on="1"/>
        <pt x="501" y="-141" on="0"/>
        <pt x="377" y="-212" on="0"/>
        <pt x="262" y="-212" on="1"/>
        <pt x="150" y="-212" on="0"/>
        <pt x="50" y="-141" on="0"/>
        <pt x="50" y="-82" on="1"/>
        <pt x="50" y="-37" on="0"/>
        <pt x="102" y="23" on="0"/>
        <pt x="149" y="38" on="1"/>
        <pt x="149" y="41" on="1"/>
        <pt x="121" y="49" on="0"/>
        <pt x="96" y="84" on="0"/>
        <pt x="96" y="108" on="1"/>
        <pt x="96" y="143" on="0"/>
        <pt x="148" y="184" on="0"/>
        <pt x="181" y="194" on="1"/>
        <pt x="181" y="197" on="1"/>
        <pt x="138" y="216" on="0"/>
        <pt x="90" y="292" on="0"/>
        <pt x="90" y="349" on="1"/>
        <pt x="90" y="426" on="0"/>
        <pt x="182" y="518" on="0"/>
        <pt x="263" y="518" on="1"/>
        <pt x="303" y="518" on="0"/>
        <pt x="335" y="506" on="1"/>
        <pt x="501" y="506" on="1"/>
        <pt x="501" y="487" on="1"/>
        <pt x="371" y="487" on="1"/>
        <pt x="402" y="466" on="0"/>
        <pt x="436" y="395" on="0"/>
        <pt x="436" y="349" on="1"/>
        <pt x="436" y="311" on="0"/>
        <pt x="411" y="248" on="0"/>
        <pt x="365" y="204" on="0"/>
        <pt x="302" y="180" on="0"/>
        <pt x="263" y="180" on="1"/>
        <pt x="248" y="180" on="0"/>
        <pt x="222" y="184" on="0"/>
        <pt x="207" y="187" on="1"/>
        <pt x="116" y="163" on="0"/>
        <pt x="116" y="109" on="1"/>
        <pt x="116" y="98" on="0"/>
        <pt x="123" y="78" on="0"/>
        <pt x="143" y="63" on="0"/>
        <pt x="177" y="53" on="0"/>
        <pt x="203" y="53" on="1"/>
        <pt x="338" y="53" on="1"/>
        <pt x="425" y="53" on="0"/>
        <pt x="501" y="-11" on="0"/>
      </contour>
      <contour>
        <pt x="263" y="199" on="1"/>
        <pt x="335" y="199" on="0"/>
        <pt x="412" y="274" on="0"/>
        <pt x="412" y="330" on="1"/>
        <pt x="412" y="368" on="1"/>
        <pt x="412" y="424" on="0"/>
        <pt x="335" y="499" on="0"/>
        <pt x="263" y="499" on="1"/>
        <pt x="191" y="499" on="0"/>
        <pt x="114" y="424" on="0"/>
        <pt x="114" y="368" on="1"/>
        <pt x="114" y="330" on="1"/>
        <pt x="114" y="302" on="0"/>
        <pt x="134" y="254" on="0"/>
        <pt x="173" y="219" on="0"/>
        <pt x="228" y="199" on="0"/>
      </contour>
      <contour>
        <pt x="479" y="-65" on="1"/>
        <pt x="479" y="-19" on="0"/>
        <pt x="416" y="33" on="0"/>
        <pt x="335" y="33" on="1"/>
        <pt x="180" y="33" on="1"/>
        <pt x="132" y="21" on="0"/>
        <pt x="72" y="-35" on="0"/>
        <pt x="72" y="-83" on="1"/>
        <pt x="72" y="-133" on="0"/>
        <pt x="161" y="-193" on="0"/>
        <pt x="238" y="-193" on="1"/>
        <pt x="287" y="-193" on="1"/>
        <pt x="329" y="-193" on="0"/>
        <pt x="400" y="-178" on="0"/>
        <pt x="451" y="-147" on="0"/>
        <pt x="479" y="-98" on="0"/>
      </contour>
    </TTGlyph>
    <TTGlyph name="germandbls" xMin="40" yMin="-12" xMax="596" yMax="752">
      <contour>
        <pt x="596" y="125" on="1"/>
        <pt x="596" y="59" on="0"/>
        <pt x="509" y="-12" on="0"/>
        <pt x="434" y="-12" on="1"/>
        <pt x="371" y="-12" on="0"/>
        <pt x="277" y="30" on="0"/>
        <pt x="242" y="81" on="1"/>
        <pt x="260" y="93" on="1"/>
        <pt x="295" y="45" on="0"/>
        <pt x="376" y="7" on="0"/>
        <pt x="434" y="7" on="1"/>
        <pt x="503" y="7" on="0"/>
        <pt x="575" y="67" on="0"/>
        <pt x="575" y="124" on="1"/>
        <pt x="575" y="179" on="0"/>
        <pt x="520" y="228" on="0"/>
        <pt x="467" y="241" on="1"/>
        <pt x="423" y="252" on="1"/>
        <pt x="394" y="259" on="0"/>
        <pt x="349" y="277" on="0"/>
        <pt x="316" y="306" on="0"/>
        <pt x="299" y="347" on="0"/>
        <pt x="299" y="377" on="1"/>
        <pt x="299" y="411" on="0"/>
        <pt x="329" y="459" on="0"/>
        <pt x="383" y="491" on="0"/>
        <pt x="459" y="506" on="0"/>
        <pt x="504" y="506" on="1"/>
        <pt x="504" y="521" on="1"/>
        <pt x="504" y="621" on="0"/>
        <pt x="414" y="733" on="0"/>
        <pt x="329" y="733" on="1"/>
        <pt x="244" y="733" on="0"/>
        <pt x="154" y="621" on="0"/>
        <pt x="154" y="521" on="1"/>
        <pt x="154" y="0" on="1"/>
        <pt x="133" y="0" on="1"/>
        <pt x="133" y="487" on="1"/>
        <pt x="40" y="487" on="1"/>
        <pt x="40" y="506" on="1"/>
        <pt x="133" y="506" on="1"/>
        <pt x="133" y="521" on="1"/>
        <pt x="133" y="573" on="0"/>
        <pt x="159" y="659" on="0"/>
        <pt x="209" y="719" on="0"/>
        <pt x="282" y="752" on="0"/>
        <pt x="329" y="752" on="1"/>
        <pt x="376" y="752" on="0"/>
        <pt x="449" y="719" on="0"/>
        <pt x="499" y="659" on="0"/>
        <pt x="525" y="573" on="0"/>
        <pt x="525" y="521" on="1"/>
        <pt x="525" y="488" on="1"/>
        <pt x="507" y="488" on="1"/>
        <pt x="467" y="488" on="0"/>
        <pt x="398" y="475" on="0"/>
        <pt x="348" y="448" on="0"/>
        <pt x="320" y="407" on="0"/>
        <pt x="320" y="378" on="1"/>
        <pt x="320" y="328" on="0"/>
        <pt x="373" y="285" on="0"/>
        <pt x="427" y="272" on="1"/>
        <pt x="471" y="261" on="1"/>
        <pt x="499" y="254" on="0"/>
        <pt x="545" y="234" on="0"/>
        <pt x="578" y="202" on="0"/>
        <pt x="596" y="157" on="0"/>
      </contour>
    </TTGlyph>
    <TTGlyph name="germandbls.alt01" xMin="105" yMin="-200" xMax="511" yMax="740">
      <contour>
        <pt x="105" y="0" on="1"/>
        <pt x="105" y="711" on="1"/>
        <pt x="105" y="740" on="0"/>
        <pt x="134" y="740" on="1"/>
        <pt x="307" y="740" on="1"/>
        <pt x="307" y="721" on="1"/>
        <pt x="126" y="721" on="1"/>
        <pt x="126" y="506" on="1"/>
        <pt x="484" y="506" on="1"/>
        <pt x="484" y="486" on="1"/>
        <pt x="261" y="198" on="1"/>
        <pt x="390" y="198" on="0"/>
        <pt x="511" y="104" on="0"/>
        <pt x="511" y="2" on="1"/>
        <pt x="511" y="-107" on="0"/>
        <pt x="386" y="-200" on="0"/>
        <pt x="263" y="-200" on="1"/>
        <pt x="229" y="-200" on="1"/>
        <pt x="229" y="-181" on="1"/>
        <pt x="265" y="-181" on="1"/>
        <pt x="368" y="-181" on="0"/>
        <pt x="488" y="-106" on="0"/>
        <pt x="488" y="-17" on="1"/>
        <pt x="488" y="18" on="1"/>
        <pt x="488" y="179" on="0"/>
        <pt x="265" y="179" on="1"/>
        <pt x="239" y="179" on="1"/>
        <pt x="239" y="199" on="1"/>
        <pt x="461" y="487" on="1"/>
        <pt x="126" y="487" on="1"/>
        <pt x="126" y="0" on="1"/>
      </contour>
    </TTGlyph>
    <TTGlyph name="grave" xMin="202" yMin="587" xMax="332" yMax="751">
      <contour>
        <pt x="202" y="739" on="1"/>
        <pt x="221" y="751" on="1"/>
        <pt x="332" y="597" on="1"/>
        <pt x="317" y="587" on="1"/>
      </contour>
    </TTGlyph>
    <TTGlyph name="grave.case" xMin="202" yMin="767" xMax="332" yMax="931">
      <contour>
        <pt x="202" y="919" on="1"/>
        <pt x="221" y="931" on="1"/>
        <pt x="332" y="777" on="1"/>
        <pt x="317" y="767" on="1"/>
      </contour>
    </TTGlyph>
    <TTGlyph name="greater" xMin="85" yMin="38" xMax="515" yMax="572">
      <contour>
        <pt x="85" y="61" on="1"/>
        <pt x="492" y="304" on="1"/>
        <pt x="492" y="306" on="1"/>
        <pt x="85" y="549" on="1"/>
        <pt x="85" y="572" on="1"/>
        <pt x="515" y="314" on="1"/>
        <pt x="515" y="296" on="1"/>
        <pt x="85" y="38" on="1"/>
      </contour>
    </TTGlyph>
    <TTGlyph name="greaterequal" xMin="85" yMin="0" xMax="515" yMax="592">
      <contour>
        <pt x="85" y="120" on="1"/>
        <pt x="493" y="344" on="1"/>
        <pt x="493" y="346" on="1"/>
        <pt x="85" y="570" on="1"/>
        <pt x="85" y="592" on="1"/>
        <pt x="515" y="354" on="1"/>
        <pt x="515" y="336" on="1"/>
        <pt x="85" y="98" on="1"/>
      </contour>
      <contour>
        <pt x="85" y="19" on="1"/>
        <pt x="515" y="19" on="1"/>
        <pt x="515" y="0" on="1"/>
        <pt x="85" y="0" on="1"/>
      </contour>
    </TTGlyph>
    <TTGlyph name="guillemotleft" xMin="34" yMin="106" xMax="421" yMax="482">
      <component glyphName="guilsinglleft" x="0" y="0" flags="0x4"/>
      <component glyphName="guilsinglleft" x="180" y="0" flags="0x4"/>
    </TTGlyph>
    <TTGlyph name="guillemotright" xMin="51" yMin="106" xMax="438" yMax="482">
      <component glyphName="guilsinglright" x="0" y="0" flags="0x4"/>
      <component glyphName="guilsinglright" x="180" y="0" flags="0x4"/>
    </TTGlyph>
    <TTGlyph name="guilsinglleft" xMin="34" yMin="106" xMax="241" yMax="482">
      <contour>
        <pt x="232" y="106" on="1"/>
        <pt x="34" y="284" on="1"/>
        <pt x="34" y="304" on="1"/>
        <pt x="232" y="482" on="1"/>
        <pt x="241" y="467" on="1"/>
        <pt x="57" y="294" on="1"/>
        <pt x="241" y="121" on="1"/>
      </contour>
    </TTGlyph>
    <TTGlyph name="guilsinglright" xMin="51" yMin="106" xMax="258" yMax="482">
      <contour>
        <pt x="51" y="121" on="1"/>
        <pt x="235" y="294" on="1"/>
        <pt x="51" y="467" on="1"/>
        <pt x="60" y="482" on="1"/>
        <pt x="258" y="304" on="1"/>
        <pt x="258" y="284" on="1"/>
        <pt x="60" y="106" on="1"/>
      </contour>
    </TTGlyph>
    <TTGlyph name="h" xMin="105" yMin="0" xMax="461" yMax="740">
      <contour>
        <pt x="105" y="740" on="1"/>
        <pt x="126" y="740" on="1"/>
        <pt x="126" y="430" on="1"/>
        <pt x="129" y="430" on="1"/>
        <pt x="142" y="464" on="0"/>
        <pt x="219" y="518" on="0"/>
        <pt x="287" y="518" on="1"/>
        <pt x="372" y="518" on="0"/>
        <pt x="461" y="420" on="0"/>
        <pt x="461" y="325" on="1"/>
        <pt x="461" y="0" on="1"/>
        <pt x="440" y="0" on="1"/>
        <pt x="440" y="321" on="1"/>
        <pt x="440" y="414" on="0"/>
        <pt x="360" y="499" on="0"/>
        <pt x="285" y="499" on="1"/>
        <pt x="254" y="499" on="0"/>
        <pt x="196" y="482" on="0"/>
        <pt x="152" y="448" on="0"/>
        <pt x="126" y="396" on="0"/>
        <pt x="126" y="362" on="1"/>
        <pt x="126" y="0" on="1"/>
        <pt x="105" y="0" on="1"/>
      </contour>
    </TTGlyph>
    <TTGlyph name="hungarumlaut" xMin="205" yMin="587" xMax="495" yMax="751">
      <contour>
        <pt x="220" y="587" on="1"/>
        <pt x="205" y="597" on="1"/>
        <pt x="316" y="751" on="1"/>
        <pt x="335" y="739" on="1"/>
      </contour>
      <contour>
        <pt x="380" y="587" on="1"/>
        <pt x="365" y="597" on="1"/>
        <pt x="476" y="751" on="1"/>
        <pt x="495" y="739" on="1"/>
      </contour>
    </TTGlyph>
    <TTGlyph name="hyphen" xMin="83" yMin="295" xMax="312" yMax="315">
      <contour>
        <pt x="83" y="295" on="1"/>
        <pt x="83" y="315" on="1"/>
        <pt x="312" y="315" on="1"/>
        <pt x="312" y="295" on="1"/>
      </contour>
    </TTGlyph>
    <TTGlyph name="i" xMin="92" yMin="0" xMax="138" yMax="722">
      <contour>
        <pt x="115" y="673" on="1"/>
        <pt x="102" y="673" on="0"/>
        <pt x="92" y="686" on="0"/>
        <pt x="92" y="694" on="1"/>
        <pt x="92" y="701" on="1"/>
        <pt x="92" y="709" on="0"/>
        <pt x="102" y="722" on="0"/>
        <pt x="115" y="722" on="1"/>
        <pt x="128" y="722" on="0"/>
        <pt x="138" y="709" on="0"/>
        <pt x="138" y="701" on="1"/>
        <pt x="138" y="694" on="1"/>
        <pt x="138" y="686" on="0"/>
        <pt x="128" y="673" on="0"/>
      </contour>
      <contour>
        <pt x="105" y="506" on="1"/>
        <pt x="126" y="506" on="1"/>
        <pt x="126" y="0" on="1"/>
        <pt x="105" y="0" on="1"/>
      </contour>
    </TTGlyph>
    <TTGlyph name="iacute" xMin="83" yMin="0" xMax="213" yMax="751">
      <component glyphName="dotlessi" x="0" y="0" flags="0x204"/>
      <component glyphName="acute" x="-184" y="0" flags="0x4"/>
    </TTGlyph>
    <TTGlyph name="icircumflex" xMin="-24" yMin="0" xMax="256" yMax="743">
      <component glyphName="dotlessi" x="0" y="0" flags="0x204"/>
      <component glyphName="circumflex" x="-184" y="0" flags="0x4"/>
    </TTGlyph>
    <TTGlyph name="idieresis" xMin="2" yMin="0" xMax="230" yMax="691">
      <component glyphName="dotlessi" x="0" y="0" flags="0x204"/>
      <component glyphName="dieresis" x="-184" y="0" flags="0x4"/>
    </TTGlyph>
    <TTGlyph name="igrave" xMin="18" yMin="0" xMax="148" yMax="751">
      <component glyphName="dotlessi" x="0" y="0" flags="0x204"/>
      <component glyphName="grave" x="-184" y="0" flags="0x4"/>
    </TTGlyph>
    <TTGlyph name="ij" xMin="92" yMin="-200" xMax="369" yMax="722">
      <component glyphName="i" x="0" y="0" flags="0x4"/>
      <component glyphName="j" x="231" y="0" flags="0x4"/>
    </TTGlyph>
    <TTGlyph name="infinity" xMin="28" yMin="126" xMax="704" yMax="484">
      <contour>
        <pt x="191" y="126" on="1"/>
        <pt x="110" y="126" on="0"/>
        <pt x="28" y="220" on="0"/>
        <pt x="28" y="305" on="1"/>
        <pt x="28" y="390" on="0"/>
        <pt x="110" y="484" on="0"/>
        <pt x="191" y="484" on="1"/>
        <pt x="221" y="484" on="0"/>
        <pt x="277" y="462" on="0"/>
        <pt x="324" y="422" on="0"/>
        <pt x="358" y="364" on="0"/>
        <pt x="367" y="328" on="1"/>
        <pt x="370" y="328" on="1"/>
        <pt x="379" y="364" on="0"/>
        <pt x="412" y="422" on="0"/>
        <pt x="457" y="462" on="0"/>
        <pt x="512" y="484" on="0"/>
        <pt x="541" y="484" on="1"/>
        <pt x="622" y="484" on="0"/>
        <pt x="704" y="390" on="0"/>
        <pt x="704" y="305" on="1"/>
        <pt x="704" y="220" on="0"/>
        <pt x="622" y="126" on="0"/>
        <pt x="541" y="126" on="1"/>
        <pt x="511" y="126" on="0"/>
        <pt x="454" y="148" on="0"/>
        <pt x="408" y="188" on="0"/>
        <pt x="374" y="246" on="0"/>
        <pt x="365" y="282" on="1"/>
        <pt x="362" y="282" on="1"/>
        <pt x="353" y="246" on="0"/>
        <pt x="320" y="188" on="0"/>
        <pt x="275" y="148" on="0"/>
        <pt x="220" y="126" on="0"/>
      </contour>
      <contour>
        <pt x="189" y="145" on="1"/>
        <pt x="242" y="145" on="0"/>
        <pt x="332" y="225" on="0"/>
        <pt x="355" y="305" on="1"/>
        <pt x="332" y="390" on="0"/>
        <pt x="242" y="465" on="0"/>
        <pt x="189" y="465" on="1"/>
        <pt x="129" y="465" on="0"/>
        <pt x="50" y="392" on="0"/>
        <pt x="50" y="323" on="1"/>
        <pt x="50" y="287" on="1"/>
        <pt x="50" y="218" on="0"/>
        <pt x="129" y="145" on="0"/>
      </contour>
      <contour>
        <pt x="543" y="145" on="1"/>
        <pt x="603" y="145" on="0"/>
        <pt x="682" y="218" on="0"/>
        <pt x="682" y="287" on="1"/>
        <pt x="682" y="323" on="1"/>
        <pt x="682" y="392" on="0"/>
        <pt x="603" y="465" on="0"/>
        <pt x="543" y="465" on="1"/>
        <pt x="490" y="465" on="0"/>
        <pt x="400" y="385" on="0"/>
        <pt x="377" y="305" on="1"/>
        <pt x="400" y="220" on="0"/>
        <pt x="490" y="145" on="0"/>
      </contour>
    </TTGlyph>
    <TTGlyph name="integral" xMin="50" yMin="-200" xMax="305" yMax="740">
      <contour>
        <pt x="50" y="-181" on="1"/>
        <pt x="167" y="-181" on="1"/>
        <pt x="167" y="711" on="1"/>
        <pt x="167" y="740" on="0"/>
        <pt x="196" y="740" on="1"/>
        <pt x="305" y="740" on="1"/>
        <pt x="305" y="721" on="1"/>
        <pt x="188" y="721" on="1"/>
        <pt x="188" y="-171" on="1"/>
        <pt x="188" y="-200" on="0"/>
        <pt x="158" y="-200" on="1"/>
        <pt x="50" y="-200" on="1"/>
      </contour>
    </TTGlyph>
    <TTGlyph name="j" xMin="20" yMin="-200" xMax="138" yMax="722">
      <contour>
        <pt x="105" y="506" on="1"/>
        <pt x="126" y="506" on="1"/>
        <pt x="126" y="-171" on="1"/>
        <pt x="126" y="-200" on="0"/>
        <pt x="97" y="-200" on="1"/>
        <pt x="20" y="-200" on="1"/>
        <pt x="20" y="-181" on="1"/>
        <pt x="105" y="-181" on="1"/>
      </contour>
      <contour>
        <pt x="115" y="673" on="1"/>
        <pt x="102" y="673" on="0"/>
        <pt x="92" y="686" on="0"/>
        <pt x="92" y="694" on="1"/>
        <pt x="92" y="701" on="1"/>
        <pt x="92" y="709" on="0"/>
        <pt x="102" y="722" on="0"/>
        <pt x="115" y="722" on="1"/>
        <pt x="128" y="722" on="0"/>
        <pt x="138" y="709" on="0"/>
        <pt x="138" y="701" on="1"/>
        <pt x="138" y="694" on="1"/>
        <pt x="138" y="686" on="0"/>
        <pt x="128" y="673" on="0"/>
      </contour>
    </TTGlyph>
    <TTGlyph name="jacute" xMin="20" yMin="-200" xMax="213" yMax="751">
      <component glyphName="uni0237" x="0" y="0" flags="0x204"/>
      <component glyphName="acute" x="-184" y="0" flags="0x4"/>
    </TTGlyph>
    <TTGlyph name="jcircumflex" xMin="-24" yMin="-200" xMax="256" yMax="743">
      <component glyphName="uni0237" x="0" y="0" flags="0x204"/>
      <component glyphName="circumflex" x="-184" y="0" flags="0x4"/>
    </TTGlyph>
    <TTGlyph name="k" xMin="105" yMin="0" xMax="471" yMax="740">
      <contour>
        <pt x="105" y="740" on="1"/>
        <pt x="126" y="740" on="1"/>
        <pt x="126" y="220" on="1"/>
        <pt x="129" y="220" on="1"/>
        <pt x="209" y="299" on="1"/>
        <pt x="416" y="506" on="1"/>
        <pt x="444" y="506" on="1"/>
        <pt x="229" y="292" on="1"/>
        <pt x="471" y="0" on="1"/>
        <pt x="445" y="0" on="1"/>
        <pt x="214" y="277" on="1"/>
        <pt x="126" y="190" on="1"/>
        <pt x="126" y="0" on="1"/>
        <pt x="105" y="0" on="1"/>
      </contour>
    </TTGlyph>
    <TTGlyph name="l" xMin="105" yMin="0" xMax="211" yMax="740">
      <contour>
        <pt x="134" y="0" on="1"/>
        <pt x="105" y="0" on="0"/>
        <pt x="105" y="29" on="1"/>
        <pt x="105" y="740" on="1"/>
        <pt x="126" y="740" on="1"/>
        <pt x="126" y="19" on="1"/>
        <pt x="211" y="19" on="1"/>
        <pt x="211" y="0" on="1"/>
      </contour>
    </TTGlyph>
    <TTGlyph name="ldot" xMin="105" yMin="0" xMax="274" yMax="740">
      <component glyphName="l" x="0" y="0" flags="0x4"/>
      <component glyphName="dotaccent" x="-49" y="-402" flags="0x4"/>
    </TTGlyph>
    <TTGlyph name="less" xMin="85" yMin="38" xMax="515" yMax="572">
      <contour>
        <pt x="85" y="296" on="1"/>
        <pt x="85" y="314" on="1"/>
        <pt x="515" y="572" on="1"/>
        <pt x="515" y="549" on="1"/>
        <pt x="108" y="306" on="1"/>
        <pt x="108" y="304" on="1"/>
        <pt x="515" y="61" on="1"/>
        <pt x="515" y="38" on="1"/>
      </contour>
    </TTGlyph>
    <TTGlyph name="lessequal" xMin="85" yMin="0" xMax="515" yMax="592">
      <contour>
        <pt x="85" y="0" on="1"/>
        <pt x="85" y="19" on="1"/>
        <pt x="515" y="19" on="1"/>
        <pt x="515" y="0" on="1"/>
      </contour>
      <contour>
        <pt x="515" y="570" on="1"/>
        <pt x="107" y="346" on="1"/>
        <pt x="107" y="344" on="1"/>
        <pt x="515" y="120" on="1"/>
        <pt x="515" y="98" on="1"/>
        <pt x="85" y="336" on="1"/>
        <pt x="85" y="354" on="1"/>
        <pt x="515" y="592" on="1"/>
      </contour>
    </TTGlyph>
    <TTGlyph name="logicalnot" xMin="62" yMin="104" xMax="522" yMax="315">
      <contour>
        <pt x="501" y="104" on="1"/>
        <pt x="501" y="296" on="1"/>
        <pt x="62" y="296" on="1"/>
        <pt x="62" y="315" on="1"/>
        <pt x="522" y="315" on="1"/>
        <pt x="522" y="104" on="1"/>
      </contour>
    </TTGlyph>
    <TTGlyph name="lozenge" xMin="58" yMin="0" xMax="543" yMax="698">
      <contour>
        <pt x="289" y="0" on="1"/>
        <pt x="58" y="349" on="1"/>
        <pt x="289" y="698" on="1"/>
        <pt x="311" y="698" on="1"/>
        <pt x="543" y="349" on="1"/>
        <pt x="311" y="0" on="1"/>
      </contour>
      <contour>
        <pt x="302" y="20" on="1"/>
        <pt x="520" y="349" on="1"/>
        <pt x="302" y="678" on="1"/>
        <pt x="298" y="678" on="1"/>
        <pt x="81" y="349" on="1"/>
        <pt x="298" y="20" on="1"/>
      </contour>
    </TTGlyph>
    <TTGlyph name="lslash" xMin="34" yMin="0" xMax="221" yMax="740">
      <contour>
        <pt x="214" y="0" on="1"/>
        <pt x="137" y="0" on="1"/>
        <pt x="108" y="0" on="0"/>
        <pt x="108" y="29" on="1"/>
        <pt x="108" y="351" on="1"/>
        <pt x="34" y="327" on="1"/>
        <pt x="34" y="347" on="1"/>
        <pt x="108" y="371" on="1"/>
        <pt x="108" y="740" on="1"/>
        <pt x="129" y="740" on="1"/>
        <pt x="129" y="378" on="1"/>
        <pt x="221" y="408" on="1"/>
        <pt x="221" y="388" on="1"/>
        <pt x="129" y="358" on="1"/>
        <pt x="129" y="19" on="1"/>
        <pt x="214" y="19" on="1"/>
      </contour>
    </TTGlyph>
    <TTGlyph name="m" xMin="105" yMin="0" xMax="784" yMax="518">
      <contour>
        <pt x="105" y="0" on="1"/>
        <pt x="105" y="506" on="1"/>
        <pt x="126" y="506" on="1"/>
        <pt x="126" y="430" on="1"/>
        <pt x="129" y="430" on="1"/>
        <pt x="136" y="447" on="0"/>
        <pt x="160" y="479" on="0"/>
        <pt x="198" y="503" on="0"/>
        <pt x="249" y="518" on="0"/>
        <pt x="282" y="518" on="1"/>
        <pt x="344" y="518" on="0"/>
        <pt x="426" y="461" on="0"/>
        <pt x="441" y="406" on="1"/>
        <pt x="445" y="406" on="1"/>
        <pt x="459" y="455" on="0"/>
        <pt x="540" y="518" on="0"/>
        <pt x="611" y="518" on="1"/>
        <pt x="696" y="518" on="0"/>
        <pt x="784" y="420" on="0"/>
        <pt x="784" y="325" on="1"/>
        <pt x="784" y="0" on="1"/>
        <pt x="763" y="0" on="1"/>
        <pt x="763" y="322" on="1"/>
        <pt x="763" y="414" on="0"/>
        <pt x="684" y="499" on="0"/>
        <pt x="609" y="499" on="1"/>
        <pt x="578" y="499" on="0"/>
        <pt x="522" y="482" on="0"/>
        <pt x="480" y="447" on="0"/>
        <pt x="455" y="395" on="0"/>
        <pt x="455" y="360" on="1"/>
        <pt x="455" y="0" on="1"/>
        <pt x="434" y="0" on="1"/>
        <pt x="434" y="322" on="1"/>
        <pt x="434" y="414" on="0"/>
        <pt x="354" y="499" on="0"/>
        <pt x="280" y="499" on="1"/>
        <pt x="250" y="499" on="0"/>
        <pt x="194" y="482" on="0"/>
        <pt x="151" y="448" on="0"/>
        <pt x="126" y="396" on="0"/>
        <pt x="126" y="362" on="1"/>
        <pt x="126" y="0" on="1"/>
      </contour>
    </TTGlyph>
    <TTGlyph name="macron" xMin="171" yMin="658" xMax="429" yMax="676">
      <contour>
        <pt x="171" y="676" on="1"/>
        <pt x="429" y="676" on="1"/>
        <pt x="429" y="658" on="1"/>
        <pt x="171" y="658" on="1"/>
      </contour>
    </TTGlyph>
    <TTGlyph name="macron.case" xMin="171" yMin="838" xMax="429" yMax="856">
      <contour>
        <pt x="171" y="856" on="1"/>
        <pt x="429" y="856" on="1"/>
        <pt x="429" y="838" on="1"/>
        <pt x="171" y="838" on="1"/>
      </contour>
    </TTGlyph>
    <TTGlyph name="minus" xMin="62" yMin="296" xMax="538" yMax="315">
      <contour>
        <pt x="62" y="296" on="1"/>
        <pt x="62" y="315" on="1"/>
        <pt x="538" y="315" on="1"/>
        <pt x="538" y="296" on="1"/>
      </contour>
    </TTGlyph>
    <TTGlyph name="mu" xMin="105" yMin="-200" xMax="461" yMax="506">
      <contour>
        <pt x="105" y="-200" on="1"/>
        <pt x="105" y="506" on="1"/>
        <pt x="126" y="506" on="1"/>
        <pt x="126" y="185" on="1"/>
        <pt x="126" y="92" on="0"/>
        <pt x="206" y="7" on="0"/>
        <pt x="281" y="7" on="1"/>
        <pt x="312" y="7" on="0"/>
        <pt x="370" y="24" on="0"/>
        <pt x="414" y="58" on="0"/>
        <pt x="440" y="109" on="0"/>
        <pt x="440" y="144" on="1"/>
        <pt x="440" y="506" on="1"/>
        <pt x="461" y="506" on="1"/>
        <pt x="461" y="0" on="1"/>
        <pt x="440" y="0" on="1"/>
        <pt x="440" y="76" on="1"/>
        <pt x="437" y="76" on="1"/>
        <pt x="423" y="42" on="0"/>
        <pt x="347" y="-12" on="0"/>
        <pt x="279" y="-12" on="1"/>
        <pt x="163" y="-12" on="0"/>
        <pt x="124" y="79" on="1"/>
        <pt x="121" y="79" on="1"/>
        <pt x="126" y="-44" on="1"/>
        <pt x="126" y="-200" on="1"/>
      </contour>
    </TTGlyph>
    <TTGlyph name="multiply" xMin="105" yMin="110" xMax="495" yMax="500">
      <contour>
        <pt x="300" y="292" on="1"/>
        <pt x="119" y="110" on="1"/>
        <pt x="105" y="123" on="1"/>
        <pt x="287" y="305" on="1"/>
        <pt x="105" y="487" on="1"/>
        <pt x="119" y="500" on="1"/>
        <pt x="300" y="318" on="1"/>
        <pt x="481" y="500" on="1"/>
        <pt x="495" y="487" on="1"/>
        <pt x="313" y="305" on="1"/>
        <pt x="495" y="123" on="1"/>
        <pt x="481" y="110" on="1"/>
      </contour>
    </TTGlyph>
    <TTGlyph name="n" xMin="105" yMin="0" xMax="461" yMax="518">
      <contour>
        <pt x="105" y="0" on="1"/>
        <pt x="105" y="506" on="1"/>
        <pt x="126" y="506" on="1"/>
        <pt x="126" y="430" on="1"/>
        <pt x="129" y="430" on="1"/>
        <pt x="142" y="464" on="0"/>
        <pt x="219" y="518" on="0"/>
        <pt x="287" y="518" on="1"/>
        <pt x="372" y="518" on="0"/>
        <pt x="461" y="420" on="0"/>
        <pt x="461" y="325" on="1"/>
        <pt x="461" y="0" on="1"/>
        <pt x="440" y="0" on="1"/>
        <pt x="440" y="321" on="1"/>
        <pt x="440" y="414" on="0"/>
        <pt x="360" y="499" on="0"/>
        <pt x="285" y="499" on="1"/>
        <pt x="254" y="499" on="0"/>
        <pt x="196" y="482" on="0"/>
        <pt x="152" y="448" on="0"/>
        <pt x="126" y="396" on="0"/>
        <pt x="126" y="362" on="1"/>
        <pt x="126" y="0" on="1"/>
      </contour>
    </TTGlyph>
    <TTGlyph name="nine" xMin="92" yMin="0" xMax="516" yMax="710">
      <contour>
        <pt x="516" y="472" on="1"/>
        <pt x="516" y="387" on="0"/>
        <pt x="474" y="245" on="0"/>
        <pt x="400" y="128" on="0"/>
        <pt x="301" y="36" on="0"/>
        <pt x="243" y="0" on="1"/>
        <pt x="211" y="0" on="1"/>
        <pt x="333" y="76" on="0"/>
        <pt x="469" y="262" on="0"/>
        <pt x="490" y="387" on="1"/>
        <pt x="487" y="388" on="1"/>
        <pt x="461" y="334" on="0"/>
        <pt x="366" y="281" on="0"/>
        <pt x="304" y="281" on="1"/>
        <pt x="256" y="281" on="0"/>
        <pt x="177" y="310" on="0"/>
        <pt x="122" y="365" on="0"/>
        <pt x="92" y="444" on="0"/>
        <pt x="92" y="493" on="1"/>
        <pt x="92" y="542" on="0"/>
        <pt x="122" y="622" on="0"/>
        <pt x="177" y="679" on="0"/>
        <pt x="255" y="710" on="0"/>
        <pt x="303" y="710" on="1"/>
        <pt x="360" y="710" on="0"/>
        <pt x="441" y="673" on="0"/>
        <pt x="492" y="609" on="0"/>
        <pt x="516" y="522" on="0"/>
      </contour>
      <contour>
        <pt x="304" y="301" on="1"/>
        <pt x="349" y="301" on="0"/>
        <pt x="419" y="329" on="0"/>
        <pt x="467" y="377" on="0"/>
        <pt x="492" y="442" on="0"/>
        <pt x="492" y="480" on="1"/>
        <pt x="492" y="508" on="1"/>
        <pt x="492" y="547" on="0"/>
        <pt x="466" y="614" on="0"/>
        <pt x="417" y="662" on="0"/>
        <pt x="347" y="690" on="0"/>
        <pt x="304" y="690" on="1"/>
        <pt x="260" y="690" on="0"/>
        <pt x="190" y="663" on="0"/>
        <pt x="142" y="615" on="0"/>
        <pt x="116" y="549" on="0"/>
        <pt x="116" y="511" on="1"/>
        <pt x="116" y="480" on="1"/>
        <pt x="116" y="442" on="0"/>
        <pt x="142" y="377" on="0"/>
        <pt x="190" y="329" on="0"/>
        <pt x="260" y="301" on="0"/>
      </contour>
    </TTGlyph>
    <TTGlyph name="nine.loclIWR" xMin="100" yMin="0" xMax="500" yMax="608">
      <contour>
        <pt x="299" y="608" on="1"/>
        <pt x="353" y="608" on="0"/>
        <pt x="429" y="576" on="0"/>
        <pt x="477" y="521" on="0"/>
        <pt x="500" y="445" on="0"/>
        <pt x="500" y="402" on="1"/>
        <pt x="500" y="330" on="0"/>
        <pt x="462" y="209" on="0"/>
        <pt x="394" y="109" on="0"/>
        <pt x="303" y="30" on="0"/>
        <pt x="250" y="0" on="1"/>
        <pt x="219" y="0" on="1"/>
        <pt x="330" y="65" on="0"/>
        <pt x="455" y="222" on="0"/>
        <pt x="475" y="328" on="1"/>
        <pt x="472" y="329" on="1"/>
        <pt x="448" y="283" on="0"/>
        <pt x="358" y="238" on="0"/>
        <pt x="300" y="238" on="1"/>
        <pt x="209" y="238" on="0"/>
        <pt x="100" y="335" on="0"/>
        <pt x="100" y="420" on="1"/>
        <pt x="100" y="462" on="0"/>
        <pt x="128" y="532" on="0"/>
        <pt x="180" y="581" on="0"/>
        <pt x="254" y="608" on="0"/>
      </contour>
      <contour>
        <pt x="300" y="589" on="1"/>
        <pt x="258" y="589" on="0"/>
        <pt x="192" y="565" on="0"/>
        <pt x="147" y="523" on="0"/>
        <pt x="124" y="467" on="0"/>
        <pt x="124" y="435" on="1"/>
        <pt x="124" y="411" on="1"/>
        <pt x="124" y="379" on="0"/>
        <pt x="147" y="323" on="0"/>
        <pt x="192" y="281" on="0"/>
        <pt x="258" y="257" on="0"/>
        <pt x="300" y="257" on="1"/>
        <pt x="342" y="257" on="0"/>
        <pt x="407" y="281" on="0"/>
        <pt x="452" y="323" on="0"/>
        <pt x="476" y="379" on="0"/>
        <pt x="476" y="411" on="1"/>
        <pt x="476" y="435" on="1"/>
        <pt x="476" y="467" on="0"/>
        <pt x="452" y="523" on="0"/>
        <pt x="407" y="565" on="0"/>
        <pt x="342" y="589" on="0"/>
      </contour>
    </TTGlyph>
    <TTGlyph name="notequal" xMin="62" yMin="92" xMax="538" yMax="519">
      <contour>
        <pt x="160" y="92" on="1"/>
        <pt x="230" y="207" on="1"/>
        <pt x="62" y="207" on="1"/>
        <pt x="62" y="226" on="1"/>
        <pt x="241" y="226" on="1"/>
        <pt x="338" y="385" on="1"/>
        <pt x="62" y="385" on="1"/>
        <pt x="62" y="404" on="1"/>
        <pt x="349" y="404" on="1"/>
        <pt x="419" y="519" on="1"/>
        <pt x="440" y="519" on="1"/>
        <pt x="370" y="404" on="1"/>
        <pt x="538" y="404" on="1"/>
        <pt x="538" y="385" on="1"/>
        <pt x="359" y="385" on="1"/>
        <pt x="262" y="226" on="1"/>
        <pt x="538" y="226" on="1"/>
        <pt x="538" y="207" on="1"/>
        <pt x="251" y="207" on="1"/>
        <pt x="181" y="92" on="1"/>
      </contour>
    </TTGlyph>
    <TTGlyph name="ntilde" xMin="105" yMin="0" xMax="461" yMax="702">
      <component glyphName="n" x="0" y="0" flags="0x204"/>
      <component glyphName="tilde" x="-15" y="0" flags="0x4"/>
    </TTGlyph>
    <TTGlyph name="numbersign" xMin="70" yMin="0" xMax="642" yMax="698">
      <contour>
        <pt x="427" y="220" on="1"/>
        <pt x="241" y="220" on="1"/>
        <pt x="203" y="0" on="1"/>
        <pt x="182" y="0" on="1"/>
        <pt x="220" y="220" on="1"/>
        <pt x="70" y="220" on="1"/>
        <pt x="70" y="239" on="1"/>
        <pt x="224" y="239" on="1"/>
        <pt x="261" y="459" on="1"/>
        <pt x="109" y="459" on="1"/>
        <pt x="109" y="478" on="1"/>
        <pt x="264" y="478" on="1"/>
        <pt x="302" y="698" on="1"/>
        <pt x="323" y="698" on="1"/>
        <pt x="285" y="478" on="1"/>
        <pt x="471" y="478" on="1"/>
        <pt x="509" y="698" on="1"/>
        <pt x="530" y="698" on="1"/>
        <pt x="492" y="478" on="1"/>
        <pt x="642" y="478" on="1"/>
        <pt x="642" y="459" on="1"/>
        <pt x="488" y="459" on="1"/>
        <pt x="451" y="239" on="1"/>
        <pt x="603" y="239" on="1"/>
        <pt x="603" y="220" on="1"/>
        <pt x="448" y="220" on="1"/>
        <pt x="410" y="0" on="1"/>
        <pt x="389" y="0" on="1"/>
      </contour>
      <contour>
        <pt x="430" y="239" on="1"/>
        <pt x="468" y="459" on="1"/>
        <pt x="282" y="459" on="1"/>
        <pt x="244" y="239" on="1"/>
      </contour>
    </TTGlyph>
    <TTGlyph name="o" xMin="60" yMin="-12" xMax="480" yMax="518">
      <contour>
        <pt x="270" y="-12" on="1"/>
        <pt x="170" y="-12" on="0"/>
        <pt x="60" y="121" on="0"/>
        <pt x="60" y="253" on="1"/>
        <pt x="60" y="385" on="0"/>
        <pt x="170" y="518" on="0"/>
        <pt x="270" y="518" on="1"/>
        <pt x="370" y="518" on="0"/>
        <pt x="480" y="385" on="0"/>
        <pt x="480" y="253" on="1"/>
        <pt x="480" y="121" on="0"/>
        <pt x="370" y="-12" on="0"/>
      </contour>
      <contour>
        <pt x="270" y="7" on="1"/>
        <pt x="361" y="7" on="0"/>
        <pt x="457" y="126" on="0"/>
        <pt x="457" y="229" on="1"/>
        <pt x="457" y="277" on="1"/>
        <pt x="457" y="380" on="0"/>
        <pt x="361" y="499" on="0"/>
        <pt x="270" y="499" on="1"/>
        <pt x="179" y="499" on="0"/>
        <pt x="83" y="380" on="0"/>
        <pt x="83" y="277" on="1"/>
        <pt x="83" y="229" on="1"/>
        <pt x="83" y="126" on="0"/>
        <pt x="179" y="7" on="0"/>
      </contour>
    </TTGlyph>
    <TTGlyph name="oacute" xMin="60" yMin="-12" xMax="480" yMax="751">
      <component glyphName="o" x="0" y="0" flags="0x204"/>
      <component glyphName="acute" x="-29" y="0" flags="0x4"/>
    </TTGlyph>
    <TTGlyph name="ocircumflex" xMin="60" yMin="-12" xMax="480" yMax="743">
      <component glyphName="o" x="0" y="0" flags="0x204"/>
      <component glyphName="circumflex" x="-29" y="0" flags="0x4"/>
    </TTGlyph>
    <TTGlyph name="odieresis" xMin="60" yMin="-12" xMax="480" yMax="691">
      <component glyphName="o" x="0" y="0" flags="0x204"/>
      <component glyphName="dieresis" x="-29" y="0" flags="0x4"/>
    </TTGlyph>
    <TTGlyph name="oe" xMin="60" yMin="-12" xMax="869" yMax="518">
      <contour>
        <pt x="270" y="7" on="1"/>
        <pt x="361" y="7" on="0"/>
        <pt x="457" y="126" on="0"/>
        <pt x="457" y="229" on="1"/>
        <pt x="457" y="277" on="1"/>
        <pt x="457" y="380" on="0"/>
        <pt x="361" y="499" on="0"/>
        <pt x="270" y="499" on="1"/>
        <pt x="179" y="499" on="0"/>
        <pt x="83" y="380" on="0"/>
        <pt x="83" y="277" on="1"/>
        <pt x="83" y="229" on="1"/>
        <pt x="83" y="126" on="0"/>
        <pt x="179" y="7" on="0"/>
      </contour>
      <contour>
        <pt x="846" y="275" on="1"/>
        <pt x="846" y="279" on="1"/>
        <pt x="846" y="329" on="0"/>
        <pt x="820" y="410" on="0"/>
        <pt x="772" y="468" on="0"/>
        <pt x="705" y="499" on="0"/>
        <pt x="664" y="499" on="1"/>
        <pt x="575" y="499" on="0"/>
        <pt x="479" y="380" on="0"/>
        <pt x="479" y="277" on="1"/>
        <pt x="479" y="275" on="1"/>
      </contour>
      <contour>
        <pt x="668" y="-12" on="1"/>
        <pt x="591" y="-12" on="0"/>
        <pt x="489" y="68" on="0"/>
        <pt x="469" y="146" on="1"/>
        <pt x="466" y="146" on="1"/>
        <pt x="446" y="68" on="0"/>
        <pt x="347" y="-12" on="0"/>
        <pt x="270" y="-12" on="1"/>
        <pt x="170" y="-12" on="0"/>
        <pt x="60" y="121" on="0"/>
        <pt x="60" y="253" on="1"/>
        <pt x="60" y="385" on="0"/>
        <pt x="170" y="518" on="0"/>
        <pt x="270" y="518" on="1"/>
        <pt x="346" y="518" on="0"/>
        <pt x="447" y="439" on="0"/>
        <pt x="467" y="362" on="1"/>
        <pt x="470" y="362" on="1"/>
        <pt x="490" y="438" on="0"/>
        <pt x="589" y="518" on="0"/>
        <pt x="664" y="518" on="1"/>
        <pt x="710" y="518" on="0"/>
        <pt x="785" y="483" on="0"/>
        <pt x="839" y="417" on="0"/>
        <pt x="869" y="324" on="0"/>
        <pt x="869" y="266" on="1"/>
        <pt x="869" y="256" on="1"/>
        <pt x="479" y="256" on="1"/>
        <pt x="479" y="229" on="1"/>
        <pt x="479" y="126" on="0"/>
        <pt x="577" y="7" on="0"/>
        <pt x="668" y="7" on="1"/>
        <pt x="796" y="7" on="0"/>
        <pt x="843" y="131" on="1"/>
        <pt x="861" y="124" on="1"/>
        <pt x="838" y="61" on="0"/>
        <pt x="741" y="-12" on="0"/>
      </contour>
    </TTGlyph>
    <TTGlyph name="ogonek" xMin="160" yMin="-202" xMax="314" yMax="16">
      <contour>
        <pt x="239" y="-202" on="1"/>
        <pt x="205" y="-202" on="0"/>
        <pt x="160" y="-168" on="0"/>
        <pt x="160" y="-135" on="1"/>
        <pt x="160" y="-120" on="0"/>
        <pt x="171" y="-89" on="0"/>
        <pt x="198" y="-55" on="0"/>
        <pt x="244" y="-18" on="0"/>
        <pt x="279" y="2" on="1"/>
        <pt x="274" y="11" on="1"/>
        <pt x="294" y="16" on="1"/>
        <pt x="300" y="0" on="1"/>
        <pt x="241" y="-38" on="0"/>
        <pt x="181" y="-95" on="0"/>
        <pt x="181" y="-132" on="1"/>
        <pt x="181" y="-160" on="0"/>
        <pt x="214" y="-184" on="0"/>
        <pt x="240" y="-184" on="1"/>
        <pt x="264" y="-184" on="0"/>
        <pt x="292" y="-168" on="0"/>
        <pt x="300" y="-159" on="1"/>
        <pt x="314" y="-170" on="1"/>
        <pt x="304" y="-184" on="0"/>
        <pt x="266" y="-202" on="0"/>
      </contour>
    </TTGlyph>
    <TTGlyph name="ograve" xMin="60" yMin="-12" xMax="480" yMax="751">
      <component glyphName="o" x="0" y="0" flags="0x204"/>
      <component glyphName="grave" x="-29" y="0" flags="0x4"/>
    </TTGlyph>
    <TTGlyph name="one" xMin="80" yMin="0" xMax="545" yMax="698">
      <contour>
        <pt x="93" y="0" on="1"/>
        <pt x="93" y="20" on="1"/>
        <pt x="312" y="20" on="1"/>
        <pt x="312" y="682" on="1"/>
        <pt x="309" y="682" on="1"/>
        <pt x="93" y="501" on="1"/>
        <pt x="80" y="517" on="1"/>
        <pt x="296" y="698" on="1"/>
        <pt x="334" y="698" on="1"/>
        <pt x="334" y="20" on="1"/>
        <pt x="545" y="20" on="1"/>
        <pt x="545" y="0" on="1"/>
      </contour>
    </TTGlyph>
    <TTGlyph name="one.loclIWR" xMin="94" yMin="0" xMax="532" yMax="596">
      <contour>
        <pt x="107" y="19" on="1"/>
        <pt x="312" y="19" on="1"/>
        <pt x="312" y="581" on="1"/>
        <pt x="309" y="581" on="1"/>
        <pt x="107" y="423" on="1"/>
        <pt x="94" y="439" on="1"/>
        <pt x="297" y="596" on="1"/>
        <pt x="334" y="596" on="1"/>
        <pt x="334" y="19" on="1"/>
        <pt x="532" y="19" on="1"/>
        <pt x="532" y="0" on="1"/>
        <pt x="107" y="0" on="1"/>
      </contour>
    </TTGlyph>
    <TTGlyph name="onehalf" xMin="49" yMin="0" xMax="840" yMax="698">
      <component glyphName="onesuperior" x="0" y="0" flags="0x4"/>
      <component glyphName="fraction" x="388" y="0" flags="0x4"/>
      <component glyphName="uni2082" x="540" y="0" flags="0x4"/>
    </TTGlyph>
    <TTGlyph name="onequarter" xMin="49" yMin="0" xMax="823" yMax="698">
      <component glyphName="onesuperior" x="0" y="0" flags="0x4"/>
      <component glyphName="fraction" x="388" y="0" flags="0x4"/>
      <component glyphName="uni2084" x="505" y="0" flags="0x4"/>
    </TTGlyph>
    <TTGlyph name="onesuperior" xMin="49" yMin="329" xMax="326" yMax="698">
      <contour>
        <pt x="60" y="329" on="1"/>
        <pt x="60" y="346" on="1"/>
        <pt x="189" y="346" on="1"/>
        <pt x="189" y="683" on="1"/>
        <pt x="185" y="683" on="1"/>
        <pt x="60" y="578" on="1"/>
        <pt x="49" y="591" on="1"/>
        <pt x="176" y="698" on="1"/>
        <pt x="208" y="698" on="1"/>
        <pt x="208" y="346" on="1"/>
        <pt x="326" y="346" on="1"/>
        <pt x="326" y="329" on="1"/>
      </contour>
    </TTGlyph>
    <TTGlyph name="ordfeminine" xMin="40" yMin="360" xMax="329" yMax="704">
      <contour>
        <pt x="329" y="366" on="1"/>
        <pt x="281" y="366" on="1"/>
        <pt x="263" y="366" on="0"/>
        <pt x="263" y="385" on="1"/>
        <pt x="263" y="415" on="1"/>
        <pt x="261" y="415" on="1"/>
        <pt x="250" y="394" on="0"/>
        <pt x="197" y="360" on="0"/>
        <pt x="149" y="360" on="1"/>
        <pt x="95" y="360" on="0"/>
        <pt x="40" y="408" on="0"/>
        <pt x="40" y="449" on="1"/>
        <pt x="40" y="491" on="0"/>
        <pt x="96" y="542" on="0"/>
        <pt x="167" y="542" on="1"/>
        <pt x="263" y="542" on="1"/>
        <pt x="263" y="598" on="1"/>
        <pt x="263" y="643" on="0"/>
        <pt x="211" y="687" on="0"/>
        <pt x="164" y="687" on="1"/>
        <pt x="131" y="687" on="0"/>
        <pt x="79" y="660" on="0"/>
        <pt x="65" y="629" on="1"/>
        <pt x="50" y="637" on="1"/>
        <pt x="64" y="668" on="0"/>
        <pt x="119" y="704" on="0"/>
        <pt x="164" y="704" on="1"/>
        <pt x="220" y="704" on="0"/>
        <pt x="282" y="650" on="0"/>
        <pt x="282" y="601" on="1"/>
        <pt x="282" y="383" on="1"/>
        <pt x="329" y="383" on="1"/>
      </contour>
      <contour>
        <pt x="166" y="525" on="1"/>
        <pt x="108" y="525" on="0"/>
        <pt x="61" y="488" on="0"/>
        <pt x="61" y="456" on="1"/>
        <pt x="61" y="443" on="1"/>
        <pt x="61" y="411" on="0"/>
        <pt x="109" y="377" on="0"/>
        <pt x="149" y="377" on="1"/>
        <pt x="172" y="377" on="0"/>
        <pt x="213" y="387" on="0"/>
        <pt x="245" y="408" on="0"/>
        <pt x="263" y="440" on="0"/>
        <pt x="263" y="461" on="1"/>
        <pt x="263" y="525" on="1"/>
      </contour>
    </TTGlyph>
    <TTGlyph name="ordmasculine" xMin="46" yMin="360" xMax="320" yMax="704">
      <contour>
        <pt x="183" y="360" on="1"/>
        <pt x="118" y="360" on="0"/>
        <pt x="46" y="452" on="0"/>
        <pt x="46" y="532" on="1"/>
        <pt x="46" y="612" on="0"/>
        <pt x="118" y="704" on="0"/>
        <pt x="183" y="704" on="1"/>
        <pt x="248" y="704" on="0"/>
        <pt x="320" y="612" on="0"/>
        <pt x="320" y="532" on="1"/>
        <pt x="320" y="452" on="0"/>
        <pt x="248" y="360" on="0"/>
      </contour>
      <contour>
        <pt x="183" y="377" on="1"/>
        <pt x="211" y="377" on="0"/>
        <pt x="255" y="399" on="0"/>
        <pt x="284" y="437" on="0"/>
        <pt x="299" y="487" on="0"/>
        <pt x="299" y="516" on="1"/>
        <pt x="299" y="548" on="1"/>
        <pt x="299" y="576" on="0"/>
        <pt x="284" y="627" on="0"/>
        <pt x="255" y="665" on="0"/>
        <pt x="211" y="687" on="0"/>
        <pt x="183" y="687" on="1"/>
        <pt x="154" y="687" on="0"/>
        <pt x="111" y="665" on="0"/>
        <pt x="82" y="627" on="0"/>
        <pt x="67" y="576" on="0"/>
        <pt x="67" y="548" on="1"/>
        <pt x="67" y="516" on="1"/>
        <pt x="67" y="487" on="0"/>
        <pt x="82" y="437" on="0"/>
        <pt x="111" y="399" on="0"/>
        <pt x="154" y="377" on="0"/>
      </contour>
    </TTGlyph>
    <TTGlyph name="oslash" xMin="40" yMin="-26" xMax="506" yMax="542">
      <contour>
        <pt x="40" y="-15" on="1"/>
        <pt x="108" y="69" on="1"/>
        <pt x="63" y="137" on="0"/>
        <pt x="63" y="253" on="1"/>
        <pt x="63" y="385" on="0"/>
        <pt x="173" y="518" on="0"/>
        <pt x="273" y="518" on="1"/>
        <pt x="368" y="518" on="0"/>
        <pt x="423" y="457" on="1"/>
        <pt x="492" y="542" on="1"/>
        <pt x="506" y="531" on="1"/>
        <pt x="434" y="442" on="1"/>
        <pt x="483" y="375" on="0"/>
        <pt x="483" y="253" on="1"/>
        <pt x="483" y="121" on="0"/>
        <pt x="373" y="-12" on="0"/>
        <pt x="273" y="-12" on="1"/>
        <pt x="173" y="-12" on="0"/>
        <pt x="119" y="54" on="1"/>
        <pt x="54" y="-26" on="1"/>
      </contour>
      <contour>
        <pt x="273" y="7" on="1"/>
        <pt x="364" y="7" on="0"/>
        <pt x="460" y="126" on="0"/>
        <pt x="460" y="229" on="1"/>
        <pt x="460" y="277" on="1"/>
        <pt x="460" y="370" on="0"/>
        <pt x="421" y="426" on="1"/>
        <pt x="132" y="70" on="1"/>
        <pt x="156" y="40" on="0"/>
        <pt x="226" y="7" on="0"/>
      </contour>
      <contour>
        <pt x="86" y="229" on="1"/>
        <pt x="86" y="141" on="0"/>
        <pt x="121" y="85" on="1"/>
        <pt x="410" y="441" on="1"/>
        <pt x="386" y="469" on="0"/>
        <pt x="318" y="499" on="0"/>
        <pt x="273" y="499" on="1"/>
        <pt x="182" y="499" on="0"/>
        <pt x="86" y="380" on="0"/>
        <pt x="86" y="277" on="1"/>
      </contour>
    </TTGlyph>
    <TTGlyph name="otilde" xMin="60" yMin="-12" xMax="480" yMax="702">
      <component glyphName="o" x="0" y="0" flags="0x204"/>
      <component glyphName="tilde" x="-29" y="0" flags="0x4"/>
    </TTGlyph>
    <TTGlyph name="p" xMin="105" yMin="-200" xMax="505" yMax="518">
      <contour>
        <pt x="105" y="506" on="1"/>
        <pt x="126" y="506" on="1"/>
        <pt x="126" y="428" on="1"/>
        <pt x="129" y="428" on="1"/>
        <pt x="137" y="444" on="0"/>
        <pt x="165" y="477" on="0"/>
        <pt x="206" y="502" on="0"/>
        <pt x="260" y="518" on="0"/>
        <pt x="293" y="518" on="1"/>
        <pt x="393" y="518" on="0"/>
        <pt x="505" y="386" on="0"/>
        <pt x="505" y="253" on="1"/>
        <pt x="505" y="120" on="0"/>
        <pt x="393" y="-12" on="0"/>
        <pt x="293" y="-12" on="1"/>
        <pt x="260" y="-12" on="0"/>
        <pt x="206" y="4" on="0"/>
        <pt x="165" y="29" on="0"/>
        <pt x="137" y="61" on="0"/>
        <pt x="129" y="78" on="1"/>
        <pt x="126" y="78" on="1"/>
        <pt x="126" y="-200" on="1"/>
        <pt x="105" y="-200" on="1"/>
      </contour>
      <contour>
        <pt x="293" y="7" on="1"/>
        <pt x="384" y="7" on="0"/>
        <pt x="482" y="126" on="0"/>
        <pt x="482" y="229" on="1"/>
        <pt x="482" y="277" on="1"/>
        <pt x="482" y="380" on="0"/>
        <pt x="384" y="499" on="0"/>
        <pt x="293" y="499" on="1"/>
        <pt x="260" y="499" on="0"/>
        <pt x="200" y="479" on="0"/>
        <pt x="153" y="443" on="0"/>
        <pt x="126" y="393" on="0"/>
        <pt x="126" y="363" on="1"/>
        <pt x="126" y="143" on="1"/>
        <pt x="126" y="113" on="0"/>
        <pt x="153" y="63" on="0"/>
        <pt x="200" y="27" on="0"/>
        <pt x="260" y="7" on="0"/>
      </contour>
    </TTGlyph>
    <TTGlyph name="paragraph" xMin="51" yMin="-149" xMax="493" yMax="698">
      <contour>
        <pt x="250" y="330" on="1"/>
        <pt x="209" y="330" on="0"/>
        <pt x="137" y="355" on="0"/>
        <pt x="83" y="402" on="0"/>
        <pt x="51" y="470" on="0"/>
        <pt x="51" y="514" on="1"/>
        <pt x="51" y="558" on="0"/>
        <pt x="83" y="626" on="0"/>
        <pt x="137" y="673" on="0"/>
        <pt x="209" y="698" on="0"/>
        <pt x="250" y="698" on="1"/>
        <pt x="493" y="698" on="1"/>
        <pt x="493" y="680" on="1"/>
        <pt x="424" y="680" on="1"/>
        <pt x="424" y="-149" on="1"/>
        <pt x="403" y="-149" on="1"/>
        <pt x="403" y="680" on="1"/>
        <pt x="271" y="680" on="1"/>
        <pt x="271" y="-149" on="1"/>
        <pt x="250" y="-149" on="1"/>
      </contour>
    </TTGlyph>
    <TTGlyph name="parenleft" xMin="105" yMin="-138" xMax="314" yMax="760">
      <contour>
        <pt x="105" y="311" on="1"/>
        <pt x="105" y="387" on="0"/>
        <pt x="137" y="523" on="0"/>
        <pt x="188" y="637" on="0"/>
        <pt x="254" y="728" on="0"/>
        <pt x="289" y="760" on="1"/>
        <pt x="314" y="760" on="1"/>
        <pt x="277" y="727" on="0"/>
        <pt x="209" y="636" on="0"/>
        <pt x="157" y="525" on="0"/>
        <pt x="126" y="397" on="0"/>
        <pt x="126" y="328" on="1"/>
        <pt x="126" y="294" on="1"/>
        <pt x="126" y="225" on="0"/>
        <pt x="157" y="97" on="0"/>
        <pt x="209" y="-14" on="0"/>
        <pt x="277" y="-105" on="0"/>
        <pt x="314" y="-138" on="1"/>
        <pt x="289" y="-138" on="1"/>
        <pt x="254" y="-106" on="0"/>
        <pt x="188" y="-15" on="0"/>
        <pt x="137" y="99" on="0"/>
        <pt x="105" y="234" on="0"/>
      </contour>
    </TTGlyph>
    <TTGlyph name="parenright" xMin="18" yMin="-138" xMax="227" yMax="760">
      <contour>
        <pt x="227" y="311" on="1"/>
        <pt x="227" y="234" on="0"/>
        <pt x="195" y="99" on="0"/>
        <pt x="144" y="-15" on="0"/>
        <pt x="78" y="-106" on="0"/>
        <pt x="43" y="-138" on="1"/>
        <pt x="18" y="-138" on="1"/>
        <pt x="55" y="-105" on="0"/>
        <pt x="123" y="-14" on="0"/>
        <pt x="175" y="97" on="0"/>
        <pt x="206" y="225" on="0"/>
        <pt x="206" y="294" on="1"/>
        <pt x="206" y="328" on="1"/>
        <pt x="206" y="397" on="0"/>
        <pt x="175" y="525" on="0"/>
        <pt x="123" y="636" on="0"/>
        <pt x="55" y="727" on="0"/>
        <pt x="18" y="760" on="1"/>
        <pt x="43" y="760" on="1"/>
        <pt x="78" y="728" on="0"/>
        <pt x="144" y="637" on="0"/>
        <pt x="195" y="523" on="0"/>
        <pt x="227" y="387" on="0"/>
      </contour>
    </TTGlyph>
    <TTGlyph name="partialdiff" xMin="76" yMin="-12" xMax="496" yMax="698">
      <contour>
        <pt x="496" y="248" on="1"/>
        <pt x="496" y="186" on="0"/>
        <pt x="466" y="89" on="0"/>
        <pt x="410" y="23" on="0"/>
        <pt x="333" y="-12" on="0"/>
        <pt x="286" y="-12" on="1"/>
        <pt x="239" y="-12" on="0"/>
        <pt x="162" y="22" on="0"/>
        <pt x="106" y="88" on="0"/>
        <pt x="76" y="184" on="0"/>
        <pt x="76" y="246" on="1"/>
        <pt x="76" y="307" on="0"/>
        <pt x="106" y="403" on="0"/>
        <pt x="162" y="469" on="0"/>
        <pt x="239" y="504" on="0"/>
        <pt x="286" y="504" on="1"/>
        <pt x="337" y="504" on="0"/>
        <pt x="418" y="462" on="0"/>
        <pt x="444" y="423" on="1"/>
        <pt x="447" y="425" on="1"/>
        <pt x="430" y="469" on="0"/>
        <pt x="373" y="548" on="0"/>
        <pt x="298" y="616" on="0"/>
        <pt x="209" y="674" on="0"/>
        <pt x="160" y="698" on="1"/>
        <pt x="199" y="698" on="1"/>
        <pt x="228" y="682" on="0"/>
        <pt x="295" y="640" on="0"/>
        <pt x="361" y="586" on="0"/>
        <pt x="422" y="516" on="0"/>
        <pt x="468" y="427" on="0"/>
        <pt x="496" y="316" on="0"/>
      </contour>
      <contour>
        <pt x="286" y="7" on="1"/>
        <pt x="327" y="7" on="0"/>
        <pt x="396" y="37" on="0"/>
        <pt x="445" y="93" on="0"/>
        <pt x="473" y="173" on="0"/>
        <pt x="473" y="223" on="1"/>
        <pt x="473" y="269" on="1"/>
        <pt x="473" y="319" on="0"/>
        <pt x="445" y="399" on="0"/>
        <pt x="396" y="455" on="0"/>
        <pt x="327" y="485" on="0"/>
        <pt x="286" y="485" on="1"/>
        <pt x="245" y="485" on="0"/>
        <pt x="176" y="455" on="0"/>
        <pt x="127" y="399" on="0"/>
        <pt x="99" y="319" on="0"/>
        <pt x="99" y="269" on="1"/>
        <pt x="99" y="223" on="1"/>
        <pt x="99" y="173" on="0"/>
        <pt x="127" y="93" on="0"/>
        <pt x="176" y="37" on="0"/>
        <pt x="245" y="7" on="0"/>
      </contour>
    </TTGlyph>
    <TTGlyph name="percent" xMin="75" yMin="-12" xMax="807" yMax="710">
      <contour>
        <pt x="187" y="0" on="1"/>
        <pt x="671" y="698" on="1"/>
        <pt x="694" y="698" on="1"/>
        <pt x="210" y="0" on="1"/>
      </contour>
      <contour>
        <pt x="217" y="326" on="1"/>
        <pt x="188" y="326" on="0"/>
        <pt x="137" y="347" on="0"/>
        <pt x="98" y="394" on="0"/>
        <pt x="75" y="467" on="0"/>
        <pt x="75" y="518" on="1"/>
        <pt x="75" y="569" on="0"/>
        <pt x="98" y="642" on="0"/>
        <pt x="137" y="689" on="0"/>
        <pt x="188" y="710" on="0"/>
        <pt x="217" y="710" on="1"/>
        <pt x="246" y="710" on="0"/>
        <pt x="297" y="689" on="0"/>
        <pt x="336" y="642" on="0"/>
        <pt x="359" y="569" on="0"/>
        <pt x="359" y="518" on="1"/>
        <pt x="359" y="467" on="0"/>
        <pt x="336" y="394" on="0"/>
        <pt x="297" y="347" on="0"/>
        <pt x="246" y="326" on="0"/>
      </contour>
      <contour>
        <pt x="217" y="343" on="1"/>
        <pt x="240" y="343" on="0"/>
        <pt x="284" y="361" on="0"/>
        <pt x="317" y="399" on="0"/>
        <pt x="337" y="459" on="0"/>
        <pt x="337" y="502" on="1"/>
        <pt x="337" y="534" on="1"/>
        <pt x="337" y="577" on="0"/>
        <pt x="317" y="637" on="0"/>
        <pt x="284" y="675" on="0"/>
        <pt x="240" y="693" on="0"/>
        <pt x="217" y="693" on="1"/>
        <pt x="194" y="693" on="0"/>
        <pt x="150" y="675" on="0"/>
        <pt x="117" y="637" on="0"/>
        <pt x="97" y="577" on="0"/>
        <pt x="97" y="534" on="1"/>
        <pt x="97" y="502" on="1"/>
        <pt x="97" y="459" on="0"/>
        <pt x="117" y="399" on="0"/>
        <pt x="150" y="361" on="0"/>
        <pt x="194" y="343" on="0"/>
      </contour>
      <contour>
        <pt x="665" y="-12" on="1"/>
        <pt x="636" y="-12" on="0"/>
        <pt x="585" y="9" on="0"/>
        <pt x="546" y="56" on="0"/>
        <pt x="523" y="129" on="0"/>
        <pt x="523" y="180" on="1"/>
        <pt x="523" y="231" on="0"/>
        <pt x="546" y="304" on="0"/>
        <pt x="585" y="351" on="0"/>
        <pt x="636" y="372" on="0"/>
        <pt x="665" y="372" on="1"/>
        <pt x="694" y="372" on="0"/>
        <pt x="745" y="351" on="0"/>
        <pt x="784" y="304" on="0"/>
        <pt x="807" y="231" on="0"/>
        <pt x="807" y="180" on="1"/>
        <pt x="807" y="129" on="0"/>
        <pt x="784" y="56" on="0"/>
        <pt x="745" y="9" on="0"/>
        <pt x="694" y="-12" on="0"/>
      </contour>
      <contour>
        <pt x="665" y="5" on="1"/>
        <pt x="688" y="5" on="0"/>
        <pt x="732" y="23" on="0"/>
        <pt x="765" y="61" on="0"/>
        <pt x="785" y="121" on="0"/>
        <pt x="785" y="164" on="1"/>
        <pt x="785" y="196" on="1"/>
        <pt x="785" y="239" on="0"/>
        <pt x="765" y="299" on="0"/>
        <pt x="732" y="337" on="0"/>
        <pt x="688" y="355" on="0"/>
        <pt x="665" y="355" on="1"/>
        <pt x="642" y="355" on="0"/>
        <pt x="598" y="337" on="0"/>
        <pt x="565" y="299" on="0"/>
        <pt x="545" y="239" on="0"/>
        <pt x="545" y="196" on="1"/>
        <pt x="545" y="164" on="1"/>
        <pt x="545" y="121" on="0"/>
        <pt x="565" y="61" on="0"/>
        <pt x="598" y="23" on="0"/>
        <pt x="642" y="5" on="0"/>
      </contour>
    </TTGlyph>
    <TTGlyph name="period" xMin="93" yMin="-5" xMax="147" yMax="53">
      <contour>
        <pt x="120" y="-5" on="1"/>
        <pt x="93" y="-5" on="0"/>
        <pt x="93" y="20" on="1"/>
        <pt x="93" y="28" on="1"/>
        <pt x="93" y="53" on="0"/>
        <pt x="120" y="53" on="1"/>
        <pt x="147" y="53" on="0"/>
        <pt x="147" y="28" on="1"/>
        <pt x="147" y="20" on="1"/>
        <pt x="147" y="-5" on="0"/>
      </contour>
    </TTGlyph>
    <TTGlyph name="periodcentered" xMin="122" yMin="277" xMax="176" yMax="335">
      <contour>
        <pt x="149" y="277" on="1"/>
        <pt x="122" y="277" on="0"/>
        <pt x="122" y="302" on="1"/>
        <pt x="122" y="310" on="1"/>
        <pt x="122" y="335" on="0"/>
        <pt x="149" y="335" on="1"/>
        <pt x="176" y="335" on="0"/>
        <pt x="176" y="310" on="1"/>
        <pt x="176" y="302" on="1"/>
        <pt x="176" y="277" on="0"/>
      </contour>
    </TTGlyph>
    <TTGlyph name="perthousand" xMin="75" yMin="-12" xMax="1165" yMax="710">
      <contour>
        <pt x="187" y="0" on="1"/>
        <pt x="671" y="698" on="1"/>
        <pt x="694" y="698" on="1"/>
        <pt x="210" y="0" on="1"/>
      </contour>
      <contour>
        <pt x="217" y="326" on="1"/>
        <pt x="188" y="326" on="0"/>
        <pt x="137" y="347" on="0"/>
        <pt x="98" y="394" on="0"/>
        <pt x="75" y="467" on="0"/>
        <pt x="75" y="518" on="1"/>
        <pt x="75" y="569" on="0"/>
        <pt x="98" y="642" on="0"/>
        <pt x="137" y="689" on="0"/>
        <pt x="188" y="710" on="0"/>
        <pt x="217" y="710" on="1"/>
        <pt x="246" y="710" on="0"/>
        <pt x="297" y="689" on="0"/>
        <pt x="336" y="642" on="0"/>
        <pt x="359" y="569" on="0"/>
        <pt x="359" y="518" on="1"/>
        <pt x="359" y="467" on="0"/>
        <pt x="336" y="394" on="0"/>
        <pt x="297" y="347" on="0"/>
        <pt x="246" y="326" on="0"/>
      </contour>
      <contour>
        <pt x="217" y="343" on="1"/>
        <pt x="240" y="343" on="0"/>
        <pt x="284" y="361" on="0"/>
        <pt x="317" y="399" on="0"/>
        <pt x="337" y="459" on="0"/>
        <pt x="337" y="502" on="1"/>
        <pt x="337" y="534" on="1"/>
        <pt x="337" y="577" on="0"/>
        <pt x="317" y="637" on="0"/>
        <pt x="284" y="675" on="0"/>
        <pt x="240" y="693" on="0"/>
        <pt x="217" y="693" on="1"/>
        <pt x="194" y="693" on="0"/>
        <pt x="150" y="675" on="0"/>
        <pt x="117" y="637" on="0"/>
        <pt x="97" y="577" on="0"/>
        <pt x="97" y="534" on="1"/>
        <pt x="97" y="502" on="1"/>
        <pt x="97" y="459" on="0"/>
        <pt x="117" y="399" on="0"/>
        <pt x="150" y="361" on="0"/>
        <pt x="194" y="343" on="0"/>
      </contour>
      <contour>
        <pt x="665" y="-12" on="1"/>
        <pt x="636" y="-12" on="0"/>
        <pt x="585" y="9" on="0"/>
        <pt x="546" y="56" on="0"/>
        <pt x="523" y="129" on="0"/>
        <pt x="523" y="180" on="1"/>
        <pt x="523" y="231" on="0"/>
        <pt x="546" y="304" on="0"/>
        <pt x="585" y="351" on="0"/>
        <pt x="636" y="372" on="0"/>
        <pt x="665" y="372" on="1"/>
        <pt x="694" y="372" on="0"/>
        <pt x="745" y="351" on="0"/>
        <pt x="784" y="304" on="0"/>
        <pt x="807" y="231" on="0"/>
        <pt x="807" y="180" on="1"/>
        <pt x="807" y="129" on="0"/>
        <pt x="784" y="56" on="0"/>
        <pt x="745" y="9" on="0"/>
        <pt x="694" y="-12" on="0"/>
      </contour>
      <contour>
        <pt x="665" y="5" on="1"/>
        <pt x="688" y="5" on="0"/>
        <pt x="732" y="23" on="0"/>
        <pt x="765" y="61" on="0"/>
        <pt x="785" y="121" on="0"/>
        <pt x="785" y="164" on="1"/>
        <pt x="785" y="196" on="1"/>
        <pt x="785" y="239" on="0"/>
        <pt x="765" y="299" on="0"/>
        <pt x="732" y="337" on="0"/>
        <pt x="688" y="355" on="0"/>
        <pt x="665" y="355" on="1"/>
        <pt x="642" y="355" on="0"/>
        <pt x="598" y="337" on="0"/>
        <pt x="565" y="299" on="0"/>
        <pt x="545" y="239" on="0"/>
        <pt x="545" y="196" on="1"/>
        <pt x="545" y="164" on="1"/>
        <pt x="545" y="121" on="0"/>
        <pt x="565" y="61" on="0"/>
        <pt x="598" y="23" on="0"/>
        <pt x="642" y="5" on="0"/>
      </contour>
      <contour>
        <pt x="1023" y="-12" on="1"/>
        <pt x="994" y="-12" on="0"/>
        <pt x="943" y="9" on="0"/>
        <pt x="904" y="56" on="0"/>
        <pt x="881" y="129" on="0"/>
        <pt x="881" y="180" on="1"/>
        <pt x="881" y="231" on="0"/>
        <pt x="904" y="304" on="0"/>
        <pt x="943" y="351" on="0"/>
        <pt x="994" y="372" on="0"/>
        <pt x="1023" y="372" on="1"/>
        <pt x="1052" y="372" on="0"/>
        <pt x="1103" y="351" on="0"/>
        <pt x="1142" y="304" on="0"/>
        <pt x="1165" y="231" on="0"/>
        <pt x="1165" y="180" on="1"/>
        <pt x="1165" y="129" on="0"/>
        <pt x="1142" y="56" on="0"/>
        <pt x="1103" y="9" on="0"/>
        <pt x="1052" y="-12" on="0"/>
      </contour>
      <contour>
        <pt x="1023" y="5" on="1"/>
        <pt x="1046" y="5" on="0"/>
        <pt x="1090" y="23" on="0"/>
        <pt x="1123" y="61" on="0"/>
        <pt x="1143" y="121" on="0"/>
        <pt x="1143" y="164" on="1"/>
        <pt x="1143" y="196" on="1"/>
        <pt x="1143" y="239" on="0"/>
        <pt x="1123" y="299" on="0"/>
        <pt x="1090" y="337" on="0"/>
        <pt x="1046" y="355" on="0"/>
        <pt x="1023" y="355" on="1"/>
        <pt x="1000" y="355" on="0"/>
        <pt x="956" y="337" on="0"/>
        <pt x="923" y="299" on="0"/>
        <pt x="903" y="239" on="0"/>
        <pt x="903" y="196" on="1"/>
        <pt x="903" y="164" on="1"/>
        <pt x="903" y="121" on="0"/>
        <pt x="923" y="61" on="0"/>
        <pt x="956" y="23" on="0"/>
        <pt x="1000" y="5" on="0"/>
      </contour>
    </TTGlyph>
    <TTGlyph name="pi" xMin="30" yMin="0" xMax="552" yMax="506">
      <contour>
        <pt x="445" y="19" on="1"/>
        <pt x="520" y="19" on="1"/>
        <pt x="520" y="0" on="1"/>
        <pt x="453" y="0" on="1"/>
        <pt x="424" y="0" on="0"/>
        <pt x="424" y="29" on="1"/>
        <pt x="424" y="487" on="1"/>
        <pt x="146" y="487" on="1"/>
        <pt x="146" y="0" on="1"/>
        <pt x="125" y="0" on="1"/>
        <pt x="125" y="487" on="1"/>
        <pt x="30" y="487" on="1"/>
        <pt x="30" y="506" on="1"/>
        <pt x="552" y="506" on="1"/>
        <pt x="552" y="487" on="1"/>
        <pt x="445" y="487" on="1"/>
      </contour>
    </TTGlyph>
    <TTGlyph name="plus" xMin="62" yMin="62" xMax="539" yMax="549">
      <contour>
        <pt x="290" y="62" on="1"/>
        <pt x="290" y="296" on="1"/>
        <pt x="62" y="296" on="1"/>
        <pt x="62" y="315" on="1"/>
        <pt x="290" y="315" on="1"/>
        <pt x="290" y="549" on="1"/>
        <pt x="311" y="549" on="1"/>
        <pt x="311" y="315" on="1"/>
        <pt x="539" y="315" on="1"/>
        <pt x="539" y="296" on="1"/>
        <pt x="311" y="296" on="1"/>
        <pt x="311" y="62" on="1"/>
      </contour>
    </TTGlyph>
    <TTGlyph name="plusminus" xMin="62" yMin="0" xMax="539" yMax="602">
      <contour>
        <pt x="290" y="115" on="1"/>
        <pt x="290" y="349" on="1"/>
        <pt x="62" y="349" on="1"/>
        <pt x="62" y="368" on="1"/>
        <pt x="290" y="368" on="1"/>
        <pt x="290" y="602" on="1"/>
        <pt x="311" y="602" on="1"/>
        <pt x="311" y="368" on="1"/>
        <pt x="539" y="368" on="1"/>
        <pt x="539" y="349" on="1"/>
        <pt x="311" y="349" on="1"/>
        <pt x="311" y="115" on="1"/>
      </contour>
      <contour>
        <pt x="62" y="0" on="1"/>
        <pt x="62" y="19" on="1"/>
        <pt x="538" y="19" on="1"/>
        <pt x="538" y="0" on="1"/>
      </contour>
    </TTGlyph>
    <TTGlyph name="product" xMin="70" yMin="-200" xMax="638" yMax="698">
      <contour>
        <pt x="142" y="-200" on="1"/>
        <pt x="142" y="678" on="1"/>
        <pt x="70" y="678" on="1"/>
        <pt x="70" y="698" on="1"/>
        <pt x="638" y="698" on="1"/>
        <pt x="638" y="678" on="1"/>
        <pt x="566" y="678" on="1"/>
        <pt x="566" y="-200" on="1"/>
        <pt x="544" y="-200" on="1"/>
        <pt x="544" y="678" on="1"/>
        <pt x="164" y="678" on="1"/>
        <pt x="164" y="-200" on="1"/>
      </contour>
    </TTGlyph>
    <TTGlyph name="q" xMin="60" yMin="-200" xMax="460" yMax="518">
      <contour>
        <pt x="439" y="78" on="1"/>
        <pt x="436" y="78" on="1"/>
        <pt x="428" y="61" on="0"/>
        <pt x="400" y="29" on="0"/>
        <pt x="359" y="4" on="0"/>
        <pt x="305" y="-12" on="0"/>
        <pt x="272" y="-12" on="1"/>
        <pt x="172" y="-12" on="0"/>
        <pt x="60" y="120" on="0"/>
        <pt x="60" y="253" on="1"/>
        <pt x="60" y="386" on="0"/>
        <pt x="172" y="518" on="0"/>
        <pt x="272" y="518" on="1"/>
        <pt x="305" y="518" on="0"/>
        <pt x="359" y="502" on="0"/>
        <pt x="400" y="477" on="0"/>
        <pt x="428" y="444" on="0"/>
        <pt x="436" y="428" on="1"/>
        <pt x="439" y="428" on="1"/>
        <pt x="439" y="506" on="1"/>
        <pt x="460" y="506" on="1"/>
        <pt x="460" y="-200" on="1"/>
        <pt x="439" y="-200" on="1"/>
      </contour>
      <contour>
        <pt x="272" y="7" on="1"/>
        <pt x="305" y="7" on="0"/>
        <pt x="365" y="27" on="0"/>
        <pt x="412" y="63" on="0"/>
        <pt x="439" y="113" on="0"/>
        <pt x="439" y="143" on="1"/>
        <pt x="439" y="363" on="1"/>
        <pt x="439" y="393" on="0"/>
        <pt x="412" y="443" on="0"/>
        <pt x="365" y="479" on="0"/>
        <pt x="305" y="499" on="0"/>
        <pt x="272" y="499" on="1"/>
        <pt x="181" y="499" on="0"/>
        <pt x="83" y="380" on="0"/>
        <pt x="83" y="277" on="1"/>
        <pt x="83" y="229" on="1"/>
        <pt x="83" y="126" on="0"/>
        <pt x="181" y="7" on="0"/>
      </contour>
    </TTGlyph>
    <TTGlyph name="question" xMin="37" yMin="-5" xMax="421" yMax="710">
      <contour>
        <pt x="198" y="176" on="1"/>
        <pt x="198" y="349" on="1"/>
        <pt x="294" y="351" on="0"/>
        <pt x="398" y="443" on="0"/>
        <pt x="398" y="516" on="1"/>
        <pt x="398" y="542" on="1"/>
        <pt x="398" y="608" on="0"/>
        <pt x="313" y="691" on="0"/>
        <pt x="236" y="691" on="1"/>
        <pt x="161" y="691" on="0"/>
        <pt x="76" y="620" on="0"/>
        <pt x="57" y="554" on="1"/>
        <pt x="37" y="559" on="1"/>
        <pt x="57" y="631" on="0"/>
        <pt x="155" y="710" on="0"/>
        <pt x="236" y="710" on="1"/>
        <pt x="323" y="710" on="0"/>
        <pt x="421" y="612" on="0"/>
        <pt x="421" y="531" on="1"/>
        <pt x="421" y="443" on="0"/>
        <pt x="317" y="339" on="0"/>
        <pt x="220" y="330" on="1"/>
        <pt x="220" y="176" on="1"/>
      </contour>
      <contour>
        <pt x="209" y="-5" on="1"/>
        <pt x="182" y="-5" on="0"/>
        <pt x="182" y="20" on="1"/>
        <pt x="182" y="28" on="1"/>
        <pt x="182" y="53" on="0"/>
        <pt x="209" y="53" on="1"/>
        <pt x="236" y="53" on="0"/>
        <pt x="236" y="28" on="1"/>
        <pt x="236" y="20" on="1"/>
        <pt x="236" y="-5" on="0"/>
      </contour>
    </TTGlyph>
    <TTGlyph name="questiondown" xMin="35" yMin="-204" xMax="419" yMax="511">
      <contour>
        <pt x="220" y="-204" on="1"/>
        <pt x="133" y="-204" on="0"/>
        <pt x="35" y="-106" on="0"/>
        <pt x="35" y="-25" on="1"/>
        <pt x="35" y="63" on="0"/>
        <pt x="139" y="167" on="0"/>
        <pt x="236" y="176" on="1"/>
        <pt x="236" y="330" on="1"/>
        <pt x="258" y="330" on="1"/>
        <pt x="258" y="157" on="1"/>
        <pt x="162" y="155" on="0"/>
        <pt x="58" y="63" on="0"/>
        <pt x="58" y="-10" on="1"/>
        <pt x="58" y="-36" on="1"/>
        <pt x="58" y="-102" on="0"/>
        <pt x="143" y="-185" on="0"/>
        <pt x="220" y="-185" on="1"/>
        <pt x="295" y="-185" on="0"/>
        <pt x="380" y="-114" on="0"/>
        <pt x="399" y="-48" on="1"/>
        <pt x="419" y="-53" on="1"/>
        <pt x="399" y="-125" on="0"/>
        <pt x="301" y="-204" on="0"/>
      </contour>
      <contour>
        <pt x="247" y="453" on="1"/>
        <pt x="220" y="453" on="0"/>
        <pt x="220" y="478" on="1"/>
        <pt x="220" y="486" on="1"/>
        <pt x="220" y="511" on="0"/>
        <pt x="247" y="511" on="1"/>
        <pt x="274" y="511" on="0"/>
        <pt x="274" y="486" on="1"/>
        <pt x="274" y="478" on="1"/>
        <pt x="274" y="453" on="0"/>
      </contour>
    </TTGlyph>
    <TTGlyph name="quotedbl" xMin="100" yMin="490" xMax="273" yMax="740">
      <component glyphName="quotesingle" x="0" y="0" flags="0x4"/>
      <component glyphName="quotesingle" x="153" y="0" flags="0x4"/>
    </TTGlyph>
    <TTGlyph name="quotedblbase" xMin="52" yMin="-134" xMax="308" yMax="66">
      <component glyphName="quotesinglbase" x="0" y="0" flags="0x4"/>
      <component glyphName="quotesinglbase" x="160" y="0" flags="0x4"/>
    </TTGlyph>
    <TTGlyph name="quotedblleft" xMin="89" yMin="540" xMax="345" yMax="740">
      <component glyphName="quoteleft" x="0" y="0" flags="0x4"/>
      <component glyphName="quoteleft" x="160" y="0" flags="0x4"/>
    </TTGlyph>
    <TTGlyph name="quotedblright" xMin="59" yMin="550" xMax="315" yMax="750">
      <component glyphName="quoteright" x="0" y="0" flags="0x4"/>
      <component glyphName="quoteright" x="160" y="0" flags="0x4"/>
    </TTGlyph>
    <TTGlyph name="quoteleft" xMin="89" yMin="540" xMax="185" yMax="740">
      <contour>
        <pt x="115" y="540" on="1"/>
        <pt x="101" y="540" on="0"/>
        <pt x="89" y="555" on="0"/>
        <pt x="89" y="566" on="1"/>
        <pt x="89" y="578" on="1"/>
        <pt x="89" y="599" on="0"/>
        <pt x="101" y="643" on="0"/>
        <pt x="122" y="686" on="0"/>
        <pt x="150" y="725" on="0"/>
        <pt x="166" y="740" on="1"/>
        <pt x="185" y="740" on="1"/>
        <pt x="147" y="702" on="0"/>
        <pt x="114" y="626" on="0"/>
        <pt x="111" y="598" on="1"/>
        <pt x="129" y="598" on="0"/>
        <pt x="143" y="584" on="0"/>
        <pt x="143" y="575" on="1"/>
        <pt x="143" y="566" on="1"/>
        <pt x="143" y="555" on="0"/>
        <pt x="130" y="540" on="0"/>
      </contour>
    </TTGlyph>
    <TTGlyph name="quoteright" xMin="59" yMin="550" xMax="155" yMax="750">
      <contour>
        <pt x="129" y="750" on="1"/>
        <pt x="143" y="750" on="0"/>
        <pt x="155" y="735" on="0"/>
        <pt x="155" y="724" on="1"/>
        <pt x="155" y="712" on="1"/>
        <pt x="155" y="691" on="0"/>
        <pt x="143" y="647" on="0"/>
        <pt x="122" y="604" on="0"/>
        <pt x="94" y="565" on="0"/>
        <pt x="78" y="550" on="1"/>
        <pt x="59" y="550" on="1"/>
        <pt x="97" y="588" on="0"/>
        <pt x="130" y="664" on="0"/>
        <pt x="133" y="692" on="1"/>
        <pt x="115" y="692" on="0"/>
        <pt x="101" y="706" on="0"/>
        <pt x="101" y="715" on="1"/>
        <pt x="101" y="724" on="1"/>
        <pt x="101" y="735" on="0"/>
        <pt x="114" y="750" on="0"/>
      </contour>
    </TTGlyph>
    <TTGlyph name="quotesinglbase" xMin="52" yMin="-134" xMax="148" yMax="66">
      <contour>
        <pt x="122" y="66" on="1"/>
        <pt x="136" y="66" on="0"/>
        <pt x="148" y="51" on="0"/>
        <pt x="148" y="40" on="1"/>
        <pt x="148" y="28" on="1"/>
        <pt x="148" y="7" on="0"/>
        <pt x="136" y="-37" on="0"/>
        <pt x="115" y="-80" on="0"/>
        <pt x="87" y="-119" on="0"/>
        <pt x="71" y="-134" on="1"/>
        <pt x="52" y="-134" on="1"/>
        <pt x="90" y="-96" on="0"/>
        <pt x="123" y="-20" on="0"/>
        <pt x="126" y="8" on="1"/>
        <pt x="108" y="8" on="0"/>
        <pt x="94" y="22" on="0"/>
        <pt x="94" y="31" on="1"/>
        <pt x="94" y="40" on="1"/>
        <pt x="94" y="51" on="0"/>
        <pt x="107" y="66" on="0"/>
      </contour>
    </TTGlyph>
    <TTGlyph name="quotesingle" xMin="100" yMin="490" xMax="120" yMax="740">
      <contour>
        <pt x="100" y="490" on="1"/>
        <pt x="100" y="740" on="1"/>
        <pt x="120" y="740" on="1"/>
        <pt x="120" y="490" on="1"/>
      </contour>
    </TTGlyph>
    <TTGlyph name="r" xMin="105" yMin="0" xMax="328" yMax="506">
      <contour>
        <pt x="105" y="0" on="1"/>
        <pt x="105" y="506" on="1"/>
        <pt x="126" y="506" on="1"/>
        <pt x="126" y="419" on="1"/>
        <pt x="129" y="419" on="1"/>
        <pt x="138" y="437" on="0"/>
        <pt x="163" y="468" on="0"/>
        <pt x="200" y="492" on="0"/>
        <pt x="252" y="506" on="0"/>
        <pt x="287" y="506" on="1"/>
        <pt x="328" y="506" on="1"/>
        <pt x="328" y="487" on="1"/>
        <pt x="284" y="487" on="1"/>
        <pt x="253" y="487" on="0"/>
        <pt x="196" y="470" on="0"/>
        <pt x="152" y="436" on="0"/>
        <pt x="126" y="384" on="0"/>
        <pt x="126" y="349" on="1"/>
        <pt x="126" y="0" on="1"/>
      </contour>
    </TTGlyph>
    <TTGlyph name="radical" xMin="28" yMin="0" xMax="535" yMax="698">
      <contour>
        <pt x="289" y="0" on="1"/>
        <pt x="149" y="487" on="1"/>
        <pt x="28" y="487" on="1"/>
        <pt x="28" y="506" on="1"/>
        <pt x="165" y="506" on="1"/>
        <pt x="302" y="27" on="1"/>
        <pt x="305" y="27" on="1"/>
        <pt x="514" y="698" on="1"/>
        <pt x="535" y="698" on="1"/>
        <pt x="316" y="0" on="1"/>
      </contour>
    </TTGlyph>
    <TTGlyph name="registered" xMin="35" yMin="298" xMax="431" yMax="710">
      <contour>
        <pt x="233" y="298" on="1"/>
        <pt x="190" y="298" on="0"/>
        <pt x="117" y="328" on="0"/>
        <pt x="65" y="382" on="0"/>
        <pt x="35" y="458" on="0"/>
        <pt x="35" y="504" on="1"/>
        <pt x="35" y="550" on="0"/>
        <pt x="65" y="626" on="0"/>
        <pt x="117" y="680" on="0"/>
        <pt x="190" y="710" on="0"/>
        <pt x="233" y="710" on="1"/>
        <pt x="276" y="710" on="0"/>
        <pt x="349" y="680" on="0"/>
        <pt x="401" y="626" on="0"/>
        <pt x="431" y="550" on="0"/>
        <pt x="431" y="504" on="1"/>
        <pt x="431" y="458" on="0"/>
        <pt x="401" y="382" on="0"/>
        <pt x="349" y="328" on="0"/>
        <pt x="276" y="298" on="0"/>
      </contour>
      <contour>
        <pt x="233" y="314" on="1"/>
        <pt x="272" y="314" on="0"/>
        <pt x="337" y="341" on="0"/>
        <pt x="385" y="389" on="0"/>
        <pt x="412" y="455" on="0"/>
        <pt x="412" y="494" on="1"/>
        <pt x="412" y="514" on="1"/>
        <pt x="412" y="553" on="0"/>
        <pt x="385" y="619" on="0"/>
        <pt x="337" y="667" on="0"/>
        <pt x="272" y="694" on="0"/>
        <pt x="233" y="694" on="1"/>
        <pt x="194" y="694" on="0"/>
        <pt x="129" y="667" on="0"/>
        <pt x="81" y="619" on="0"/>
        <pt x="54" y="553" on="0"/>
        <pt x="54" y="514" on="1"/>
        <pt x="54" y="494" on="1"/>
        <pt x="54" y="455" on="0"/>
        <pt x="81" y="389" on="0"/>
        <pt x="129" y="341" on="0"/>
        <pt x="194" y="314" on="0"/>
      </contour>
      <contour>
        <pt x="184" y="397" on="1"/>
        <pt x="168" y="397" on="1"/>
        <pt x="168" y="609" on="1"/>
        <pt x="249" y="609" on="1"/>
        <pt x="278" y="609" on="0"/>
        <pt x="312" y="580" on="0"/>
        <pt x="312" y="547" on="1"/>
        <pt x="312" y="520" on="0"/>
        <pt x="285" y="490" on="0"/>
        <pt x="264" y="489" on="1"/>
        <pt x="318" y="397" on="1"/>
        <pt x="299" y="397" on="1"/>
        <pt x="247" y="488" on="1"/>
        <pt x="184" y="488" on="1"/>
      </contour>
      <contour>
        <pt x="248" y="503" on="1"/>
        <pt x="273" y="503" on="0"/>
        <pt x="294" y="522" on="0"/>
        <pt x="294" y="545" on="1"/>
        <pt x="294" y="552" on="1"/>
        <pt x="294" y="575" on="0"/>
        <pt x="273" y="594" on="0"/>
        <pt x="248" y="594" on="1"/>
        <pt x="184" y="594" on="1"/>
        <pt x="184" y="503" on="1"/>
      </contour>
    </TTGlyph>
    <TTGlyph name="ring" xMin="210" yMin="589" xMax="390" yMax="771">
      <contour>
        <pt x="300" y="589" on="1"/>
        <pt x="259" y="589" on="0"/>
        <pt x="210" y="639" on="0"/>
        <pt x="210" y="680" on="1"/>
        <pt x="210" y="721" on="0"/>
        <pt x="259" y="771" on="0"/>
        <pt x="300" y="771" on="1"/>
        <pt x="341" y="771" on="0"/>
        <pt x="390" y="721" on="0"/>
        <pt x="390" y="680" on="1"/>
        <pt x="390" y="639" on="0"/>
        <pt x="341" y="589" on="0"/>
      </contour>
      <contour>
        <pt x="300" y="607" on="1"/>
        <pt x="332" y="607" on="0"/>
        <pt x="370" y="644" on="0"/>
        <pt x="370" y="675" on="1"/>
        <pt x="370" y="685" on="1"/>
        <pt x="370" y="716" on="0"/>
        <pt x="332" y="753" on="0"/>
        <pt x="300" y="753" on="1"/>
        <pt x="268" y="753" on="0"/>
        <pt x="230" y="716" on="0"/>
        <pt x="230" y="685" on="1"/>
        <pt x="230" y="675" on="1"/>
        <pt x="230" y="644" on="0"/>
        <pt x="268" y="607" on="0"/>
      </contour>
    </TTGlyph>
    <TTGlyph name="ring.case" xMin="210" yMin="769" xMax="390" yMax="951">
      <contour>
        <pt x="300" y="769" on="1"/>
        <pt x="259" y="769" on="0"/>
        <pt x="210" y="819" on="0"/>
        <pt x="210" y="860" on="1"/>
        <pt x="210" y="901" on="0"/>
        <pt x="259" y="951" on="0"/>
        <pt x="300" y="951" on="1"/>
        <pt x="341" y="951" on="0"/>
        <pt x="390" y="901" on="0"/>
        <pt x="390" y="860" on="1"/>
        <pt x="390" y="819" on="0"/>
        <pt x="341" y="769" on="0"/>
      </contour>
      <contour>
        <pt x="300" y="787" on="1"/>
        <pt x="332" y="787" on="0"/>
        <pt x="370" y="824" on="0"/>
        <pt x="370" y="855" on="1"/>
        <pt x="370" y="865" on="1"/>
        <pt x="370" y="896" on="0"/>
        <pt x="332" y="933" on="0"/>
        <pt x="300" y="933" on="1"/>
        <pt x="268" y="933" on="0"/>
        <pt x="230" y="896" on="0"/>
        <pt x="230" y="865" on="1"/>
        <pt x="230" y="855" on="1"/>
        <pt x="230" y="824" on="0"/>
        <pt x="268" y="787" on="0"/>
      </contour>
    </TTGlyph>
</ttFont>
